<?xml version="1.0" encoding="utf-8"?>
<!-- Generator: Adobe Illustrator 18.0.0, SVG Export Plug-In . SVG Version: 6.00 Build 0)  -->
<!DOCTYPE svg PUBLIC "-//W3C//DTD SVG 1.1//EN" "http://www.w3.org/Graphics/SVG/1.1/DTD/svg11.dtd">
<svg version="1.1" id="Layer_1" xmlns="http://www.w3.org/2000/svg" xmlns:xlink="http://www.w3.org/1999/xlink" x="0px" y="0px"
	 viewBox="63.7 135.4 413.3 264.2" enable-background="new 63.7 135.4 413.3 264.2" xml:space="preserve">
<g id="Layer_7">
</g>
<g id="Layer_6">
</g>
<g id="Layer_2">
</g>
<g id="Layer_4">
</g>
<g id="Layer_1_1_">
</g>
<g id="Layer_3">
</g>
<linearGradient id="SVGID_1_" gradientUnits="userSpaceOnUse" x1="101.8678" y1="437.63" x2="468.3509" y2="437.63" gradientTransform="matrix(0.8415 0 0 -0.8415 0 520.5544)">
	<stop  offset="4.962532e-03" style="stop-color:#FFFFFF"/>
	<stop  offset="9.791677e-02" style="stop-color:#F2E6ED"/>
	<stop  offset="0.3282" style="stop-color:#D4AEC3"/>
	<stop  offset="0.5417" style="stop-color:#BC81A2"/>
	<stop  offset="0.7315" style="stop-color:#AB628B"/>
	<stop  offset="0.8908" style="stop-color:#A14E7C"/>
	<stop  offset="1" style="stop-color:#9D4777"/>
</linearGradient>
<polygon fill="url(#SVGID_1_)" points="65.9,169.1 453.6,135.4 453.6,169.1 "/>
<text transform="matrix(1 0 0 1 329.4795 161.7714)" fill="#FFFFFF" font-family="'Calibri'" font-size="10.9399">Usefulness to researchers </text>
<text transform="matrix(1 0 0 1 446.3682 161.7714)" fill="#FFFFFF" font-family="'Calibri-Light'" font-size="10.9399"> </text>
<rect x="63.7" y="187.7" fill="none" width="180.5" height="28.5"/>
<text transform="matrix(1 0 0 1 116.7046 195.099)" fill="#666666" font-family="'ArialMT'" font-size="10.9399">Traditional Price</text>
<text transform="matrix(1 0 0 1 105.6807 208.227)" fill="#666666" font-family="'ArialMT'" font-size="10.9399"> Comparing Websites</text>
<rect x="275.9" y="187.7" fill="none" width="180.5" height="28.5"/>
<text transform="matrix(1 0 0 1 324.8116 195.099)" fill="#9D4777" font-family="'ArialMT'" font-size="10.9399">Scinapsis Provides </text>
<text transform="matrix(1 0 0 1 289.8037 208.227)" fill="#9D4777" font-family="'ArialMT'" font-size="10.9399">Product Applicaiton and Evidence</text>
<ellipse transform="matrix(1.110932e-02 -0.9999 0.9999 1.110932e-02 -125.2256 337.5516)" fill="#74879E" cx="108" cy="232.1" rx="4.1" ry="10.9"/>
<g>
	<path fill="#FFFFFF" stroke="#4D4D4D" stroke-miterlimit="10" d="M99,243.3l0.2,46.4c0,0,7.8,6.6,17.9,0l0.2-48.1L99,243.3z"/>
	<path fill="#BDC4CC" d="M116,289.9c0.1-0.1,0.3-0.1,0.3-0.2c0.1-0.1,0.2-0.1,0.3-0.2l0.1-0.1l0,0c0,0,0,0,0.1,0c0-0.1,0-0.2,0-0.3
		v-0.1v-1.1l0.2-28.9c-0.9,0.8-1.9,1.2-3.2,1.7c-1.3,0.4-3,0.8-5.3,0.8c-1.2,0-2.7-0.3-4-0.5c-2.4-0.5-4.6-2.1-4.6-2.1l0.2,30.4
		c0.1,0.1,0.1,0.2,0.2,0.2l0,0c2.7,2.4,7.2,2.5,7.6,2.6c0,0,0.8,0,2.1,0c1.3-0.1,4-0.9,4-0.9l2.3-1C115.8,290,115.9,289.9,116,289.9
		z"/>
	
		<linearGradient id="SVGID_2_" gradientUnits="userSpaceOnUse" x1="126.4" y1="319.88" x2="126.4" y2="319.88" gradientTransform="matrix(0.8415 0 0 -0.8415 0 520.5544)">
		<stop  offset="0" style="stop-color:#A7B3C2"/>
		<stop  offset="1" style="stop-color:#6D8199"/>
	</linearGradient>
	<path fill="url(#SVGID_2_)" d="M106.4,251.4"/>
	<path fill="#17375E" d="M97.2,231.9l0.2,10.7c0,0,2,2.3,5.6,2.6c0,0,12.2,1.9,15.7-2.6l0.2-10.9L97.2,231.9z"/>
	
		<ellipse transform="matrix(6.881496e-03 -1 1 6.881496e-03 -149.44 363.5447)" fill="#BDC4CC" cx="108.3" cy="257" rx="4" ry="8.8"/>
	<path fill="#FFFFFF" stroke="#999999" stroke-miterlimit="10" d="M107.1,269c-2.3-0.1-4.4-0.8-5.5-1.3c-0.9-0.4-1.1-1-1.1-0.7
		l0.1,10.5c0,0,7.7,4.8,14.9,0l0.2-10.5C113.3,268.9,110,269,107.1,269z"/>
</g>
<rect x="139.7" y="237.5" fill="none" stroke="#808080" stroke-miterlimit="10" width="62.3" height="42.8"/>
<rect x="145.4" y="246.7" fill="none" width="52.4" height="28.5"/>
<text transform="matrix(1 0 0 1 149.6738 253.0341)" fill="#666666" font-family="'Calibri-Bold'" font-size="9.2568">Company A</text>
<text transform="matrix(1 0 0 1 145.4663 266.4984)" fill="#666666" font-family="'Calibri'" font-size="9.2568">&gt; Price 300</text>
<g>
	<path fill="#FFFFFF" stroke="#4D4D4D" stroke-miterlimit="10" d="M99,333.3l0.2,46.4c0,0,7.8,6.6,17.9,0l0.2-48.1L99,333.3z"/>
	<path fill="#BDC4CC" d="M116,380c0.1-0.1,0.3-0.1,0.3-0.2c0.1-0.1,0.2-0.1,0.3-0.2l0.1-0.1l0,0c0,0,0,0,0.1,0c0-0.1,0-0.2,0-0.3
		v-0.1v-1.1l0.2-28.9c-0.9,0.8-1.9,1.2-3.2,1.7c-1.3,0.4-3,0.8-5.3,0.8c-1.2,0-2.7-0.3-4-0.5c-2.4-0.5-4.6-2.1-4.6-2.1l0.2,30.4
		c0.1,0.1,0.1,0.2,0.2,0.2l0,0c2.7,2.4,7.2,2.5,7.6,2.6c0,0,0.8,0,2.1,0c1.3-0.1,4-0.9,4-0.9l2.3-1C115.8,380,115.9,380,116,380z"/>
	
		<linearGradient id="SVGID_3_" gradientUnits="userSpaceOnUse" x1="126.4" y1="212.88" x2="126.4" y2="212.88" gradientTransform="matrix(0.8415 0 0 -0.8415 0 520.5544)">
		<stop  offset="0" style="stop-color:#A7B3C2"/>
		<stop  offset="1" style="stop-color:#6D8199"/>
	</linearGradient>
	<path fill="url(#SVGID_3_)" d="M106.4,341.4"/>
	<path fill="#17375E" d="M97.2,322l0.2,10.7c0,0,2,2.3,5.6,2.6c0,0,12.2,1.9,15.7-2.6l0.2-10.9L97.2,322z"/>
	
		<ellipse transform="matrix(1.110932e-02 -0.9999 0.9999 1.110932e-02 -215.2605 426.5917)" fill="#74879E" cx="108" cy="322.1" rx="4.1" ry="10.9"/>
	
		<ellipse transform="matrix(6.881496e-03 -1 1 6.881496e-03 -239.4839 452.971)" fill="#BDC4CC" cx="108.3" cy="347.1" rx="4" ry="8.8"/>
	<path fill="#FFFFFF" stroke="#999999" stroke-miterlimit="10" d="M107.1,359c-2.3-0.1-4.4-0.8-5.5-1.3c-0.9-0.4-1.1-1-1.1-0.7
		l0.1,10.5c0,0,7.7,4.8,14.9,0l0.2-10.5C113.3,358.9,110,359.1,107.1,359z"/>
</g>
<rect x="139.7" y="327.5" fill="none" stroke="#808080" stroke-miterlimit="10" width="62.3" height="42.8"/>
<rect x="145.4" y="336.8" fill="none" width="52.4" height="28.5"/>
<text transform="matrix(1 0 0 1 149.8838 343.078)" fill="#666666" font-family="'Calibri-Bold'" font-size="9.2568">Company B</text>
<text transform="matrix(1 0 0 1 145.4239 356.5429)" fill="#666666" font-family="'Calibri'" font-size="9.2568">&gt; Price 300</text>
<line fill="#CCCCCC" stroke="#B3B3B3" stroke-miterlimit="10" x1="238.6" y1="187.6" x2="238.6" y2="399.6"/>
<path fill="#FFFFFF" stroke="#4D4D4D" stroke-miterlimit="10" d="M280.8,244.1l0.2,46.4c0,0,7.8,6.6,17.9,0l0.2-48.1L280.8,244.1z"
	/>
<path fill="#BDC4CC" d="M297.7,290.7c0.1-0.1,0.3-0.1,0.3-0.2c0.1-0.1,0.2-0.1,0.3-0.2l0.1-0.1l0,0c0,0,0,0,0.1,0c0-0.1,0-0.2,0-0.3
	V290v-1.1l0.2-28.9c-0.9,0.8-1.9,1.2-3.2,1.7c-1.3,0.4-3,0.8-5.3,0.8c-1.2,0-2.7-0.3-4-0.5c-2.4-0.5-4.6-2.1-4.6-2.1l0.2,30.4
	c0.1,0.1,0.1,0.2,0.2,0.2l0,0c2.7,2.4,7.2,2.5,7.6,2.6c0,0,0.8,0,2.1,0c1.3-0.1,4-0.9,4-0.9l2.3-1
	C297.6,290.8,297.6,290.7,297.7,290.7z"/>
<linearGradient id="SVGID_4_" gradientUnits="userSpaceOnUse" x1="342.4" y1="318.88" x2="342.4" y2="318.88" gradientTransform="matrix(0.8415 0 0 -0.8415 0 520.5544)">
	<stop  offset="0" style="stop-color:#A7B3C2"/>
	<stop  offset="1" style="stop-color:#6D8199"/>
</linearGradient>
<path fill="url(#SVGID_4_)" d="M288.1,252.2"/>
<path fill="#17375E" d="M279,232.8l0.2,10.7c0,0,2,2.3,5.6,2.6c0,0,12.2,1.9,15.7-2.6l0.2-10.9L279,232.8z"/>
<ellipse transform="matrix(1.110932e-02 -0.9999 0.9999 1.110932e-02 53.6775 520.1363)" fill="#74879E" cx="289.8" cy="232.9" rx="4.1" ry="10.9"/>
<ellipse transform="matrix(6.881496e-03 -1 1 6.881496e-03 30.2426 546.1513)" fill="#BDC4CC" cx="290.1" cy="257.8" rx="4" ry="8.8"/>
<path fill="#FFFFFF" stroke="#999999" stroke-miterlimit="10" d="M288.9,269.8c-2.3-0.1-4.4-0.8-5.5-1.3c-0.9-0.4-1.1-1-1.1-0.7
	l0.1,10.5c0,0,7.7,4.8,14.9,0l0.2-10.5C295,269.7,291.8,269.9,288.9,269.8z"/>
<rect x="319.8" y="228.2" fill="none" stroke="#808080" stroke-miterlimit="10" width="133.8" height="62.4"/>
<rect x="325.5" y="235.8" fill="none" width="126.4" height="46"/>
<g>
	<text transform="matrix(1 0 0 1 366.7246 242.0941)" fill="#9D4777" font-family="'Calibri-Bold'" font-size="9.2568">Company A</text>
	<text transform="matrix(1 0 0 1 325.5732 256.4003)" fill="#9D4777" font-family="'Calibri'" font-size="9.2568">&gt; Used in 50 Literatures</text>
	<text transform="matrix(1 0 0 1 325.5732 267.5087)" fill="#9D4777" font-family="'Calibri'" font-size="9.2568">&gt; Application: A, B, C</text>
	<text transform="matrix(1 0 0 1 325.5732 278.6172)" fill="#9D4777" font-family="'Calibri'" font-size="9.2568">&gt; Direct validation in publication</text>
</g>
<path fill="#FFFFFF" stroke="#4D4D4D" stroke-miterlimit="10" d="M280.8,333.3l0.2,46.4c0,0,7.8,6.6,17.9,0l0.2-48.1L280.8,333.3z"
	/>
<path fill="#BDC4CC" d="M297.7,380c0.1-0.1,0.3-0.1,0.3-0.2c0.1-0.1,0.2-0.1,0.3-0.2l0.1-0.1l0,0c0,0,0,0,0.1,0c0-0.1,0-0.2,0-0.3
	v-0.1v-1.1l0.2-28.9c-0.9,0.8-1.9,1.2-3.2,1.7c-1.3,0.4-3,0.8-5.3,0.8c-1.2,0-2.7-0.3-4-0.5c-2.4-0.5-4.6-2.1-4.6-2.1l0.2,30.4
	c0.1,0.1,0.1,0.2,0.2,0.2l0,0c2.7,2.4,7.2,2.5,7.6,2.6c0,0,0.8,0,2.1,0c1.3-0.1,4-0.9,4-0.9l2.3-1C297.6,380,297.6,380,297.7,380z"
	/>
<linearGradient id="SVGID_5_" gradientUnits="userSpaceOnUse" x1="342.4" y1="212.88" x2="342.4" y2="212.88" gradientTransform="matrix(0.8415 0 0 -0.8415 0 520.5544)">
	<stop  offset="0" style="stop-color:#A7B3C2"/>
	<stop  offset="1" style="stop-color:#6D8199"/>
</linearGradient>
<path fill="url(#SVGID_5_)" d="M288.1,341.4"/>
<path fill="#17375E" d="M279,322l0.2,10.7c0,0,2,2.3,5.6,2.6c0,0,12.2,1.9,15.7-2.6l0.2-10.9L279,322z"/>
<ellipse transform="matrix(1.110932e-02 -0.9999 0.9999 1.110932e-02 -35.5159 608.3443)" fill="#74879E" cx="289.8" cy="322.1" rx="4.1" ry="10.9"/>
<ellipse transform="matrix(6.881496e-03 -1 1 6.881496e-03 -58.9596 634.7419)" fill="#BDC4CC" cx="290.1" cy="347.1" rx="4" ry="8.8"/>
<path fill="#FFFFFF" stroke="#999999" stroke-miterlimit="10" d="M288.9,359c-2.3-0.1-4.4-0.8-5.5-1.3c-0.9-0.4-1.1-1-1.1-0.7
	l0.1,10.5c0,0,7.7,4.8,14.9,0l0.2-10.5C295,358.9,291.8,359.1,288.9,359z"/>
<rect x="319.8" y="317.4" fill="none" stroke="#808080" stroke-miterlimit="10" width="133.8" height="62.4"/>
<rect x="325.5" y="325" fill="none" width="126.4" height="46"/>
<g>
	<text transform="matrix(1 0 0 1 366.9345 331.2968)" fill="#9D4777" font-family="'Calibri-Bold'" font-size="9.2568">Company B</text>
	<text transform="matrix(1 0 0 1 325.5313 345.6025)" fill="#9D4777" font-family="'Calibri'" font-size="9.2568">&gt; Used in 30 Literatures</text>
	<text transform="matrix(1 0 0 1 325.5313 356.7109)" fill="#9D4777" font-family="'Calibri'" font-size="9.2568">&gt; Application: B, D, F</text>
	<text transform="matrix(1 0 0 1 325.5313 367.8193)" fill="#9D4777" font-family="'Calibri'" font-size="9.2568">&gt; Direct validation in publication</text>
</g>
</svg>
