<?xml version="1.0" encoding="utf-8"?>
<!-- Generator: Adobe Illustrator 18.0.0, SVG Export Plug-In . SVG Version: 6.00 Build 0)  -->
<!DOCTYPE svg PUBLIC "-//W3C//DTD SVG 1.1//EN" "http://www.w3.org/Graphics/SVG/1.1/DTD/svg11.dtd">
<svg version="1.1" id="Layer_1" xmlns="http://www.w3.org/2000/svg" xmlns:xlink="http://www.w3.org/1999/xlink" x="0px" y="0px"
	 viewBox="26.1 113.7 498.8 292" enable-background="new 26.1 113.7 498.8 292" xml:space="preserve">
<g id="Layer_7">
</g>
<g>
	
		<image overflow="visible" opacity="0.75" enable-background="new    " width="263" height="65" xlink:href="62FCC2D1B3B37BE6.png"  transform="matrix(0.8415 0 0 0.8415 26.0875 324.8311)">
	</image>
	<g>
		<polygon fill="#C4D6E9" points="30.3,368.7 63.1,327.6 241.4,328.5 221.3,371.5 		"/>
	</g>
</g>
<g opacity="0.78">
	<defs>
		<filter id="Adobe_OpacityMaskFilter" filterUnits="userSpaceOnUse" x="75.2" y="345.3" width="47.6" height="15.1">
			<feColorMatrix  type="matrix" values="1 0 0 0 0  0 1 0 0 0  0 0 1 0 0  0 0 0 1 0"/>
		</filter>
	</defs>
	<mask maskUnits="userSpaceOnUse" x="75.2" y="345.3" width="47.6" height="15.1" id="SVGID_1_">
		<g filter="url(#Adobe_OpacityMaskFilter)">
			
				<image overflow="visible" enable-background="new    " width="61" height="23" xlink:href="62FCC2D1B3B37BEA.jpeg"  transform="matrix(0.8415 0 0 0.8415 73.2132 343.3448)">
			</image>
		</g>
	</mask>
	<g mask="url(#SVGID_1_)">
		<ellipse fill="#4D4D4D" cx="99" cy="352.9" rx="23.8" ry="7.6"/>
	</g>
</g>
<g opacity="0.78">
	<defs>
		<filter id="Adobe_OpacityMaskFilter_1_" filterUnits="userSpaceOnUse" x="168.3" y="345.4" width="30.8" height="14.8">
			<feColorMatrix  type="matrix" values="1 0 0 0 0  0 1 0 0 0  0 0 1 0 0  0 0 0 1 0"/>
		</filter>
	</defs>
	<mask maskUnits="userSpaceOnUse" x="168.3" y="345.4" width="30.8" height="14.8" id="SVGID_2_">
		<g filter="url(#Adobe_OpacityMaskFilter_1_)">
			
				<image overflow="visible" enable-background="new    " width="41" height="22" xlink:href="62FCC2D1B3B37BEA.jpeg"  transform="matrix(0.8415 0 0 0.8415 166.6232 343.3448)">
			</image>
		</g>
	</mask>
	<g mask="url(#SVGID_2_)">
		<ellipse fill="#4D4D4D" cx="183.7" cy="352.8" rx="15.4" ry="7.4"/>
	</g>
</g>
<g opacity="0.78">
	<defs>
		<filter id="Adobe_OpacityMaskFilter_2_" filterUnits="userSpaceOnUse" x="355.5" y="350.3" width="49.8" height="17.2">
			<feColorMatrix  type="matrix" values="1 0 0 0 0  0 1 0 0 0  0 0 1 0 0  0 0 0 1 0"/>
		</filter>
	</defs>
	<mask maskUnits="userSpaceOnUse" x="355.5" y="350.3" width="49.8" height="17.2" id="SVGID_3_">
		<g filter="url(#Adobe_OpacityMaskFilter_2_)">
			
				<image overflow="visible" enable-background="new    " width="64" height="25" xlink:href="62FCC2D1B3B37BEE.jpeg"  transform="matrix(0.8415 0 0 0.8415 353.4431 348.394)">
			</image>
		</g>
	</mask>
	<g mask="url(#SVGID_3_)">
		<ellipse fill="#4D4D4D" cx="380.4" cy="358.9" rx="24.9" ry="8.6"/>
	</g>
</g>
<g opacity="0.78">
	<defs>
		<filter id="Adobe_OpacityMaskFilter_3_" filterUnits="userSpaceOnUse" x="423" y="351.2" width="32.5" height="15.1">
			<feColorMatrix  type="matrix" values="1 0 0 0 0  0 1 0 0 0  0 0 1 0 0  0 0 0 1 0"/>
		</filter>
	</defs>
	<mask maskUnits="userSpaceOnUse" x="423" y="351.2" width="32.5" height="15.1" id="SVGID_4_">
		<g filter="url(#Adobe_OpacityMaskFilter_3_)">
			
				<image overflow="visible" enable-background="new    " width="44" height="23" xlink:href="62FCC2D1B3B37BEE.jpeg"  transform="matrix(0.8415 0 0 0.8415 420.7656 349.2355)">
			</image>
		</g>
	</mask>
	<g mask="url(#SVGID_4_)">
		<ellipse fill="#4D4D4D" cx="439.3" cy="358.7" rx="16.2" ry="7.6"/>
	</g>
</g>
<g id="Layer_2">
</g>
<g id="Layer_4">
</g>
<g id="Layer_1_1_">
</g>
<g id="Layer_3">
</g>
<path fill="#FFFFFF" stroke="#4D4D4D" stroke-miterlimit="10" d="M369.9,234c2-6.4,5.6-16.7,12.7-17.5l0.1-0.4l-105.4-28.2
	c0,0-19.8,13.7-11,40.6l106.3,29.3C369.8,250.6,367.3,242.1,369.9,234z"/>
<path fill="#BDC4CC" d="M270.4,205c0,0-5,14.3-0.3,21.8l99.3,28.2L270.4,205z"/>
<linearGradient id="SVGID_5_" gradientUnits="userSpaceOnUse" x1="378.7132" y1="284.7971" x2="378.7132" y2="284.7971" gradientTransform="matrix(-0.2202 0.8122 0.8122 0.2202 211.7726 -142.4944)">
	<stop  offset="0" style="stop-color:#A7B3C2"/>
	<stop  offset="1" style="stop-color:#6D8199"/>
</linearGradient>
<path fill="url(#SVGID_5_)" d="M359.7,227.8"/>
<ellipse transform="matrix(0.9633 0.2683 -0.2683 0.9633 77.4144 -92.6174)" fill="#FFFFFF" stroke="#4D4D4D" stroke-miterlimit="10" cx="377.6" cy="236.9" rx="9.5" ry="21.6"/>
<path fill="#BDC4CC" d="M378.9,280.5c1.6-0.1,3.2-0.3,4.5-1.1c2-1.3,2.9-4,2.4-6.3c-0.4-2.4-1.9-4.5-3.5-6.2c-1.6-1.8-3.5-3.4-5-5.2
	c0.1,2.3-1,4.4-2.3,6.3c-1.2,1.9-2.5,3.8-3,6c-0.5,2.2,0.1,4.9,2,6C375.7,280.7,377.3,280.7,378.9,280.5z"/>
<path fill="#BDC4CC" d="M379.8,308.3c1.6-0.1,3.2-0.3,4.5-1.1c2-1.3,2.9-4,2.4-6.3c-0.4-2.4-1.9-4.5-3.5-6.2s-3.5-3.4-5-5.2
	c0.1,2.3-1,4.4-2.3,6.3c-1.2,1.9-2.5,3.8-3,6s0.1,4.9,2,6C376.5,308.5,378.2,308.4,379.8,308.3z"/>
<text transform="matrix(1 0 0 1 53.9809 123.3613)" fill="#9D4777" font-family="'ArialMT'" font-size="11.7814">Total  Yearly Spending on Protein   </text>
<text transform="matrix(1 0 0 1 84.0239 137.4994)" fill="#9D4777" font-family="'ArialMT'" font-size="11.7814">Binding Agents ($US) </text>
<text transform="matrix(1 0 0 1 189.2993 137.4994)" fill="#231F20" font-family="'ArialMT'" font-size="11.7814"> </text>
<text transform="matrix(1 0 0 1 72.1279 190.8671)" fill="#231F20" font-family="'ArialMT'" font-size="15.1476">1.6 </text>
<text transform="matrix(1 0 0 1 94.9336 190.8671)" fill="#231F20" font-family="'ArialMT'" font-size="11.7814">billion</text>
<text transform="matrix(1 0 0 1 153.3672 243.2714)" fill="#231F20" font-family="'ArialMT'" font-size="15.1476">700 </text>
<text transform="matrix(1 0 0 1 179.791 243.2714)" fill="#231F20" font-family="'ArialMT'" font-size="11.7814">million</text>
<text transform="matrix(1 0 0 1 87.4917 395.1767)" fill="#231F20" font-family="'ArialMT'" font-size="12">Global</text>
<text transform="matrix(1 0 0 1 180.8632 395.1767)" fill="#231F20" font-family="'ArialMT'" font-size="12">US</text>
<text transform="matrix(1 0 0 1 363.2197 395.1767)" fill="#231F20" font-family="'ArialMT'" font-size="12">Global</text>
<text transform="matrix(1 0 0 1 435.4971 395.1767)" fill="#231F20" font-family="'ArialMT'" font-size="12">US</text>
<text transform="matrix(1 0 0 1 317.0088 123.3613)" fill="#9D4777" font-family="'ArialMT'" font-size="11.7814">Yearly Spending on “Bad” Protein   </text>
<text transform="matrix(1 0 0 1 347.8086 137.4994)" fill="#9D4777" font-family="'ArialMT'" font-size="11.7814">Binding Agents ($US)  </text>
<text transform="matrix(1 0 0 1 299.3135 294.6269)" fill="#231F20" font-family="'ArialMT'" font-size="15.1476">800 </text>
<text transform="matrix(1 0 0 1 325.7373 294.6269)" fill="#231F20" font-family="'ArialMT'" font-size="11.7814">million</text>
<text transform="matrix(1 0 0 1 458.4775 304.1844)" fill="#231F20" font-family="'ArialMT'" font-size="15.1476">350 </text>
<text transform="matrix(1 0 0 1 484.9023 304.1844)" fill="#231F20" font-family="'ArialMT'" font-size="11.7814">million</text>
<g>
	<path fill="#17375E" d="M355,331.6l0.3,24.9c0,0,4.6,5.4,13.3,6.1c0,0,28.8,4.3,37-6.1l0.3-25.3L355,331.6z"/>
	<g>
		
			<ellipse transform="matrix(-1.110917e-02 0.9999 -0.9999 -1.110917e-02 715.7264 -45.8304)" fill="#74879E" cx="380.5" cy="331" rx="10.4" ry="25.5"/>
		
			<linearGradient id="SVGID_6_" gradientUnits="userSpaceOnUse" x1="425.334" y1="224.5942" x2="476.1721" y2="224.5942" gradientTransform="matrix(0.8839 4.714763e-04 -4.714763e-04 -0.8415 -17.7946 520.3539)">
			<stop  offset="4.962532e-03" style="stop-color:#262628"/>
			<stop  offset="0.3859" style="stop-color:#232325"/>
			<stop  offset="0.6455" style="stop-color:#1B1B1C"/>
			<stop  offset="0.8684" style="stop-color:#0C0C0D"/>
			<stop  offset="1" style="stop-color:#000000"/>
		</linearGradient>
		<path fill="url(#SVGID_6_)" d="M358.1,331.3c0.1-4.5,10.2-8,22.6-7.9c12.4,0.2,22.4,3.9,22.4,8.4c0,4.5-10.2,8-22.6,7.9
			C368,339.6,358,335.8,358.1,331.3z"/>
	</g>
</g>
<path fill="#FFFFFF" stroke="#4D4D4D" stroke-miterlimit="10" d="M445.9,259.4c-1.3-4-3.5-10.4-7.9-10.9l-0.1-0.3l65.3-17.5
	c0,0,12.2,8.5,6.8,25.2L444.2,274C445.9,269.6,447.4,264.3,445.9,259.4z"/>
<path fill="#BDC4CC" d="M507.4,241.4c0,0,3,8.8,0.2,13.5l-61.5,17.5L507.4,241.4z"/>
<linearGradient id="SVGID_7_" gradientUnits="userSpaceOnUse" x1="456.4332" y1="107.8479" x2="456.4332" y2="107.8479" gradientTransform="matrix(0.2202 0.8122 -0.8122 0.2202 440.4872 -142.4944)">
	<stop  offset="0" style="stop-color:#A7B3C2"/>
	<stop  offset="1" style="stop-color:#6D8199"/>
</linearGradient>
<path fill="url(#SVGID_7_)" d="M453.4,252"/>
<ellipse transform="matrix(0.9633 -0.2683 0.2683 0.9633 -53.8875 127.9352)" fill="#FFFFFF" stroke="#4D4D4D" stroke-miterlimit="10" cx="441.1" cy="261.1" rx="5.9" ry="13.4"/>
<path fill="#BDC4CC" d="M440.2,288.1c-1-0.1-2-0.2-2.9-0.7c-1.3-0.8-1.8-2.4-1.5-4c0.3-1.4,1.1-2.8,2.1-3.9c1-1.1,2.1-2.1,3.1-3.3
	c-0.1,1.4,0.7,2.7,1.3,3.9c0.8,1.2,1.6,2.4,1.9,3.7c0.3,1.3,0,3-1.3,3.7C442.3,288.2,441.2,288.2,440.2,288.1z"/>
<path fill="#BDC4CC" d="M439.7,305.3c-1-0.1-2-0.2-2.9-0.7c-1.3-0.8-1.8-2.4-1.5-4c0.3-1.4,1.1-2.8,2.1-3.9s2.1-2.1,3.1-3.3
	c-0.1,1.4,0.7,2.7,1.3,3.9c0.8,1.2,1.6,2.4,1.9,3.7s0,3-1.3,3.7C441.7,305.5,440.7,305.4,439.7,305.3z"/>
<path fill="#FFFFFF" stroke="#4D4D4D" stroke-miterlimit="10" d="M77.8,241.8l0.3,108c0,0,18.2,15.3,41.7,0l0.3-111.8L77.8,241.8z"
	/>
<path fill="#BDC4CC" d="M117.1,350.4c0.3-0.2,0.5-0.3,0.8-0.4c0.2-0.2,0.3-0.3,0.5-0.4c0.1-0.1,0.2-0.1,0.3-0.2l0,0l0.1-0.1
	c0-0.2-0.1-0.3,0-0.6c0-0.1,0-0.2,0-0.3v-2.6l0.3-67.4c-2.1,1.7-4.3,2.9-7.4,3.9c-3.1,1-7.1,1.9-12.4,1.9c-2.7,0-6.3-0.5-9.3-1.2
	c-5.7-1.2-10.8-4.9-10.8-4.9l0.3,70.7c0.2,0.2,0.3,0.4,0.3,0.4l0,0c6.2,5.7,16.8,6,17.8,6.1c0,0,1.8,0,4.9-0.1s9.2-2.3,9.2-2.3
	l5.2-2.4C116.9,350.5,117.1,350.4,117.1,350.4z"/>
<linearGradient id="SVGID_8_" gradientUnits="userSpaceOnUse" x1="112.7" y1="308.78" x2="112.7" y2="308.78" gradientTransform="matrix(0.8415 0 0 -0.8415 0 520.5544)">
	<stop  offset="0" style="stop-color:#A7B3C2"/>
	<stop  offset="1" style="stop-color:#6D8199"/>
</linearGradient>
<path fill="url(#SVGID_8_)" d="M94.8,260.7"/>
<path fill="#17375E" d="M73.5,215.4l0.3,24.9c0,0,4.6,5.4,13.2,6.1c0,0,28.5,4.3,36.7-6.1L124,215L73.5,215.4z"/>
<ellipse transform="matrix(1.110932e-02 -0.9999 0.9999 1.110932e-02 -118.0549 312.1522)" fill="#74879E" cx="98.8" cy="215.8" rx="9.6" ry="25.3"/>
<ellipse transform="matrix(6.881496e-03 -1 1 6.881496e-03 -175.1287 371.1718)" fill="#BDC4CC" cx="99.3" cy="273.8" rx="9.3" ry="20.4"/>
<path fill="#FFFFFF" stroke="#999999" stroke-miterlimit="10" d="M96.7,301.5c-5.2-0.3-10.2-2-12.7-3.2c-2.2-1.1-2.5-2.4-2.5-1.5
	l0.2,24.6c0,0,17.8,11.1,34.6,0l0.3-24.6C110.9,301.4,103.3,301.9,96.7,301.5z"/>
<g>
	<g>
		<path d="M88.7,315.2L88.7,315.2c0,0.1,0,0.1,0,0.2h-0.1c0,0-0.1,0-0.2,0s-0.1,0-0.2,0h-0.1l0,0c0,0,0,0,0-0.1
			c-0.1-0.4-0.3-0.9-0.3-1.3c-0.8-0.2-1.5-0.3-2.3-0.6c-0.3,0.3-0.4,0.7-0.7,1.1l0,0c0,0,0,0-0.1,0h-0.1c0,0-0.1,0-0.2,0
			s-0.1,0-0.2-0.1c0,0-0.1,0-0.1-0.1c0,0,0,0,0-0.1v-0.1c0.8-1.3,1.6-2.5,2.4-3.8l0,0c0,0,0,0,0.1,0h0.1H87c0.1,0,0.1,0,0.1,0h0.1
			c0,0,0,0,0.1,0.1c0,0,0,0,0,0.1C87.9,312,88.3,313.6,88.7,315.2z M87.1,310.7L87.1,310.7c-0.4,0.8-0.8,1.4-1.3,2.2
			c0.7,0.2,1.3,0.3,1.9,0.5C87.5,312.5,87.3,311.6,87.1,310.7z"/>
		<path d="M92.6,315.9L92.6,315.9C92.6,316,92.5,316,92.6,315.9c-0.1,0.1-0.1,0.1-0.2,0.1h-0.1c-0.1,0-0.1,0-0.1,0h-0.1l0,0l0,0
			c0.1-0.7,0.1-1.3,0.2-1.9c0-0.2,0-0.3,0-0.5s-0.1-0.3-0.2-0.3S92,313,91.9,313c-0.1-0.1-0.3-0.1-0.3-0.2c-0.2,0-0.3,0-0.6,0.1
			c-0.2,0.1-0.4,0.3-0.6,0.4c-0.1,0.8-0.2,1.5-0.3,2.4l0,0l0,0H90H90c-0.1,0-0.1,0-0.1,0h-0.1l0,0l0,0c0.1-1.1,0.3-2.2,0.3-3.2l0,0
			l0,0h0.1h0.1c0.1,0,0.1,0,0.1,0h0.1l0,0l0,0c0,0.2,0,0.3-0.1,0.4c0.3-0.2,0.4-0.3,0.7-0.3c0.2-0.1,0.4-0.1,0.6-0.1
			c0.3,0,0.4,0.1,0.6,0.2s0.3,0.2,0.3,0.3s0.2,0.3,0.2,0.4c0,0.2,0.1,0.3,0,0.6C92.7,314.6,92.6,315.2,92.6,315.9z"/>
		<path d="M96.9,313C97,313,97,313,96.9,313l0.1,0.2c0,1.1,0,2.1,0,3.2l0,0l0,0h-0.1h-0.1c-0.1,0-0.1,0-0.1,0h-0.1l0,0l0,0
			c0-1,0-2,0-2.9c-0.7,0-1.3-0.1-2-0.1c0,0.7-0.1,1.3-0.1,1.9c0,0.3,0,0.4,0.1,0.6c0.1,0.2,0.3,0.3,0.4,0.3c0.1,0,0.1,0,0.2,0
			s0.1,0,0.2,0h0.1h0.1l0,0l0,0c0,0,0,0,0,0.1v0.1c0,0.1,0,0.1,0,0.1s0,0.1-0.1,0.1c0,0-0.1,0-0.1,0.1c0,0-0.1,0-0.2,0s-0.1,0-0.2,0
			s-0.1,0-0.2,0c-0.2,0-0.3-0.1-0.5-0.1c-0.2-0.1-0.3-0.2-0.3-0.3c-0.1-0.1-0.2-0.3-0.2-0.3c0-0.2-0.1-0.3,0-0.5
			c0-0.7,0.1-1.3,0.1-2c-0.2,0-0.3,0-0.5-0.1c0,0-0.1,0-0.1-0.1c0,0,0-0.1,0-0.2v-0.1c0,0,0,0,0-0.1l0,0c0,0,0,0,0.1,0
			c0.2,0,0.3,0,0.5,0.1c0-0.3,0-0.5,0-0.8l0,0l0,0h0.1h0.1c0.1,0,0.1,0,0.1,0h0.1l0,0l0,0c0,0.3,0,0.5,0,0.8
			C95.4,312.9,96.2,312.9,96.9,313z M97.2,311.9c0,0.1,0,0.2-0.1,0.3c-0.1,0-0.1,0.1-0.3,0.1c-0.1,0-0.2,0-0.3-0.1
			c-0.1,0-0.1-0.1-0.1-0.3c0-0.1,0-0.2,0.1-0.3c0.1,0,0.1-0.1,0.3-0.1c0.1,0,0.2,0,0.3,0.1C97.2,311.7,97.2,311.8,97.2,311.9z"/>
		<path d="M101.6,314.6c0,0.3,0,0.5-0.1,0.8c-0.1,0.3-0.2,0.4-0.3,0.6c-0.2,0.2-0.3,0.3-0.5,0.4c-0.2,0.1-0.4,0.2-0.7,0.2
			c-0.1,0-0.3,0-0.3,0s-0.2-0.1-0.3-0.1c-0.1-0.1-0.2-0.1-0.3-0.2c-0.1-0.1-0.2-0.2-0.3-0.3c0,0.2,0,0.3,0,0.4c0,0,0,0,0,0.1l0,0
			h-0.1h-0.1h-0.1h-0.1l0,0c0,0,0,0,0-0.1c0-1.6,0-3.3,0-4.9l0,0l0,0c0,0,0,0,0.1,0h0.1c0.1,0,0.1,0,0.1,0h0.1l0,0l0,0
			c0,0.7,0,1.3,0,2c0.1-0.1,0.3-0.2,0.3-0.3c0.1-0.1,0.2-0.2,0.3-0.2c0.1-0.1,0.2-0.1,0.3-0.1c0.1,0,0.2,0,0.3,0
			c0.3,0,0.5,0,0.7,0.1c0.2,0.1,0.3,0.2,0.4,0.3c0.1,0.2,0.3,0.3,0.3,0.5C101.6,314.1,101.6,314.3,101.6,314.6z M101.2,314.6
			c0-0.2,0-0.3-0.1-0.5c0-0.2-0.1-0.3-0.2-0.4c-0.1-0.2-0.2-0.3-0.3-0.3c-0.2-0.1-0.3-0.1-0.5-0.1c-0.1,0-0.2,0-0.3,0.1
			c-0.1,0-0.2,0.1-0.3,0.1c-0.1,0.1-0.2,0.2-0.3,0.3c-0.1,0.1-0.2,0.2-0.3,0.3c0,0.5,0,0.9,0,1.4c0.2,0.3,0.4,0.4,0.6,0.5
			c0.2,0.1,0.4,0.2,0.6,0.2c0.2,0,0.3-0.1,0.5-0.2c0.2-0.1,0.3-0.2,0.3-0.3s0.2-0.3,0.2-0.4C101.1,315,101.2,314.8,101.2,314.6z"/>
		<path d="M105.9,314.1c0,0.3,0,0.5,0,0.8c-0.1,0.3-0.2,0.4-0.3,0.6c-0.2,0.2-0.3,0.3-0.5,0.4c-0.3,0.1-0.5,0.2-0.8,0.3
			c-0.3,0-0.5,0-0.8,0c-0.3-0.1-0.4-0.2-0.6-0.3c-0.2-0.2-0.3-0.3-0.3-0.5c-0.1-0.2-0.2-0.4-0.2-0.8c0-0.3,0-0.5,0.1-0.8
			c0.1-0.3,0.2-0.4,0.3-0.6c0.2-0.2,0.3-0.3,0.5-0.4c0.3-0.1,0.4-0.2,0.8-0.3c0.3,0,0.5,0,0.8,0c0.3,0.1,0.4,0.2,0.6,0.3
			c0.2,0.2,0.3,0.3,0.3,0.5C105.9,313.6,105.9,313.8,105.9,314.1z M105.4,314.1c0-0.2-0.1-0.3-0.1-0.5c-0.1-0.2-0.2-0.3-0.3-0.4
			c-0.1-0.1-0.3-0.2-0.4-0.3c-0.2-0.1-0.3-0.1-0.6,0c-0.3,0-0.4,0.1-0.5,0.2c-0.2,0.1-0.3,0.2-0.3,0.3c-0.1,0.2-0.2,0.3-0.2,0.4
			s-0.1,0.3,0,0.6c0,0.2,0.1,0.3,0.1,0.5c0.1,0.2,0.2,0.3,0.3,0.4c0.1,0.1,0.3,0.2,0.4,0.3c0.2,0.1,0.3,0.1,0.6,0.1
			c0.3,0,0.4-0.1,0.6-0.2c0.2-0.1,0.3-0.2,0.3-0.3c0.1-0.2,0.2-0.3,0.2-0.5C105.4,314.6,105.4,314.4,105.4,314.1z"/>
		<path d="M110.2,314.9C110.2,314.9,110.2,315,110.2,314.9C110.1,315,110.1,315,110.2,314.9C110.1,315,110.1,315,110.2,314.9
			L110,315c-0.1,0-0.1,0-0.1,0h-0.1c0,0,0,0-0.1,0l0,0c0-0.2-0.1-0.3-0.1-0.5c-0.2,0.3-0.3,0.4-0.5,0.6c-0.2,0.2-0.4,0.3-0.7,0.3
			c-0.3,0.1-0.5,0.1-0.7,0s-0.3-0.2-0.5-0.3c-0.2-0.2-0.3-0.3-0.3-0.5c-0.1-0.2-0.2-0.4-0.2-0.7c0-0.3,0-0.5,0-0.8s0.1-0.4,0.3-0.6
			c0.1-0.2,0.3-0.3,0.4-0.4c0.2-0.1,0.4-0.2,0.7-0.3c0.3-0.1,0.4-0.1,0.6,0s0.3,0.2,0.6,0.3c-0.1-0.7-0.2-1.3-0.3-1.9l0,0l0,0
			c0,0,0,0,0.1,0h0.1c0.1,0,0.1,0,0.1,0h0.1l0,0l0,0C109.7,311.7,109.9,313.3,110.2,314.9z M109.3,312.7c-0.3-0.2-0.4-0.3-0.7-0.3
			c-0.2-0.1-0.4-0.1-0.6-0.1s-0.3,0.1-0.4,0.3c-0.1,0.1-0.2,0.3-0.3,0.3c-0.1,0.2-0.1,0.3-0.1,0.5c0,0.2,0,0.3,0,0.5
			s0.1,0.3,0.1,0.5c0.1,0.2,0.1,0.3,0.3,0.4c0.1,0.1,0.2,0.2,0.3,0.3c0.2,0.1,0.3,0.1,0.5,0c0.1,0,0.2-0.1,0.3-0.1
			c0.1-0.1,0.2-0.1,0.3-0.2s0.2-0.2,0.3-0.3c0.1-0.1,0.2-0.3,0.3-0.4C109.4,313.6,109.4,313.1,109.3,312.7z"/>
		<path d="M112.8,314.2c-0.1,0.4-0.2,0.9-0.3,1.3c0,0,0,0.1-0.1,0.1c0,0-0.1,0.1-0.2,0.1s-0.1,0-0.1,0h-0.1l0,0v-0.1
			c0.1-0.4,0.2-0.8,0.3-1.3h-0.1l0,0c-0.6-0.9-1.3-1.9-1.9-2.8v-0.1c0,0,0,0,0-0.1c0,0,0,0,0.1,0c0,0,0.1,0,0.2,0c0.1,0,0.1,0,0.2,0
			h0.1c0,0,0,0,0.1,0l0,0c0.5,0.8,1,1.7,1.6,2.5l0,0c0.2-1,0.3-2.1,0.5-3.1v-0.1c0,0,0.1,0,0.1-0.1c0,0,0.1,0,0.2-0.1
			c0.1,0,0.1,0,0.1,0h0.1l0,0v0.1C113.4,311.8,113.1,313,112.8,314.2z"/>
	</g>
</g>
<path fill="#FFFFFF" stroke="#4D4D4D" stroke-miterlimit="10" d="M169.7,279.1l0.3,72.3c0,0,12.2,10.3,27.9,0l0.3-74.9L169.7,279.1z
	"/>
<path fill="#BDC4CC" d="M196.2,351.8c0.2-0.1,0.3-0.2,0.5-0.3c0.1-0.1,0.3-0.2,0.3-0.3c0.1,0,0.1-0.1,0.2-0.1l0,0c0,0,0.1,0,0.1-0.1
	s0-0.3,0-0.3s0-0.1,0-0.2v-1.8l0.3-45.2c-1.4,1.2-2.9,1.9-5,2.5c-2.1,0.7-4.7,1.3-8.3,1.3c-1.9,0-4.2-0.3-6.2-0.8
	c-3.9-0.8-7.2-3.3-7.2-3.3l0.3,47.4c0.1,0.1,0.2,0.3,0.3,0.3l0,0c4.1,3.9,11.3,4,11.9,4.1c0,0,1.2,0,3.3-0.1
	c2.1-0.1,6.1-1.5,6.1-1.5l3.5-1.6C196,352,196.1,351.9,196.2,351.8z"/>
<linearGradient id="SVGID_9_" gradientUnits="userSpaceOnUse" x1="215.3" y1="271.88" x2="215.3" y2="271.88" gradientTransform="matrix(0.8415 0 0 -0.8415 0 520.5544)">
	<stop  offset="0" style="stop-color:#A7B3C2"/>
	<stop  offset="1" style="stop-color:#6D8199"/>
</linearGradient>
<path fill="url(#SVGID_9_)" d="M181.2,291.8"/>
<path fill="#17375E" d="M166.9,261.5l0.3,16.7c0,0,3.1,3.6,8.8,4c0,0,19.1,2.9,24.6-4l0.3-16.9L166.9,261.5z"/>
<ellipse transform="matrix(1.110932e-02 -0.9999 0.9999 1.110932e-02 -79.8679 442.658)" fill="#74879E" cx="183.9" cy="261.7" rx="6.5" ry="16.9"/>
<ellipse transform="matrix(6.881496e-03 -1 1 6.881496e-03 -117.6459 482.7428)" fill="#BDC4CC" cx="184.2" cy="300.6" rx="6.3" ry="13.7"/>
<path fill="#FFFFFF" stroke="#999999" stroke-miterlimit="10" d="M182.4,319.1c-3.5-0.2-6.8-1.3-8.5-2.2c-1.5-0.7-1.7-1.6-1.7-1
	l0.1,16.4c0,0,11.9,7.4,23.1,0l0.3-16.5C192,319,186.9,319.4,182.4,319.1z"/>
<g>
	<g>
		<path d="M177.1,328.3C177.1,328.4,177.1,328.4,177.1,328.3C177.1,328.4,177.1,328.4,177.1,328.3
			C177.1,328.4,177.1,328.4,177.1,328.3l-0.2,0.1h-0.1c0,0,0,0-0.1,0l0,0l0,0c-0.1-0.3-0.2-0.6-0.3-0.9c-0.5-0.1-1-0.3-1.5-0.4
			c-0.2,0.3-0.3,0.5-0.4,0.7l0,0l0,0c0,0,0,0-0.1,0h-0.1h-0.1c0,0,0,0-0.1,0l0,0c0,0,0,0,0-0.1c0.6-0.8,1.1-1.7,1.6-2.5l0,0
			c0,0,0,0,0.1,0c0,0,0,0,0.1,0h0.1h0.1c0,0,0,0,0.1,0l0,0l0,0C176.5,326.2,176.8,327.3,177.1,328.3z M176,325.3L176,325.3
			c-0.3,0.5-0.6,1-0.8,1.4c0.4,0.1,0.8,0.3,1.3,0.3C176.3,326.5,176.1,325.9,176,325.3z"/>
		<path d="M179.7,328.8L179.7,328.8C179.7,328.9,179.7,328.9,179.7,328.8C179.6,328.9,179.6,328.9,179.7,328.8l-0.2,0.1h-0.1
			c0,0,0,0-0.1,0l0,0l0,0c0-0.4,0.1-0.8,0.1-1.3c0-0.2,0-0.3,0-0.3s-0.1-0.2-0.1-0.3c0-0.1-0.1-0.1-0.2-0.2
			c-0.1-0.1-0.2-0.1-0.3-0.1c-0.1,0-0.3,0-0.3,0.1c-0.2,0.1-0.3,0.2-0.4,0.3c-0.1,0.5-0.1,1-0.2,1.5l0,0l0,0c0,0,0,0-0.1,0h-0.1
			h-0.1c0,0,0,0-0.1,0l0,0l0,0c0.1-0.8,0.2-1.4,0.3-2.2l0,0l0,0c0,0,0,0,0.1,0h0.1h0.1c0,0,0,0,0.1,0l0,0l0,0c0,0.1,0,0.2,0,0.3
			c0.2-0.1,0.3-0.2,0.4-0.3c0.2,0,0.3-0.1,0.4,0c0.2,0,0.3,0.1,0.4,0.2c0.1,0.1,0.2,0.2,0.3,0.3c0.1,0.1,0.1,0.2,0.1,0.3
			c0,0.1,0,0.3,0,0.4C179.8,327.9,179.7,328.4,179.7,328.8z"/>
		<path d="M182.6,326.8C182.6,326.8,182.7,326.9,182.6,326.8C182.7,326.9,182.7,326.9,182.6,326.8c0.1,0.8,0.1,1.5,0.1,2.2l0,0l0,0
			c0,0,0,0-0.1,0h-0.1h-0.1c0,0,0,0-0.1,0l0,0l0,0c0-0.7,0-1.3,0-2c-0.4,0-0.9-0.1-1.3-0.1c0,0.4,0,0.8-0.1,1.3c0,0.2,0,0.3,0.1,0.4
			c0.1,0.1,0.2,0.2,0.3,0.2c0.1,0,0.1,0,0.1,0h0.1h0.1c0,0,0,0,0.1,0l0,0l0,0l0,0c0,0,0,0,0,0.1v0.1c0,0,0,0,0,0.1c0,0,0,0-0.1,0
			h-0.1h-0.1h-0.1c-0.1,0-0.3,0-0.3-0.1c-0.1,0-0.2-0.1-0.2-0.2c-0.1-0.1-0.1-0.2-0.1-0.3c0-0.1,0-0.2,0-0.3c0-0.4,0-0.9,0.1-1.3
			c-0.1,0-0.3,0-0.3,0h-0.1v-0.1c0,0,0,0,0-0.1l0,0l0,0l0,0c0.1,0,0.3,0,0.3,0c0-0.2,0-0.3,0-0.5l0,0l0,0c0,0,0,0,0.1,0h0.1h0.1
			c0,0,0,0,0.1,0l0,0l0,0c0,0.2,0,0.3,0,0.5C181.6,326.8,182.1,326.8,182.6,326.8z M182.8,326.1c0,0.1,0,0.2-0.1,0.2
			c0,0-0.1,0-0.2,0s-0.2,0-0.2-0.1c0,0,0-0.1,0-0.2s0-0.2,0.1-0.2c0,0,0.1,0,0.2,0s0.2,0,0.2,0.1C182.8,326,182.8,326,182.8,326.1z"
			/>
		<path d="M185.7,327.9c0,0.2,0,0.3-0.1,0.5c0,0.2-0.1,0.3-0.2,0.4c-0.1,0.1-0.2,0.2-0.3,0.3c-0.2,0.1-0.3,0.1-0.4,0.1
			c-0.1,0-0.2,0-0.3,0s-0.2,0-0.2-0.1c-0.1,0-0.2-0.1-0.2-0.1c-0.1-0.1-0.2-0.1-0.3-0.2c0,0.1,0,0.2,0,0.3l0,0l0,0c0,0,0,0-0.1,0
			c0,0,0,0-0.1,0h-0.1c0,0,0,0-0.1,0l0,0l0,0c0-1.1,0-2.2,0-3.3l0,0l0,0c0,0,0,0,0.1,0h0.1h0.1c0,0,0,0,0.1,0l0,0l0,0
			c0,0.4,0,0.9,0,1.3c0.1-0.1,0.2-0.2,0.3-0.2c0.1-0.1,0.2-0.1,0.2-0.1c0.1,0,0.2-0.1,0.2-0.1c0.1,0,0.2,0,0.2,0
			c0.2,0,0.3,0,0.4,0.1c0.1,0.1,0.3,0.2,0.3,0.3c0.1,0.1,0.2,0.3,0.2,0.3C185.7,327.6,185.7,327.7,185.7,327.9z M185.4,327.9
			c0-0.1,0-0.3-0.1-0.3c0-0.1-0.1-0.3-0.1-0.3c-0.1-0.1-0.1-0.2-0.3-0.2c-0.1-0.1-0.2-0.1-0.3-0.1c-0.1,0-0.1,0-0.2,0
			s-0.1,0.1-0.2,0.1s-0.2,0.1-0.2,0.2c-0.1,0.1-0.2,0.2-0.3,0.3c0,0.3,0,0.7,0,0.9c0.2,0.2,0.3,0.3,0.4,0.3s0.3,0.1,0.4,0.1
			s0.3,0,0.3-0.1c0.1-0.1,0.2-0.2,0.3-0.3c0.1-0.1,0.1-0.2,0.1-0.3C185.4,328.2,185.4,328,185.4,327.9z"/>
		<path d="M188.6,327.6c0,0.2,0,0.3,0,0.5c0,0.2-0.1,0.3-0.2,0.4c-0.1,0.1-0.2,0.3-0.3,0.3c-0.2,0.1-0.3,0.2-0.5,0.2
			c-0.2,0-0.3,0-0.5,0c-0.2,0-0.3-0.1-0.4-0.2c-0.1-0.1-0.2-0.2-0.3-0.3c-0.1-0.2-0.1-0.3-0.1-0.5c0-0.2,0-0.3,0.1-0.5
			c0-0.2,0.1-0.3,0.2-0.4c0.1-0.1,0.2-0.3,0.3-0.3c0.2-0.1,0.3-0.1,0.5-0.2c0.2,0,0.3,0,0.5,0c0.2,0,0.3,0.1,0.3,0.2
			c0.1,0.1,0.2,0.2,0.3,0.3C188.6,327.3,188.6,327.4,188.6,327.6z M188.3,327.6c0-0.1,0-0.3-0.1-0.3c0-0.1-0.1-0.2-0.2-0.3
			c-0.1-0.1-0.2-0.2-0.3-0.2s-0.3-0.1-0.4,0c-0.2,0-0.3,0.1-0.3,0.1c-0.1,0.1-0.2,0.2-0.3,0.3c-0.1,0.1-0.1,0.2-0.2,0.3
			c0,0.1,0,0.3,0,0.3c0,0.1,0,0.3,0.1,0.3c0,0.1,0.1,0.2,0.2,0.3c0.1,0.1,0.2,0.2,0.3,0.2c0.1,0,0.3,0.1,0.4,0
			c0.2,0,0.3-0.1,0.3-0.1c0.1-0.1,0.2-0.2,0.3-0.3c0.1-0.1,0.1-0.2,0.1-0.3C188.3,327.9,188.3,327.8,188.3,327.6z"/>
		<path d="M191.4,328.1C191.4,328.2,191.4,328.2,191.4,328.1C191.4,328.2,191.4,328.2,191.4,328.1
			C191.4,328.2,191.4,328.2,191.4,328.1c-0.1,0.1-0.1,0.1-0.2,0.1h-0.1c0,0,0,0-0.1,0l0,0l0,0c0-0.1,0-0.2-0.1-0.3
			c-0.1,0.2-0.3,0.3-0.3,0.4c-0.2,0.1-0.3,0.2-0.4,0.2s-0.3,0-0.5,0c-0.2,0-0.3-0.1-0.3-0.2c-0.1-0.1-0.2-0.2-0.3-0.3
			c-0.1-0.2-0.1-0.3-0.1-0.4c0-0.2,0-0.3,0-0.5c0-0.2,0.1-0.3,0.2-0.4c0.1-0.1,0.2-0.3,0.3-0.3c0.1-0.1,0.3-0.2,0.4-0.2s0.3,0,0.4,0
			c0.1,0,0.3,0.1,0.4,0.2c-0.1-0.4-0.1-0.8-0.2-1.3l0,0l0,0c0,0,0,0,0.1,0h0.1h0.1c0,0,0,0,0.1,0l0,0l0,0
			C191.1,326,191.3,327.1,191.4,328.1z M190.9,326.7c-0.2-0.1-0.3-0.2-0.4-0.3c-0.2-0.1-0.3-0.1-0.4,0c-0.1,0-0.3,0.1-0.3,0.2
			s-0.2,0.2-0.2,0.3c-0.1,0.1-0.1,0.2-0.1,0.3c0,0.1,0,0.3,0,0.3s0,0.3,0.1,0.3c0,0.1,0.1,0.2,0.2,0.3c0.1,0.1,0.2,0.2,0.3,0.2
			c0.1,0,0.2,0.1,0.3,0c0.1,0,0.1,0,0.2-0.1c0.1,0,0.1-0.1,0.2-0.1c0.1-0.1,0.1-0.1,0.2-0.2c0.1-0.1,0.1-0.2,0.2-0.3
			C190.9,327.3,190.9,326.9,190.9,326.7z"/>
		<path d="M193.3,327.7c-0.1,0.3-0.1,0.6-0.2,0.9c0,0,0,0-0.1,0.1c0,0-0.1,0-0.2,0.1h-0.1c0,0,0,0-0.1,0l0,0c0,0,0,0,0-0.1
			c0.1-0.3,0.2-0.6,0.2-0.8l0,0l0,0c-0.4-0.6-0.8-1.3-1.2-1.9c0,0,0,0,0-0.1l0,0c0,0,0,0,0.1,0h0.1h0.1c0,0,0,0,0.1,0l0,0l0,0
			c0.3,0.6,0.7,1.1,1.1,1.7l0,0c0.2-0.7,0.3-1.4,0.3-2.1v-0.1c0,0,0,0,0.1,0h0.1h0.1c0,0,0,0,0.1,0l0,0c0,0,0,0,0,0.1
			C193.6,326.1,193.5,326.9,193.3,327.7z"/>
	</g>
</g>
<path fill="#FFFFFF" stroke="#999999" stroke-miterlimit="10" d="M323.2,220c1.8-5.3,5-9.9,6.8-12.1c1.7-1.9,3.1-1.9,2.3-2.2
	L307,199c0,0-16.3,15.1-9.6,35.6l25.2,7.2C319.4,234.5,321,226.6,323.2,220z"/>
<path fill="#FFFFFF" stroke="#999999" stroke-miterlimit="10" d="M473.5,254.6c0.8,3.1,0.7,6.4,0.4,8.1c-0.3,1.5-0.9,1.9-0.4,1.8
	l14.4-4.6c0,0,3.2-12.5-6.4-20.4l-14.6,4.4C470.8,246.3,472.5,250.7,473.5,254.6z"/>
<path id="SVGID_x5F_10_x5F_" fill="none" d="M315.1,204.2c0,0-11.9,12.5-6.9,40.1"/>
<text transform="matrix(1 0 0 1 307.7734 241.9716)" font-family="'ArialMT'" font-size="10.0984"> </text>
<path id="SVGID_x5F_11_x5F_" fill="none" d="M485.7,260.5c0,0,0.5-17.2-21.6-34.6"/>
<text transform="matrix(1 0 0 1 476.6669 238.4735)" font-family="'ArialMT'" font-size="10.0984"> </text>
<g>
	<path fill="#17375E" d="M423.4,343.3l0.3,15.7c0,0,2.9,3.4,8.3,3.8c0,0,18,2.7,23.1-3.8l0.3-15.8L423.4,343.3z"/>
	<g>
		
			<ellipse transform="matrix(-1.110917e-02 0.9999 -0.9999 -1.110917e-02 787.1587 -92.5478)" fill="#74879E" cx="439.3" cy="343" rx="6.5" ry="16"/>
		
			<linearGradient id="SVGID_10_" gradientUnits="userSpaceOnUse" x1="501.2983" y1="210.7815" x2="533.0965" y2="210.7815" gradientTransform="matrix(0.8839 4.714763e-04 -4.714763e-04 -0.8415 -17.7946 520.3539)">
			<stop  offset="4.962532e-03" style="stop-color:#262628"/>
			<stop  offset="0.3859" style="stop-color:#232325"/>
			<stop  offset="0.6455" style="stop-color:#1B1B1C"/>
			<stop  offset="0.8684" style="stop-color:#0C0C0D"/>
			<stop  offset="1" style="stop-color:#000000"/>
		</linearGradient>
		<path fill="url(#SVGID_10_)" d="M425.2,343.1c0-2.8,6.3-5,14.1-5c7.7,0.1,14.1,2.4,14,5.2c0,2.8-6.3,5-14.1,5
			C431.5,348.2,425.2,345.9,425.2,343.1z"/>
	</g>
</g>
</svg>
