<?xml version="1.0" encoding="utf-8"?>
<!-- Generator: Adobe Illustrator 18.0.0, SVG Export Plug-In . SVG Version: 6.00 Build 0)  -->
<!DOCTYPE svg PUBLIC "-//W3C//DTD SVG 1.1//EN" "http://www.w3.org/Graphics/SVG/1.1/DTD/svg11.dtd">
<svg version="1.1" id="Layer_1" xmlns="http://www.w3.org/2000/svg" xmlns:xlink="http://www.w3.org/1999/xlink" x="0px" y="0px"
	 viewBox="80.8 161.1 535.7 451.6" enable-background="new 80.8 161.1 535.7 451.6" xml:space="preserve">
<radialGradient id="SVGID_1_" cx="528.7062" cy="588.6553" r="40.2745" gradientTransform="matrix(1.7348 0 0 0.5 -390.2343 294.3277)" gradientUnits="userSpaceOnUse">
	<stop  offset="0" style="stop-color:#000000;stop-opacity:0.2"/>
	<stop  offset="0.9887" style="stop-color:#000000;stop-opacity:2.269581e-03"/>
	<stop  offset="1" style="stop-color:#000000;stop-opacity:0"/>
</radialGradient>
<ellipse fill="url(#SVGID_1_)" cx="526.9" cy="588.7" rx="89.5" ry="24.1"/>
<g id="Layer_7">
</g>
<g id="Layer_6">
</g>
<g id="Layer_4">
</g>
<g id="Layer_1_1_">
	<g>
		<path fill="#FFFFFF" stroke="#4D4D4D" stroke-miterlimit="10" d="M533.7,519.3l-32.2,42c0,0,2.4,11.4,16.2,12.5l33.6-43.1
			L533.7,519.3z"/>
		<path fill="#BDC4CC" d="M516.4,573.3c0.1,0,0.3,0,0.4,0c0.1,0,0.3,0,0.4,0h0.1l0,0c0,0,0,0,0.1,0c0-0.1,0.1-0.1,0.1-0.3
			c0,0,0,0,0.1-0.1l0.7-1l20.3-26c-1.3,0-2.6-0.3-4-0.7c-1.4-0.4-3.3-1.3-5.3-3c-1.2-0.9-2.3-2-3.3-3.3c-1.9-2.2-2.7-5-2.7-5
			l-21,27.5c0,0.1,0,0.3,0,0.3l0,0c0.7,4.2,4.7,7.3,5,7.6c0,0,0.7,0.6,1.9,1.4c1.2,0.9,4.2,1.9,4.2,1.9l2.7,0.6
			C516.3,573.3,516.4,573.3,516.4,573.3z"/>
		
			<linearGradient id="SVGID_2_" gradientUnits="userSpaceOnUse" x1="570.0494" y1="274.9302" x2="570.0494" y2="274.9302" gradientTransform="matrix(0.958 0.7389 -0.7389 0.958 191.7159 -152.7169)">
			<stop  offset="0" style="stop-color:#A7B3C2"/>
			<stop  offset="1" style="stop-color:#6D8199"/>
		</linearGradient>
		<path fill="url(#SVGID_2_)" d="M534.7,531.8"/>
		<path fill="#17375E" d="M539.8,507.8l-7.2,9.8c0,0,0.3,3.5,3.3,6.3c0,0,9.8,10.2,16.1,8.6l7.8-9.6L539.8,507.8z"/>
		
			<ellipse transform="matrix(-0.785 -0.6195 0.6195 -0.785 661.392 1260.8483)" fill="#74879E" cx="549.5" cy="515.7" rx="12.4" ry="4.7"/>
		
			<ellipse transform="matrix(-0.7876 -0.6162 0.6162 -0.7876 620.2542 1290.3127)" fill="#BDC4CC" cx="532.5" cy="538.3" rx="10.1" ry="4.6"/>
		<path fill="#FFFFFF" stroke="#999999" stroke-miterlimit="10" d="M523.2,548.2c-1.9-1.7-3.5-3.9-4-5c-0.4-1.2-0.3-1.7-0.4-1.3
			l-7.2,9.5c0,0,3.5,9.5,13.4,10.4l7.5-9.5C528.6,552.4,525.6,550.4,523.2,548.2z"/>
	</g>
</g>
<g>
	<path fill="#FFFFFF" stroke="#4D4D4D" stroke-miterlimit="10" d="M514.5,419.8l-51.6,11.4c0,0-5.5,10.4,4.3,20l53.6-11.4
		L514.5,419.8z"/>
	<path fill="#BDC4CC" d="M466.5,449.7c0.1,0.1,0.3,0.3,0.3,0.4c0.1,0.1,0.1,0.1,0.3,0.3l0.1,0.1l0,0l0,0c0.1,0,0.1,0,0.3-0.1h0.1
		l1.2-0.3l32.3-6.8c-1-0.9-1.9-1.9-2.6-3.2c-0.9-1.3-1.7-3.2-2.2-5.8c-0.3-1.3-0.4-3-0.4-4.6c0-2.9,1.2-5.8,1.2-5.8l-33.8,7.5
		c0,0.1-0.1,0.1-0.1,0.3l0,0c-2,3.5-1.2,8.8-1.2,9.1c0,0,0.1,0.9,0.6,2.3c0.4,1.4,2,4.2,2,4.2L466.5,449.7L466.5,449.7z"/>
	
		<linearGradient id="SVGID_3_" gradientUnits="userSpaceOnUse" x1="494.2649" y1="287.4379" x2="494.2649" y2="287.4379" gradientTransform="matrix(0.2556 1.1825 -1.1825 0.2556 720.7704 -228.062)">
		<stop  offset="0" style="stop-color:#A7B3C2"/>
		<stop  offset="1" style="stop-color:#6D8199"/>
	</linearGradient>
	<path fill="url(#SVGID_3_)" d="M507.2,429.9"/>
	<path fill="#17375E" d="M526.6,415l-11.8,2.7c0,0-2,2.7-1.6,6.9c0,0,0.9,14.1,6.6,17l12.1-2.4L526.6,415z"/>
	
		<ellipse transform="matrix(-0.2004 -0.9797 0.9797 -0.2004 216.7676 1031.2352)" fill="#74879E" cx="529.2" cy="427.2" rx="12.4" ry="4.7"/>
	
		<ellipse transform="matrix(-0.2045 -0.9789 0.9789 -0.2045 179.826 1012.8509)" fill="#BDC4CC" cx="501.5" cy="433.4" rx="10.1" ry="4.6"/>
	<path fill="#FFFFFF" stroke="#999999" stroke-miterlimit="10" d="M487.8,435.1c-0.4-2.6-0.1-5,0.3-6.5c0.3-1.2,0.9-1.4,0.4-1.3
		l-11.8,2.7c0,0-3.5,9.6,3.6,16.5l11.8-2.4C489.4,441.7,488.4,438.2,487.8,435.1z"/>
</g>
<polygon fill="#404040" points="81.8,370.2 81.8,392.7 403.3,405.2 402.7,368.2 89.3,349.5 "/>
<polygon fill="#A6A6A6" stroke="#E6E6E6" stroke-width="2" stroke-miterlimit="10" points="154.7,324.1 81.8,321.6 81.8,352 
	81.8,370.2 400.2,379.7 506.8,336.2 "/>
<line fill="none" stroke="#E6E6E6" stroke-miterlimit="10" x1="403.3" y1="332.7" x2="299.2" y2="376.7"/>
<line fill="none" stroke="#E6E6E6" stroke-miterlimit="10" x1="471.7" y1="335" x2="367.7" y2="379"/>
<line fill="none" stroke="#E6E6E6" stroke-miterlimit="10" x1="435.6" y1="333.9" x2="331.4" y2="377.9"/>
<line fill="none" stroke="#E6E6E6" stroke-miterlimit="10" x1="302.9" y1="329.1" x2="195.9" y2="374.3"/>
<line fill="none" stroke="#E6E6E6" stroke-miterlimit="10" x1="371.2" y1="331.4" x2="267.3" y2="375.4"/>
<line fill="none" stroke="#E6E6E6" stroke-miterlimit="10" x1="335.1" y1="330.3" x2="231" y2="374.3"/>
<line fill="none" stroke="#E6E6E6" stroke-miterlimit="10" x1="239.9" y1="326.7" x2="131.7" y2="371.8"/>
<line fill="none" stroke="#E6E6E6" stroke-miterlimit="10" x1="272.3" y1="327.8" x2="164.3" y2="371.8"/>
<line fill="none" stroke="#E6E6E6" stroke-miterlimit="10" x1="136.7" y1="324.2" x2="81.8" y2="347.4"/>
<line fill="none" stroke="#E6E6E6" stroke-miterlimit="10" x1="207.9" y1="325.4" x2="99.5" y2="370.7"/>
<line fill="none" stroke="#E6E6E6" stroke-miterlimit="10" x1="171.8" y1="324.2" x2="81.8" y2="362.2"/>
<path fill="#CCCCCC" d="M401.5,379.7l111-44.7c0,0,15.4,11.1,0,28l-98.9,42.1l-12.4-27.5l0,0"/>
<linearGradient id="SVGID_4_" gradientUnits="userSpaceOnUse" x1="95.7813" y1="172.74" x2="178.372" y2="172.74" gradientTransform="matrix(1.2099 0 0 1.2099 -34.1005 94.2502)">
	<stop  offset="0" style="stop-color:#73375F"/>
	<stop  offset="0.3941" style="stop-color:#644B59"/>
	<stop  offset="0.6695" style="stop-color:#757575"/>
	<stop  offset="1" style="stop-color:#C4C4C4"/>
</linearGradient>
<polygon fill="url(#SVGID_4_)" points="81.8,280.1 181.3,236.2 181.7,324.2 81.8,370.2 "/>
<linearGradient id="SVGID_5_" gradientUnits="userSpaceOnUse" x1="95.4001" y1="200.7851" x2="149.7574" y2="200.7851" gradientTransform="matrix(1.2099 0 0 1.2099 -34.1005 94.2502)">
	<stop  offset="0" style="stop-color:#9E4777"/>
	<stop  offset="7.181174e-02" style="stop-color:#985379"/>
	<stop  offset="0.2306" style="stop-color:#8D677C"/>
	<stop  offset="0.4114" style="stop-color:#86757E"/>
	<stop  offset="0.6313" style="stop-color:#817D80"/>
	<stop  offset="1" style="stop-color:#808080"/>
</linearGradient>
<line opacity="0.62" fill="none" stroke="url(#SVGID_5_)" stroke-width="2" stroke-miterlimit="10" enable-background="new    " x1="146.6" y1="323.8" x2="81.8" y2="350.5"/>
<linearGradient id="SVGID_6_" gradientUnits="userSpaceOnUse" x1="95.7813" y1="153.7263" x2="178.372" y2="153.7263" gradientTransform="matrix(1.2099 0 0 1.2099 -34.1005 94.2502)">
	<stop  offset="0" style="stop-color:#3F2957"/>
	<stop  offset="1" style="stop-color:#9E4777"/>
</linearGradient>
<polygon fill="url(#SVGID_6_)" points="81.8,280.1 81.8,321.6 181.7,324.2 181.3,236.2 "/>
<ellipse transform="matrix(-0.9487 0.3162 -0.3162 -0.9487 915.8109 637.1091)" fill="#F2F2F2" cx="406.2" cy="392.9" rx="12.1" ry="13.9"/>
<linearGradient id="SVGID_7_" gradientUnits="userSpaceOnUse" x1="101.3106" y1="189.4544" x2="182.0928" y2="189.4544" gradientTransform="matrix(1.2931 2.379090e-03 2.379090e-03 1.21 -49.7144 93.792)">
	<stop  offset="0" style="stop-color:#754C63"/>
	<stop  offset="0.499" style="stop-color:#555555"/>
	<stop  offset="0.6057" style="stop-color:#696969"/>
	<stop  offset="0.7354" style="stop-color:#8C8C8C"/>
	<stop  offset="0.8818" style="stop-color:#BBBBBB"/>
	<stop  offset="1" style="stop-color:#E6E6E6"/>
</linearGradient>
<line fill="none" stroke="url(#SVGID_7_)" stroke-width="2" stroke-miterlimit="10" x1="186.2" y1="325.1" x2="81.8" y2="321.6"/>
<polygon fill="#9E4777" points="275.2,289.7 283.6,309.3 262.8,292.7 "/>
<polyline fill="none" stroke="#9E4777" stroke-width="6" stroke-miterlimit="10" points="293.1,240.6 255,264.4 271.1,293.5 "/>
<polyline fill="none" stroke="#9E4777" stroke-width="6" stroke-miterlimit="10" points="293.8,241.9 331.9,265.7 315.7,294.8 "/>
<circle fill="#3F2957" cx="330.7" cy="265.6" r="6.2"/>
<g>
	<path fill="#FFFFFF" stroke="#4D4D4D" stroke-miterlimit="10" d="M598.8,551.3l-52.6-4.9c0,0-8.3,8.1-1.9,20.3l54.5,5.3V551.3z"/>
	<path fill="#BDC4CC" d="M544,565.3c0,0.1,0.1,0.3,0.1,0.4s0.1,0.3,0.1,0.3s0,0.1,0.1,0.1l0,0l0,0c0.1,0,0.3,0,0.3,0h0.1l1.3,0.1
		l32.8,3.3c-0.7-1.2-1.2-2.2-1.6-3.7c-0.4-1.6-0.6-3.5-0.4-6.2c0.1-1.3,0.6-3,1-4.5c0.9-2.7,2.9-5,2.9-5l-34.5-3.2
		c-0.1,0.1-0.3,0.1-0.3,0.1l0,0c-3,2.7-3.6,8.1-3.9,8.3c0,0-0.1,0.9-0.1,2.4c-0.1,1.4,0.7,4.6,0.7,4.6l1,2.7
		C544,565.2,544,565.3,544,565.3z"/>
	
		<linearGradient id="SVGID_8_" gradientUnits="userSpaceOnUse" x1="608.7228" y1="241.7027" x2="608.7228" y2="241.7027" gradientTransform="matrix(-0.1143 1.2044 -1.2044 -0.1143 949.4089 -146.7924)">
		<stop  offset="0" style="stop-color:#A7B3C2"/>
		<stop  offset="1" style="stop-color:#6D8199"/>
	</linearGradient>
	<path fill="url(#SVGID_8_)" d="M588.7,558.7"/>
	<path fill="#17375E" d="M611.7,550.4l-12.2-1c0,0-2.7,2-3.5,6.2c0,0-3.5,13.7,1.2,18.1l12.4,1.3L611.7,550.4z"/>
	
		<ellipse transform="matrix(0.1055 -0.9944 0.9944 0.1055 -13.4238 1110.2679)" fill="#74879E" cx="610.4" cy="562.6" rx="12.4" ry="4.7"/>
	
		<ellipse transform="matrix(0.1013 -0.9949 0.9949 0.1013 -34.2744 1082.7251)" fill="#BDC4CC" cx="582.1" cy="560.3" rx="10.1" ry="4.6"/>
	<path fill="#FFFFFF" stroke="#999999" stroke-miterlimit="10" d="M568.7,557.7c0.4-2.6,1.4-4.9,2.2-6c0.6-1,1.2-1.2,0.9-1.2
		l-11.9-1.2c0,0-6.2,8.1-1.6,16.8l11.9,1.3C568.2,564.6,568.3,560.9,568.7,557.7z"/>
</g>
<g>
	<path fill="#FFFFFF" stroke="#4D4D4D" stroke-miterlimit="10" d="M570.2,522.4L527.1,553c0,0-1,11.6,11.8,16.7l44.7-31.5
		L570.2,522.4z"/>
	<path fill="#BDC4CC" d="M538.1,568.9c0.1,0,0.3,0.1,0.4,0.1s0.3,0.1,0.4,0.1h0.1l0,0l0,0c0.1-0.1,0.1-0.1,0.3-0.1h0.1l1.2-0.7
		l27-18.8c-1.2-0.4-2.3-1-3.6-1.9c-1.3-1-2.7-2.3-4.2-4.5c-0.7-1.2-1.6-2.7-2.2-4.2c-1.2-2.7-1.2-5.8-1.2-5.8l-28.2,20.1
		c0,0.1-0.1,0.3-0.1,0.3l0,0c-0.4,4.2,2.4,8.5,2.6,8.8c0,0,0.4,0.7,1.4,1.9c1,1.2,3.5,3,3.5,3l2.4,1.4
		C537.8,568.8,538,568.8,538.1,568.9z"/>
	
		<linearGradient id="SVGID_9_" gradientUnits="userSpaceOnUse" x1="585.0243" y1="231.1082" x2="585.0243" y2="231.1082" gradientTransform="matrix(0.699 0.9876 -0.9876 0.699 386.8854 -204.7399)">
		<stop  offset="0" style="stop-color:#A7B3C2"/>
		<stop  offset="1" style="stop-color:#6D8199"/>
	</linearGradient>
	<path fill="url(#SVGID_9_)" d="M567.6,534.6"/>
	<path fill="#17375E" d="M579.5,513.2l-9.9,7.2c0,0-0.9,3.5,1.3,7c0,0,6.3,12.7,12.8,12.9l10.2-7L579.5,513.2z"/>
	
		<ellipse transform="matrix(-0.5686 -0.8226 0.8226 -0.5686 489.4945 1303.7024)" fill="#74879E" cx="586.6" cy="523.5" rx="12.4" ry="4.7"/>
	
		<ellipse transform="matrix(-0.572 -0.8202 0.8202 -0.572 442.9373 1311.1678)" fill="#BDC4CC" cx="563.5" cy="540" rx="10.1" ry="4.6"/>
	<path fill="#FFFFFF" stroke="#999999" stroke-miterlimit="10" d="M551.8,546.8c-1.3-2.2-2-4.6-2.3-5.9c-0.3-1.2,0.3-1.7-0.1-1.4
		l-9.8,7c0,0,0.6,10.4,9.8,13.8l9.9-6.8C555.8,552.4,553.4,549.7,551.8,546.8z"/>
</g>
<g>
	<path fill="#FFFFFF" stroke="#4D4D4D" stroke-miterlimit="10" d="M472.6,568.5l52.9,1c0,0,7.8-8.8,0.4-20.4l-54.6-1.3L472.6,568.5z
		"/>
	<path fill="#BDC4CC" d="M526,550.4c-0.1-0.1-0.1-0.3-0.3-0.4c-0.1-0.1-0.1-0.1-0.3-0.3c0,0,0-0.1-0.1-0.1l0,0l0,0
		c-0.1,0-0.1,0-0.3,0h0.1h-1.4l-33.1-0.9c0.9,1.2,1.3,2.2,1.9,3.6c0.4,1.6,0.9,3.5,0.7,6c0,1.3-0.4,3.2-0.7,4.6
		c-0.6,2.7-2.6,5.2-2.6,5.2l34.6,0.6c0.1-0.1,0.3-0.1,0.3-0.1l0,0c2.9-3,3.2-8.2,3.2-8.6c0,0,0-0.9,0-2.4c0-1.4-1-4.5-1-4.5
		l-1.2-2.6C526.2,550.5,526.2,550.5,526,550.4z"/>
	
		<linearGradient id="SVGID_10_" gradientUnits="userSpaceOnUse" x1="539.4613" y1="240.8612" x2="539.4613" y2="240.8612" gradientTransform="matrix(2.623015e-02 -1.2097 1.2097 2.623015e-02 176.5258 1206.5907)">
		<stop  offset="0" style="stop-color:#A7B3C2"/>
		<stop  offset="1" style="stop-color:#6D8199"/>
	</linearGradient>
	<path fill="url(#SVGID_10_)" d="M482.1,560.3"/>
	<path fill="#17375E" d="M459.6,570.4l12.2,0.1c0,0,2.7-2.2,3.2-6.5c0,0,2.4-13.9-2.6-18l-12.4-0.4L459.6,570.4z"/>
	
		<ellipse transform="matrix(-3.278209e-02 0.9995 -0.9995 -3.278209e-02 1032.7277 116.3622)" fill="#74879E" cx="460.1" cy="557.9" rx="12.4" ry="4.7"/>
	
		<ellipse transform="matrix(-2.855859e-02 0.9996 -0.9996 -2.855859e-02 1060.433 85.883)" fill="#BDC4CC" cx="488.5" cy="558.2" rx="10.1" ry="4.6"/>
	<path fill="#FFFFFF" stroke="#999999" stroke-miterlimit="10" d="M502,559.7c-0.3,2.6-1.2,5-1.7,6.2c-0.6,1.2-1.2,1.2-0.9,1.2
		l11.9,0.3c0,0,5.6-8.6,0.4-17l-11.9-0.4C502.2,552.8,502.3,556.7,502,559.7z"/>
</g>
<polyline fill="none" stroke="#9E4777" stroke-width="5" stroke-miterlimit="10" points="158.6,177.7 277.9,188.1 292.4,240.4 "/>
<path fill="none" stroke="#9E4777" stroke-width="3" stroke-miterlimit="10" d="M270.1,280.7"/>
<line fill="none" stroke="#4D4D4D" stroke-miterlimit="10" x1="296.1" y1="291.2" x2="349.5" y2="252.8"/>
<rect x="353.7" y="232.9" fill="none" width="141.9" height="15"/>
<text transform="matrix(1 0 0 1 364.1895 241.8754)" fill="#231F20" font-family="'Calibri'" font-size="13.3089">Validated in Literature</text>
<rect x="348.3" y="221.6" fill="none" stroke="#4D4D4D" stroke-miterlimit="10" width="168.8" height="31.8"/>
<path fill="none" stroke="#9E4777" stroke-width="2" stroke-miterlimit="10" d="M317.4,280.7"/>
<circle fill="#3F2957" cx="277" cy="188.7" r="6.5"/>
<circle fill="none" stroke="#9E4777" stroke-width="2" stroke-miterlimit="10" cx="277.5" cy="188.7" r="9.5"/>
<polygon fill="#9E4777" points="311.1,289.6 302.8,309.3 323.6,292.7 "/>
<circle fill="#3F2957" cx="255.6" cy="265.6" r="6.2"/>
<circle fill="#3F2957" cx="291.5" cy="241.9" r="6.5"/>
<circle fill="none" stroke="#9E4777" stroke-width="2" stroke-miterlimit="10" cx="292" cy="241.9" r="9.5"/>
<g opacity="0.55">
	<defs>
		<filter id="Adobe_OpacityMaskFilter" filterUnits="userSpaceOnUse" x="190.3" y="334.6" width="44.7" height="23.3">
			<feColorMatrix  type="matrix" values="1 0 0 0 0  0 1 0 0 0  0 0 1 0 0  0 0 0 1 0"/>
		</filter>
	</defs>
	<mask maskUnits="userSpaceOnUse" x="190.3" y="334.6" width="44.7" height="23.3" id="SVGID_11_">
		<g filter="url(#Adobe_OpacityMaskFilter)">
		</g>
	</mask>
	<g mask="url(#SVGID_11_)">
		<polygon fill="#4D4D4D" points="190.3,347.2 221,334.6 235,343.1 203.6,357.9 		"/>
	</g>
</g>
<g>
	<path fill="#FFFFFF" stroke="#4D4D4D" stroke-miterlimit="10" d="M188.8,301.5l0.1,52.9c0,0,8.9,7.5,20.4,0l0.1-54.8L188.8,301.5z"
		/>
	<path fill="#BDC4CC" d="M208,354.6c0.1-0.1,0.3-0.1,0.4-0.3c0.1-0.1,0.1-0.1,0.3-0.3c0,0,0.1,0,0.1-0.1l0,0l0,0c0-0.1,0-0.1,0-0.3
		v-0.1v-1.3l0.1-33.1c-1,0.9-2,1.3-3.6,1.9c-1.6,0.4-3.5,1-6,1c-1.3,0-3.2-0.3-4.6-0.6c-2.7-0.6-5.3-2.4-5.3-2.4l0.1,34.6
		c0.1,0.1,0.1,0.3,0.1,0.3l0,0c3,2.7,8.2,2.9,8.8,3c0,0,0.9,0,2.4,0c1.4-0.1,4.5-1.2,4.5-1.2L208,354.6
		C207.9,354.7,208,354.7,208,354.6z"/>
	
		<linearGradient id="SVGID_12_" gradientUnits="userSpaceOnUse" x1="191.0874" y1="178.9194" x2="191.0874" y2="178.9194" gradientTransform="matrix(1.2099 0 0 1.2099 -34.1005 94.2502)">
		<stop  offset="0" style="stop-color:#A7B3C2"/>
		<stop  offset="1" style="stop-color:#6D8199"/>
	</linearGradient>
	<path fill="url(#SVGID_12_)" d="M197.1,310.7"/>
	<path fill="#17375E" d="M186.7,288.6l0.1,12.2c0,0,2.3,2.7,6.5,3c0,0,13.9,2,18-3l0.1-12.4L186.7,288.6z"/>
	
		<ellipse transform="matrix(-0.9999 -1.110975e-02 1.110975e-02 -0.9999 394.7369 579.6286)" fill="#74879E" cx="199" cy="288.7" rx="12.4" ry="4.7"/>
	
		<ellipse transform="matrix(-1 -6.881334e-03 6.881334e-03 -1 396.3172 635.6464)" fill="#BDC4CC" cx="199.3" cy="317.1" rx="10.1" ry="4.6"/>
	<path fill="#FFFFFF" stroke="#999999" stroke-miterlimit="10" d="M198.1,330.7c-2.6-0.1-5-1-6.2-1.6c-1.2-0.4-1.2-1.2-1.2-0.7
		l0.1,11.9c0,0,8.8,5.5,17,0l0.1-11.9C205,330.7,201.3,330.8,198.1,330.7z"/>
</g>
<g opacity="0.55">
	<defs>
		<filter id="Adobe_OpacityMaskFilter_1_" filterUnits="userSpaceOnUse" x="237.5" y="335.7" width="44.9" height="23.3">
			<feColorMatrix  type="matrix" values="1 0 0 0 0  0 1 0 0 0  0 0 1 0 0  0 0 0 1 0"/>
		</filter>
	</defs>
	<mask maskUnits="userSpaceOnUse" x="237.5" y="335.7" width="44.9" height="23.3" id="SVGID_13_">
		<g filter="url(#Adobe_OpacityMaskFilter_1_)">
		</g>
	</mask>
	<g mask="url(#SVGID_13_)">
		<polygon fill="#4D4D4D" points="237.5,348.4 268.1,335.7 282.3,344.4 250.7,359 		"/>
	</g>
</g>
<g>
	<path fill="#FFFFFF" stroke="#4D4D4D" stroke-miterlimit="10" d="M235.9,302.7l0.1,52.9c0,0,8.9,7.5,20.4,0l0.1-54.8L235.9,302.7z"
		/>
	<path fill="#BDC4CC" d="M255.2,355.9c0.1-0.1,0.3-0.1,0.4-0.3s0.1-0.1,0.3-0.3c0,0,0.1,0,0.1-0.1l0,0l0,0c0-0.1,0-0.1,0-0.3v-0.1
		v-1.3l0.1-33.1c-1,0.9-2,1.3-3.6,1.9s-3.5,1-6,1c-1.3,0-3.2-0.3-4.6-0.6c-2.7-0.6-5.3-2.4-5.3-2.4l0.1,34.6
		c0.1,0.1,0.1,0.3,0.1,0.3l0,0c3,2.7,8.2,2.9,8.8,3c0,0,0.9,0,2.4,0c1.4-0.1,4.5-1.2,4.5-1.2L255.2,355.9
		C255,355.9,255.2,355.9,255.2,355.9z"/>
	
		<linearGradient id="SVGID_14_" gradientUnits="userSpaceOnUse" x1="230.0654" y1="179.8701" x2="230.0654" y2="179.8701" gradientTransform="matrix(1.2099 0 0 1.2099 -34.1005 94.2502)">
		<stop  offset="0" style="stop-color:#A7B3C2"/>
		<stop  offset="1" style="stop-color:#6D8199"/>
	</linearGradient>
	<path fill="url(#SVGID_14_)" d="M244.2,311.9"/>
	<path fill="#17375E" d="M233.9,289.7l0.1,12.2c0,0,2.3,2.7,6.5,3c0,0,13.9,2,18-3l0.1-12.4L233.9,289.7z"/>
	
		<ellipse transform="matrix(-0.9999 -1.110975e-02 1.110975e-02 -0.9999 489.257 582.632)" fill="#74879E" cx="246.2" cy="290" rx="12.4" ry="4.7"/>
	
		<ellipse transform="matrix(-1 -6.881334e-03 6.881334e-03 -1 490.8533 638.1617)" fill="#BDC4CC" cx="246.5" cy="318.2" rx="10.1" ry="4.6"/>
	<path fill="#FFFFFF" stroke="#999999" stroke-miterlimit="10" d="M245.3,332c-2.6-0.1-5-1-6.2-1.6c-1.2-0.4-1.2-1.2-1.2-0.7
		l0.1,11.9c0,0,8.8,5.5,17,0l0.1-11.9C252.2,331.9,248.4,332.1,245.3,332z"/>
</g>
<g opacity="0.55">
	<defs>
		<filter id="Adobe_OpacityMaskFilter_2_" filterUnits="userSpaceOnUse" x="284.6" y="335.7" width="44.9" height="23.3">
			<feColorMatrix  type="matrix" values="1 0 0 0 0  0 1 0 0 0  0 0 1 0 0  0 0 0 1 0"/>
		</filter>
	</defs>
	<mask maskUnits="userSpaceOnUse" x="284.6" y="335.7" width="44.9" height="23.3" id="SVGID_15_">
		<g filter="url(#Adobe_OpacityMaskFilter_2_)">
		</g>
	</mask>
	<g mask="url(#SVGID_15_)">
		<polygon fill="#4D4D4D" points="284.6,348.4 315.3,335.7 329.5,344.4 297.9,359 		"/>
	</g>
</g>
<g>
	<path fill="#FFFFFF" stroke="#4D4D4D" stroke-miterlimit="10" d="M283.1,302.7l0.1,52.9c0,0,8.9,7.5,20.4,0l0.1-54.8L283.1,302.7z"
		/>
	<path fill="#BDC4CC" d="M302.3,355.9c0.1-0.1,0.3-0.1,0.4-0.3c0.1-0.1,0.1-0.1,0.3-0.3c0,0,0.1,0,0.1-0.1l0,0l0,0
		c0-0.1,0-0.1,0-0.3v-0.1v-1.3l0.1-33.1c-1,0.9-2,1.3-3.6,1.9c-1.6,0.6-3.5,1-6,1c-1.3,0-3.2-0.3-4.6-0.6c-2.7-0.6-5.3-2.4-5.3-2.4
		l0.1,34.6c0.1,0.1,0.1,0.3,0.1,0.3l0,0c3,2.7,8.2,2.9,8.8,3c0,0,0.9,0,2.4,0c1.4-0.1,4.5-1.2,4.5-1.2L302.3,355.9
		C302.2,355.9,302.3,355.9,302.3,355.9z"/>
	
		<linearGradient id="SVGID_16_" gradientUnits="userSpaceOnUse" x1="269.1622" y1="179.8701" x2="269.1622" y2="179.8701" gradientTransform="matrix(1.2099 0 0 1.2099 -34.1005 94.2502)">
		<stop  offset="0" style="stop-color:#A7B3C2"/>
		<stop  offset="1" style="stop-color:#6D8199"/>
	</linearGradient>
	<path fill="url(#SVGID_16_)" d="M291.5,311.9"/>
	<path fill="#17375E" d="M281.1,289.7l0.1,12.2c0,0,2.3,2.7,6.5,3c0,0,13.9,2,18-3l0.1-12.4L281.1,289.7z"/>
	
		<ellipse transform="matrix(-0.9999 -1.110975e-02 1.110975e-02 -0.9999 583.6226 583.2128)" fill="#74879E" cx="293.4" cy="290" rx="12.4" ry="4.7"/>
	
		<ellipse transform="matrix(-1 -6.881334e-03 6.881334e-03 -1 585.2269 638.543)" fill="#BDC4CC" cx="293.7" cy="318.3" rx="10.1" ry="4.6"/>
	<path fill="#FFFFFF" stroke="#999999" stroke-miterlimit="10" d="M292.4,332c-2.6-0.1-5-1-6.2-1.6c-1.2-0.4-1.2-1.2-1.2-0.7
		l0.1,11.9c0,0,8.8,5.5,17,0l0.1-11.9C299.3,331.9,295.6,332.1,292.4,332z"/>
</g>
<g opacity="0.55">
	<defs>
		<filter id="Adobe_OpacityMaskFilter_3_" filterUnits="userSpaceOnUse" x="333.1" y="335.7" width="44.7" height="23.3">
			<feColorMatrix  type="matrix" values="1 0 0 0 0  0 1 0 0 0  0 0 1 0 0  0 0 0 1 0"/>
		</filter>
	</defs>
	<mask maskUnits="userSpaceOnUse" x="333.1" y="335.7" width="44.7" height="23.3" id="SVGID_17_">
		<g filter="url(#Adobe_OpacityMaskFilter_3_)">
		</g>
	</mask>
	<g mask="url(#SVGID_17_)">
		<polygon fill="#4D4D4D" points="333.1,348.4 363.7,335.7 377.8,344.4 346.3,359 		"/>
	</g>
</g>
<g>
	<path fill="#FFFFFF" stroke="#4D4D4D" stroke-miterlimit="10" d="M331.5,302.7l0.1,52.9c0,0,8.9,7.5,20.4,0l0.1-54.8L331.5,302.7z"
		/>
	<path fill="#BDC4CC" d="M350.8,355.9c0.1-0.1,0.3-0.1,0.4-0.3c0.1-0.1,0.1-0.1,0.3-0.3c0,0,0.1,0,0.1-0.1l0,0l0,0
		c0-0.1,0-0.1,0-0.3v-0.1v-1.3l0.1-33.1c-1,0.9-2,1.3-3.6,1.9c-1.6,0.4-3.5,1-6,1c-1.3,0-3.2-0.3-4.6-0.6c-2.7-0.6-5.3-2.4-5.3-2.4
		l0.1,34.6c0.1,0.1,0.1,0.3,0.1,0.3l0,0c3,2.7,8.2,2.9,8.8,3c0,0,0.9,0,2.4,0c1.4-0.1,4.5-1.2,4.5-1.2L350.8,355.9
		C350.8,355.9,350.8,355.9,350.8,355.9z"/>
	
		<linearGradient id="SVGID_18_" gradientUnits="userSpaceOnUse" x1="309.0916" y1="179.8691" x2="309.0916" y2="179.8691" gradientTransform="matrix(1.2099 -7.823764e-05 7.823764e-05 1.2099 -34.1154 94.2755)">
		<stop  offset="0" style="stop-color:#A7B3C2"/>
		<stop  offset="1" style="stop-color:#6D8199"/>
	</linearGradient>
	<path fill="url(#SVGID_18_)" d="M339.9,311.9"/>
	<path fill="#17375E" d="M329.5,289.7l0.1,12.2c0,0,2.3,2.7,6.5,2.9c0,0,13.9,2,18-3l0.1-12.4L329.5,289.7z"/>
	
		<ellipse transform="matrix(-0.9999 -1.104491e-02 1.104491e-02 -0.9999 680.4288 583.6169)" fill="#74879E" cx="341.8" cy="289.9" rx="12.4" ry="4.7"/>
	
		<ellipse transform="matrix(-1 -6.816724e-03 6.816724e-03 -1 682.0391 639.0303)" fill="#BDC4CC" cx="342.1" cy="318.4" rx="10.1" ry="4.6"/>
	<path fill="#FFFFFF" stroke="#999999" stroke-miterlimit="10" d="M340.9,332c-2.6-0.1-5-1-6.2-1.6c-1.2-0.4-1.2-1.2-1.2-0.7
		l0.1,11.9c0,0,8.8,5.5,17,0l0.1-11.9C347.8,331.9,344,332.1,340.9,332z"/>
</g>
<g opacity="0.55">
	<defs>
		<filter id="Adobe_OpacityMaskFilter_4_" filterUnits="userSpaceOnUse" x="380.3" y="335.7" width="44.9" height="23.3">
			<feColorMatrix  type="matrix" values="1 0 0 0 0  0 1 0 0 0  0 0 1 0 0  0 0 0 1 0"/>
		</filter>
	</defs>
	<mask maskUnits="userSpaceOnUse" x="380.3" y="335.7" width="44.9" height="23.3" id="SVGID_19_">
		<g filter="url(#Adobe_OpacityMaskFilter_4_)">
		</g>
	</mask>
	<g mask="url(#SVGID_19_)">
		<polygon fill="#4D4D4D" points="380.3,348.4 410.9,335.7 425.1,344.4 393.5,359 		"/>
	</g>
</g>
<g>
	<path fill="#FFFFFF" stroke="#4D4D4D" stroke-miterlimit="10" d="M460.9,341.3l-28.2,44.7c0,0,3.5,11.1,17.1,10.9l29.5-46.2
		L460.9,341.3z"/>
	<path fill="#BDC4CC" d="M448.7,396.6c0.1,0,0.3,0,0.4,0s0.3,0,0.4,0h0.1l0,0c0,0,0,0,0.1,0c0-0.1,0.1-0.1,0.1-0.3c0,0,0,0,0.1-0.1
		l0.7-1.2l17.8-27.9c-1.3,0.1-2.6,0-4.2-0.4c-1.6-0.4-3.5-1.2-5.6-2.4c-1.2-0.7-2.4-1.9-3.5-2.9c-2-1.9-3.2-4.9-3.2-4.9l-18.4,29.3
		c0,0.1,0,0.3,0,0.3l0,0c1.2,4,5.5,6.9,5.8,7.2c0,0,0.7,0.4,2,1.2c1.3,0.7,4.3,1.4,4.3,1.4L448.7,396.6
		C448.6,396.6,448.7,396.6,448.7,396.6z"/>
	
		<linearGradient id="SVGID_20_" gradientUnits="userSpaceOnUse" x1="431.951" y1="258.6952" x2="431.951" y2="258.6952" gradientTransform="matrix(1.0218 0.6478 -0.6478 1.0218 189.2973 -190.6122)">
		<stop  offset="0" style="stop-color:#A7B3C2"/>
		<stop  offset="1" style="stop-color:#6D8199"/>
	</linearGradient>
	<path fill="url(#SVGID_20_)" d="M463.1,353.6"/>
	<path fill="#17375E" d="M466.1,329.3l-6.5,10.4c0,0,0.4,3.5,3.9,5.9c0,0,10.6,9.2,16.7,7.2l6.8-10.4L466.1,329.3z"/>
	
		<ellipse transform="matrix(-0.8385 -0.5449 0.5449 -0.8385 692.4922 877.4402)" fill="#74879E" cx="476.3" cy="336.1" rx="12.4" ry="4.7"/>
	
		<ellipse transform="matrix(-0.8408 -0.5413 0.5413 -0.8408 654.3729 912.8062)" fill="#BDC4CC" cx="461.4" cy="360.2" rx="10.1" ry="4.6"/>
	<path fill="#FFFFFF" stroke="#999999" stroke-miterlimit="10" d="M453,371.1c-2-1.4-3.6-3.5-4.3-4.6c-0.6-1-0.4-1.7-0.6-1.3
		l-6.5,10.2c0,0,4.5,9.2,14.2,9.1l6.5-10.1C458.9,374.7,455.7,372.8,453,371.1z"/>
</g>
<g>
	<path fill="#FFFFFF" stroke="#4D4D4D" stroke-miterlimit="10" d="M514.5,419.8l-51.6,11.4c0,0-5.5,10.4,4.3,20l53.6-11.4
		L514.5,419.8z"/>
	<path fill="#BDC4CC" d="M466.5,449.7c0.1,0.1,0.3,0.3,0.3,0.4c0.1,0.1,0.1,0.1,0.3,0.3l0.1,0.1l0,0l0,0c0.1,0,0.1,0,0.3-0.1h0.1
		l1.2-0.3l32.3-6.8c-1-0.9-1.9-1.9-2.6-3.2c-0.9-1.3-1.7-3.2-2.2-5.8c-0.3-1.3-0.4-3-0.4-4.6c0-2.9,1.2-5.8,1.2-5.8l-33.8,7.5
		c0,0.1-0.1,0.1-0.1,0.3l0,0c-2,3.5-1.2,8.8-1.2,9.1c0,0,0.1,0.9,0.6,2.3c0.4,1.4,2,4.2,2,4.2L466.5,449.7L466.5,449.7z"/>
	
		<linearGradient id="SVGID_21_" gradientUnits="userSpaceOnUse" x1="494.2649" y1="287.4379" x2="494.2649" y2="287.4379" gradientTransform="matrix(0.2556 1.1825 -1.1825 0.2556 720.7704 -228.062)">
		<stop  offset="0" style="stop-color:#A7B3C2"/>
		<stop  offset="1" style="stop-color:#6D8199"/>
	</linearGradient>
	<path fill="url(#SVGID_21_)" d="M507.2,429.9"/>
	<path fill="#17375E" d="M526.6,415l-11.8,2.7c0,0-2,2.7-1.6,6.9c0,0,0.9,14.1,6.6,17l12.1-2.4L526.6,415z"/>
	
		<ellipse transform="matrix(-0.2004 -0.9797 0.9797 -0.2004 216.7676 1031.2352)" fill="#74879E" cx="529.2" cy="427.2" rx="12.4" ry="4.7"/>
	
		<ellipse transform="matrix(-0.2045 -0.9789 0.9789 -0.2045 179.826 1012.8509)" fill="#BDC4CC" cx="501.5" cy="433.4" rx="10.1" ry="4.6"/>
	<path fill="#FFFFFF" stroke="#999999" stroke-miterlimit="10" d="M487.8,435.1c-0.4-2.6-0.1-5,0.3-6.5c0.3-1.2,0.9-1.4,0.4-1.3
		l-11.8,2.7c0,0-3.5,9.6,3.6,16.5l11.8-2.4C489.4,441.7,488.4,438.2,487.8,435.1z"/>
</g>
<g>
	<path fill="#FFFFFF" stroke="#4D4D4D" stroke-miterlimit="10" d="M491.4,524.2l17.5,49.9c0,0,10.9,4.2,19.3-6.6l-17.8-51.9
		L491.4,524.2z"/>
	<path fill="#BDC4CC" d="M527.1,568.1c0.1-0.1,0.3-0.3,0.3-0.4c0-0.1,0.1-0.1,0.3-0.3c0,0,0-0.1,0.1-0.1l0,0l0,0
		c0-0.1-0.1-0.1-0.1-0.3v-0.1l-0.4-1.2l-10.6-31.2c-0.7,1.2-1.6,2-2.7,2.9c-1.3,1-3,2-5.5,2.9c-1.2,0.4-3,0.7-4.5,1
		c-2.9,0.4-5.8-0.4-5.8-0.4l11.5,32.6c0.1,0,0.1,0.1,0.3,0.1l0,0c3.7,1.7,8.8,0,9.2,0c0,0,0.9-0.3,2.2-0.9c1.4-0.6,3.9-2.6,3.9-2.6
		l2-1.9C526.9,568.2,527.1,568.2,527.1,568.1z"/>
	
		<linearGradient id="SVGID_22_" gradientUnits="userSpaceOnUse" x1="601.4096" y1="216.1769" x2="601.4096" y2="216.1769" gradientTransform="matrix(1.1427 -0.3975 0.3975 1.1427 -270.859 522.1711)">
		<stop  offset="0" style="stop-color:#A7B3C2"/>
		<stop  offset="1" style="stop-color:#6D8199"/>
	</linearGradient>
	<path fill="url(#SVGID_22_)" d="M502.3,530.1"/>
	<path fill="#17375E" d="M485.2,512.7l4.2,11.5c0,0,3,1.7,7,0.7c0,0,13.9-2.7,16-8.8l-3.9-11.8L485.2,512.7z"/>
	
		<ellipse transform="matrix(-0.9481 0.3181 -0.3181 -0.9481 1129.7719 832.8765)" fill="#74879E" cx="496.9" cy="508.7" rx="12.4" ry="4.7"/>
	
		<ellipse transform="matrix(-0.9467 0.3221 -0.3221 -0.9467 1158.3849 879.2808)" fill="#BDC4CC" cx="506.4" cy="535.5" rx="10.1" ry="4.6"/>
	<path fill="#FFFFFF" stroke="#999999" stroke-miterlimit="10" d="M509.8,548.8c-2.4,0.7-5,0.7-6.5,0.6c-1.2-0.1-1.6-0.7-1.4-0.4
		l4,11.4c0,0,10.1,2.3,16-5.6l-3.7-11.4C516.3,546.4,513,547.8,509.8,548.8z"/>
</g>
<g>
	<path fill="#FFFFFF" stroke="#4D4D4D" stroke-miterlimit="10" d="M511.7,578.3l52.8,2.4c0,0,7.9-8.5,1-20.3l-54.6-2.7L511.7,578.3z
		"/>
	<path fill="#BDC4CC" d="M565.6,561.6c-0.1-0.1-0.1-0.3-0.3-0.4c0-0.1-0.1-0.1-0.1-0.3c0,0,0-0.1-0.1-0.1l0,0l0,0
		c-0.1,0-0.3,0-0.3,0h-0.1h-1.3l-32.9-1.9c0.7,1.2,1.3,2.2,1.7,3.7c0.4,1.6,0.7,3.5,0.6,6c-0.1,1.3-0.4,3-0.9,4.6
		c-0.7,2.7-2.7,5.2-2.7,5.2l34.6,1.4c0.1-0.1,0.3-0.1,0.3-0.1l0,0c2.9-2.9,3.3-8.1,3.5-8.5c0,0,0.1-0.9,0.1-2.4
		c0-1.4-0.9-4.5-0.9-4.5L565.6,561.6C565.7,561.7,565.7,561.6,565.6,561.6z"/>
	
		<linearGradient id="SVGID_23_" gradientUnits="userSpaceOnUse" x1="615.0842" y1="283.5587" x2="615.0842" y2="283.5587" gradientTransform="matrix(5.855899e-02 -1.2084 1.2084 5.855899e-02 142.6226 1297.0544)">
		<stop  offset="0" style="stop-color:#A7B3C2"/>
		<stop  offset="1" style="stop-color:#6D8199"/>
	</linearGradient>
	<path fill="url(#SVGID_23_)" d="M521.3,570.4"/>
	<path fill="#17375E" d="M498.7,579.7l12.2,0.4c0,0,2.7-2.2,3.3-6.3c0,0,2.7-13.8-2-18l-12.4-0.7L498.7,579.7z"/>
	
		<ellipse transform="matrix(-5.949574e-02 0.9982 -0.9982 -5.949574e-02 1095.7173 102.5913)" fill="#74879E" cx="499.5" cy="567.5" rx="12.4" ry="4.7"/>
	
		<ellipse transform="matrix(-5.526900e-02 0.9985 -0.9985 -5.526900e-02 1124.7128 72.8741)" fill="#BDC4CC" cx="527.9" cy="568.5" rx="10.1" ry="4.6"/>
	<path fill="#FFFFFF" stroke="#999999" stroke-miterlimit="10" d="M541.3,570.4c-0.3,2.6-1.2,5-1.9,6.2c-0.6,1.2-1.2,1.2-0.9,1.2
		l11.9,0.4c0,0,5.8-8.5,0.9-17l-11.9-0.7C541.6,563.6,541.7,567.2,541.3,570.4z"/>
</g>
<g>
	<path fill="#FFFFFF" stroke="#4D4D4D" stroke-miterlimit="10" d="M583.8,575l-52.8-2.9c0,0-8.1,8.5-1.2,20.3l54.6,3.5L583.8,575z"
		/>
	<path fill="#BDC4CC" d="M529.8,591.1c0.1,0.1,0.1,0.3,0.3,0.4c0,0.1,0.1,0.1,0.1,0.3c0,0,0,0.1,0.1,0.1l0,0l0,0c0.1,0,0.3,0,0.3,0
		h0.1l1.3,0.1l32.9,2c-0.7-1.2-1.2-2.2-1.7-3.7c-0.4-1.6-0.7-3.5-0.6-6c0.1-1.3,0.4-3,0.9-4.5c0.7-2.7,2.7-5,2.7-5l-34.6-1.9
		c-0.1,0.1-0.3,0.1-0.3,0.1l0,0c-3,2.9-3.5,8.1-3.5,8.5c0,0-0.1,0.9-0.1,2.4s0.9,4.5,0.9,4.5l1.2,2.7
		C529.6,591.1,529.6,591.1,529.8,591.1z"/>
	
		<linearGradient id="SVGID_24_" gradientUnits="userSpaceOnUse" x1="659.5482" y1="226.4967" x2="659.5482" y2="226.4967" gradientTransform="matrix(-7.053865e-02 1.2079 -1.2079 -7.053865e-02 894.1644 -197.9192)">
		<stop  offset="0" style="stop-color:#A7B3C2"/>
		<stop  offset="1" style="stop-color:#6D8199"/>
	</linearGradient>
	<path fill="url(#SVGID_24_)" d="M574.1,582.7"/>
	<path fill="#17375E" d="M596.9,573.5l-12.2-0.4c0,0-2.7,2-3.5,6.3c0,0-2.9,13.8,1.9,18.1l12.4,0.9L596.9,573.5z"/>
	
		<ellipse transform="matrix(6.938571e-02 -0.9976 0.9976 6.938571e-02 -29.9165 1139.7439)" fill="#74879E" cx="595.9" cy="585.9" rx="12.4" ry="4.7"/>
	
		<ellipse transform="matrix(6.516612e-02 -0.9979 0.9979 6.516612e-02 -52.7658 1112.9309)" fill="#BDC4CC" cx="567.6" cy="584.6" rx="10.1" ry="4.6"/>
	<path fill="#FFFFFF" stroke="#999999" stroke-miterlimit="10" d="M554.2,582.6c0.3-2.6,1.3-5,1.9-6c0.6-1.2,1.2-1.2,0.9-1.2
		l-11.9-0.6c0,0-5.9,8.3-1,17l11.9,0.9C553.8,589.5,553.8,585.8,554.2,582.6z"/>
</g>
<g>
	<path fill="#FFFFFF" stroke="#4D4D4D" stroke-miterlimit="10" d="M466.5,599.4l50.9-14.1c0,0,4.9-10.5-5.5-19.7L459,580
		L466.5,599.4z"/>
	<path fill="#BDC4CC" d="M512.7,566.6c-0.1-0.1-0.3-0.3-0.3-0.3c-0.1-0.1-0.1-0.1-0.3-0.3l-0.1-0.1l0,0l0,0c-0.1,0-0.1,0.1-0.3,0.1
		h-0.1l-1.2,0.4l-31.8,8.6c1.2,0.7,1.9,1.7,2.7,3c0.9,1.3,1.9,3.2,2.6,5.6c0.4,1.3,0.6,3,0.7,4.6c0.3,2.9-1,5.8-1,5.8l33.2-9.3
		c0-0.1,0.1-0.1,0.1-0.3l0,0c1.9-3.6,0.6-8.8,0.6-9.2c0,0-0.3-0.9-0.7-2.3c-0.4-1.4-2.3-4-2.3-4l-1.9-2.2
		C512.8,566.6,512.8,566.6,512.7,566.6z"/>
	
		<linearGradient id="SVGID_25_" gradientUnits="userSpaceOnUse" x1="521.4243" y1="222.818" x2="521.4243" y2="222.818" gradientTransform="matrix(-0.3212 -1.1664 1.1664 -0.3212 380.8534 1268.5583)">
		<stop  offset="0" style="stop-color:#A7B3C2"/>
		<stop  offset="1" style="stop-color:#6D8199"/>
	</linearGradient>
	<path fill="url(#SVGID_25_)" d="M473.3,588.8"/>
	<path fill="#17375E" d="M454.7,604.7l11.8-3.5c0,0,1.9-2.9,1.2-7c0,0-1.7-14.1-7.6-16.5l-11.9,3.2L454.7,604.7z"/>
	
		<ellipse transform="matrix(0.2548 0.967 -0.967 0.2548 909.7994 5.0724)" fill="#74879E" cx="451.6" cy="592.8" rx="12.4" ry="4.7"/>
	
		<ellipse transform="matrix(0.2589 0.9659 -0.9659 0.2589 919.9963 -29.0004)" fill="#BDC4CC" cx="478.9" cy="585" rx="10.1" ry="4.6"/>
	<path fill="#FFFFFF" stroke="#999999" stroke-miterlimit="10" d="M492.4,582.6c0.6,2.6,0.4,5,0.1,6.5c-0.3,1.2-0.9,1.4-0.4,1.4
		l11.6-3.3c0,0,2.9-9.8-4.5-16.4l-11.6,3C490.4,576,491.5,579.6,492.4,582.6z"/>
</g>
<path fill="#9E4777" d="M489.7,237.6c0.1,0,0.1-0.1,0.2-0.1c1.8-1.8,1.8-1.8,3.7,0c0.4,0.4,0.8,0.7,1.2,1.2c1.8-1.8,3.5-3.6,5.2-5.3
	c1.4-1.4,1.4-1.4,2.8,0c0.2,0.2,0.4,0.3,0.5,0.5c0,0.1,0,0.1,0,0.2c-2.6,2.5-5.1,5-7.7,7.6c-1,1-1,1-2,0c-1.3-1.3-2.7-2.6-4-4
	C489.7,237.8,489.7,237.7,489.7,237.6z"/>
<g>
	<path fill="#9B3478" d="M288.4,165.5c-0.2-0.2-0.5-0.3-0.8-0.4c-0.3-0.1-0.6-0.2-0.9-0.3c-0.3-0.1-0.6-0.1-0.9-0.2
		c-0.3-0.1-0.5-0.1-0.7-0.2c-0.5-0.2-0.5-0.4-0.5-0.6c0-0.3,0.1-0.5,0.4-0.6c0.3-0.2,0.7-0.3,1.2-0.3c0.6,0,1.1,0.1,1.5,0.2
		c0.2,0.1,0.4,0.1,0.5,0.1c0.1,0,0.4-0.1,0.5-0.3c0.1-0.2,0.2-0.3,0.2-0.5c0-0.4-0.2-0.7-0.5-0.8c-0.7-0.3-1.5-0.4-2.3-0.4
		c-1,0-1.8,0.3-2.4,0.8c-0.6,0.5-0.9,1.1-0.9,1.9c0,0.7,0.3,1.3,0.9,1.8c0.2,0.2,0.5,0.3,0.9,0.4c0.3,0.1,0.6,0.2,0.9,0.3
		c0.3,0.1,0.6,0.2,0.9,0.2c0.3,0.1,0.5,0.1,0.7,0.2c0.5,0.2,0.5,0.5,0.5,0.5c0,0.3,0,0.9-1.6,0.9c-0.4,0-0.8,0-1.2-0.1
		c-0.4-0.1-0.6-0.2-0.7-0.2c-0.2-0.1-0.4-0.1-0.5-0.1c-0.1,0-0.4,0-0.6,0.3c-0.1,0.2-0.2,0.3-0.2,0.6c0,0.2,0.1,0.4,0.2,0.5
		c0.1,0.1,0.2,0.2,0.4,0.3c0.9,0.4,1.8,0.6,2.8,0.6c0.9,0,1.7-0.2,2.3-0.7c0.6-0.5,0.9-1.1,0.9-1.8
		C289.3,166.5,289,165.9,288.4,165.5L288.4,165.5z"/>
	<path fill="#9B3478" d="M271.7,161.5c-0.2,0.2-0.2,0.4-0.2,0.6v6.9c0,0.2,0.1,0.4,0.2,0.6c0.2,0.2,0.4,0.3,0.6,0.3
		c0.2,0,0.4-0.1,0.6-0.2c0.2-0.2,0.3-0.4,0.3-0.6v-6.9c0-0.2-0.1-0.4-0.3-0.6C272.6,161.1,272,161.1,271.7,161.5L271.7,161.5z"/>
	<path fill="#9B3478" d="M261.1,165.5c-0.2-0.2-0.5-0.3-0.8-0.4c-0.3-0.1-0.6-0.2-0.9-0.3c-0.3-0.1-0.6-0.1-0.9-0.2
		c-0.3-0.1-0.5-0.1-0.7-0.2c-0.5-0.2-0.5-0.4-0.5-0.6c0-0.3,0.1-0.5,0.4-0.6c0.3-0.2,0.7-0.3,1.2-0.3c0.6,0,1.1,0.1,1.5,0.2
		c0.2,0.1,0.4,0.1,0.5,0.1c0.1,0,0.4-0.1,0.5-0.3c0.1-0.2,0.2-0.3,0.2-0.5c0-0.4-0.2-0.7-0.5-0.8c-0.7-0.3-1.5-0.4-2.3-0.4
		c-1,0-1.8,0.3-2.4,0.8c-0.6,0.5-0.9,1.1-0.9,1.9c0,0.7,0.3,1.3,0.9,1.8c0.2,0.2,0.5,0.3,0.9,0.4c0.3,0.1,0.6,0.2,0.9,0.3
		c0.3,0.1,0.6,0.2,0.9,0.2c0.3,0.1,0.5,0.1,0.7,0.2c0.5,0.2,0.5,0.5,0.5,0.5c0,0.3,0,0.9-1.6,0.9c-0.4,0-0.8,0-1.2-0.1
		c-0.4-0.1-0.6-0.2-0.7-0.2c-0.2-0.1-0.4-0.1-0.5-0.1c-0.1,0-0.4,0-0.6,0.3c-0.1,0.2-0.2,0.3-0.2,0.5c0,0.2,0.1,0.4,0.2,0.5
		c0.1,0.1,0.2,0.2,0.4,0.3c0.9,0.4,1.8,0.6,2.8,0.6c0.9,0,1.7-0.2,2.3-0.7c0.6-0.5,0.9-1.1,0.9-1.8
		C262,166.5,261.7,165.9,261.1,165.5L261.1,165.5z"/>
	<path fill="#9B3478" d="M211.9,161.5c-0.2,0.2-0.2,0.4-0.2,0.6v4.9l-3.6-5.3c-0.3-0.4-0.7-0.5-0.9-0.5H207c-0.3,0-0.6,0.1-0.8,0.3
		c-0.2,0.2-0.3,0.5-0.3,0.8v6.6c0,0.2,0.1,0.4,0.2,0.6c0.3,0.3,0.9,0.3,1.2,0c0.2-0.2,0.3-0.4,0.3-0.6v-4.9l3.7,5.3
		c0.2,0.3,0.5,0.4,0.9,0.4h0.1c0.3,0,0.6-0.1,0.8-0.3c0.2-0.2,0.3-0.5,0.3-0.8v-6.6c0-0.2-0.1-0.4-0.3-0.6
		C212.8,161.1,212.3,161.1,211.9,161.5L211.9,161.5z"/>
	<path fill="#9B3478" d="M194.4,161.5c-0.2,0.2-0.2,0.4-0.2,0.6v6.9c0,0.2,0.1,0.4,0.2,0.6c0.2,0.2,0.4,0.3,0.6,0.3
		c0.2,0,0.4-0.1,0.6-0.2c0.2-0.2,0.3-0.4,0.3-0.6v-6.9c0-0.2-0.1-0.4-0.3-0.6C195.2,161.1,194.7,161.1,194.4,161.5L194.4,161.5z"/>
	<path fill="#9B3478" d="M180.4,163c0.7-0.3,1.6-0.2,2.2-0.1c0.3,0.1,0.6,0.2,0.9,0.4c0.3,0.1,0.7,0.1,1-0.2
		c0.1-0.2,0.2-0.3,0.2-0.5c0-0.2,0-0.3-0.1-0.5c-0.1-0.1-0.2-0.3-0.5-0.4c-0.2-0.1-0.6-0.3-1-0.4c-0.4-0.1-0.9-0.2-1.5-0.2
		c-1.2,0-2.2,0.4-3,1.2c-0.8,0.8-1.2,1.9-1.2,3.2c0,1.3,0.4,2.4,1.2,3.2c0.4,0.4,0.8,0.7,1.4,0.9c0.5,0.2,1.1,0.3,1.7,0.3
		c0.6,0,1.1-0.1,1.5-0.2c0.4-0.1,0.8-0.3,1.2-0.5c0.3-0.1,0.4-0.4,0.4-0.7c0-0.2-0.1-0.4-0.2-0.5c-0.3-0.3-0.7-0.3-1-0.2
		c-0.3,0.1-0.6,0.3-0.9,0.4c-0.3,0.1-0.6,0.1-1,0.1c-0.9,0-1.5-0.2-2-0.8c-0.4-0.5-0.7-1.1-0.7-1.9c0-0.8,0.2-1.4,0.7-1.9
		C179.8,163.4,180.1,163.2,180.4,163L180.4,163z"/>
	<path fill="#9B3478" d="M230.5,168.6l-2.8-6.7c-0.2-0.4-0.5-0.7-1-0.7h-0.1c-0.4,0-0.8,0.2-1,0.7l-2.8,6.7
		c-0.1,0.1-0.1,0.3-0.1,0.4c0,0.2,0.1,0.4,0.2,0.5c0.2,0.2,0.4,0.3,0.7,0.3c0.3,0,0.6-0.2,0.8-0.5l0.6-1.5h3.3l0.6,1.5
		c0.1,0.3,0.4,0.5,0.8,0.5c0.3,0,0.5-0.1,0.7-0.3c0.2-0.2,0.2-0.3,0.2-0.5C230.6,168.8,230.6,168.7,230.5,168.6z M225.7,166.1l1-2.3
		l1,2.3H225.7z"/>
	<path fill="#9B3478" d="M168.2,167.3c0,0.8-0.3,1.4-0.9,1.8c-0.6,0.5-1.4,0.7-2.3,0.7c-1,0-1.9-0.2-2.8-0.6
		c-0.1-0.1-0.3-0.2-0.4-0.3c-0.1-0.1-0.2-0.3-0.2-0.5c0-0.2,0.1-0.4,0.2-0.6c0.2-0.2,0.4-0.3,0.6-0.3c0.2,0,0.3,0,0.5,0.1
		c0.1,0,0.3,0.1,0.7,0.2c0.3,0.1,0.7,0.1,1.2,0.1c1.6,0,1.6-0.7,1.6-0.9c0-0.1,0-0.3-0.5-0.5c-0.2-0.1-0.4-0.2-0.7-0.2
		c-0.3-0.1-0.6-0.1-0.9-0.2c-0.3-0.1-0.6-0.2-0.9-0.3c-0.3-0.1-0.6-0.3-0.9-0.4c-0.6-0.4-0.9-1-0.9-1.8c0-0.8,0.3-1.4,0.9-1.9
		c0.6-0.5,1.4-0.8,2.4-0.8c0.8,0,1.6,0.1,2.3,0.4c0.3,0.1,0.5,0.4,0.5,0.8c0,0.2-0.1,0.4-0.2,0.5c-0.2,0.2-0.4,0.3-0.5,0.3
		c-0.1,0-0.3,0-0.5-0.1c-0.4-0.2-1-0.2-1.5-0.2c-0.5,0-0.9,0.1-1.2,0.3c-0.3,0.2-0.4,0.4-0.4,0.6c0,0.2,0.1,0.4,0.5,0.6
		c0.2,0.1,0.4,0.2,0.7,0.2c0.3,0.1,0.6,0.1,0.9,0.2c0.3,0.1,0.6,0.2,0.9,0.3c0.3,0.1,0.6,0.3,0.8,0.4
		C167.9,165.9,168.2,166.5,168.2,167.3"/>
	<path fill="#9B3478" d="M245.9,162.2c-0.6-0.6-1.5-0.9-2.6-0.9h-2.5c-0.2,0-0.5,0.1-0.6,0.3c-0.2,0.2-0.2,0.4-0.2,0.6v6.8
		c0,0.2,0.1,0.4,0.2,0.6c0.2,0.2,0.4,0.3,0.6,0.3c0.2,0,0.4-0.1,0.6-0.2c0.2-0.2,0.3-0.4,0.3-0.6v-2h1.7c1.1,0,2-0.3,2.6-0.9
		c0.5-0.5,0.8-1.1,0.8-1.9C246.6,163.3,246.4,162.7,245.9,162.2z M244.6,164.8c-0.3,0.3-0.7,0.4-1.4,0.4h-1.6v-2.3h1.6
		c0.4,0,0.7,0,0.9,0.1c0.5,0.2,0.8,0.5,0.8,1C244.9,164.4,244.8,164.7,244.6,164.8z"/>
</g>
<g>
	<path fill="#FFFFFF" stroke="#4D4D4D" stroke-miterlimit="10" d="M378.7,302.7l0.1,52.9c0,0,8.9,7.5,20.4,0l0.1-54.8L378.7,302.7z"
		/>
	<path fill="#BDC4CC" d="M397.9,355.9c0.1-0.1,0.3-0.1,0.4-0.3c0.1-0.1,0.1-0.1,0.3-0.3c0,0,0.1,0,0.1-0.1l0,0l0,0
		c0-0.1,0-0.1,0-0.3v-0.1v-1.3l0.1-33.1c-1,0.9-2,1.3-3.6,1.9c-1.6,0.4-3.5,1-6,1c-1.3,0-3.2-0.3-4.6-0.6c-2.7-0.6-5.3-2.4-5.3-2.4
		l0.1,34.6c0.1,0.1,0.1,0.3,0.1,0.3l0,0c3,2.7,8.2,2.9,8.8,3c0,0,0.9,0,2.4,0c1.4-0.1,4.5-1.2,4.5-1.2L397.9,355.9
		C397.9,355.9,397.9,355.9,397.9,355.9z"/>
	
		<linearGradient id="SVGID_26_" gradientUnits="userSpaceOnUse" x1="348.0696" y1="179.8716" x2="348.0696" y2="179.8716" gradientTransform="matrix(1.2099 -7.823764e-05 7.823764e-05 1.2099 -34.1154 94.2755)">
		<stop  offset="0" style="stop-color:#A7B3C2"/>
		<stop  offset="1" style="stop-color:#6D8199"/>
	</linearGradient>
	<path fill="url(#SVGID_26_)" d="M387,311.9"/>
	<path fill="#17375E" d="M376.7,289.7l0.1,12.2c0,0,2.3,2.7,6.5,2.9c0,0,13.9,2,18-3l0.1-12.4L376.7,289.7z"/>
	
		<ellipse transform="matrix(-0.9999 -1.104491e-02 1.104491e-02 -0.9999 774.7943 584.1949)" fill="#74879E" cx="389" cy="290" rx="12.4" ry="4.7"/>
	
		<ellipse transform="matrix(-1 -6.816724e-03 6.816724e-03 -1 776.4155 639.1211)" fill="#BDC4CC" cx="389.3" cy="318.2" rx="10.1" ry="4.6"/>
	<path fill="#FFFFFF" stroke="#999999" stroke-miterlimit="10" d="M388,332c-2.6-0.1-5-1-6.2-1.6c-1.2-0.4-1.2-1.2-1.2-0.7l0.1,11.9
		c0,0,8.8,5.5,17,0l0.1-11.9C394.9,331.9,391.2,332.1,388,332z"/>
</g>
</svg>
