<?xml version="1.0" encoding="utf-8"?>
<!-- Generator: Adobe Illustrator 18.0.0, SVG Export Plug-In . SVG Version: 6.00 Build 0)  -->
<!DOCTYPE svg PUBLIC "-//W3C//DTD SVG 1.1//EN" "http://www.w3.org/Graphics/SVG/1.1/DTD/svg11.dtd">
<svg version="1.1" id="Layer_1" xmlns="http://www.w3.org/2000/svg" xmlns:xlink="http://www.w3.org/1999/xlink" x="0px" y="0px"
	 viewBox="0 0 128 64" enable-background="new 0 0 128 64" xml:space="preserve">
<g>
	<path fill="#231F20" d="M76.8,24.7v-2.8H74V19h-2.8v-2.9H42.6V51h2.8v2.9h2.8v2.9h2.9v2.8h28.5V24.7H76.8z M45.5,49.5h-1.4V17.6
		h25.5V19H45.5V49.5z M48.3,52.3h-1.4V20.5h25.5v1.4H48.3V52.3z M51.2,55.2h-1.4V23.3h25.5v1.4H51.2V55.2z M78.2,58H52.6V26.1h25.5
		V58z"/>
	<polygon fill="#FFFFFF" points="69.6,17.6 69.6,19 45.5,19 45.5,49.5 44.1,49.5 44.1,17.6 	"/>
	<polygon fill="#FFFFFF" points="72.5,20.5 72.5,21.8 48.3,21.8 48.3,52.3 46.9,52.3 46.9,20.5 	"/>
	<polygon fill="#FFFFFF" points="75.3,23.3 75.3,24.7 51.2,24.7 51.2,55.2 49.8,55.2 49.8,23.3 	"/>
	<path fill="#FFFFFF" d="M52.6,58h25.5V26.1H52.6V58z M65.4,53.5H54.9v-1.4h10.5V53.5z M75.9,46.2h-21v-1.4h21V46.2z M75.9,38.9h-21
		v-1.4h21V38.9z M75.9,31.5h-21v-1.4h21V31.5z"/>
	<rect x="54.9" y="30.1" fill="#231F20" width="21" height="1.4"/>
	<rect x="54.9" y="37.4" fill="#231F20" width="21" height="1.4"/>
	<rect x="54.9" y="44.8" fill="#231F20" width="21" height="1.4"/>
	<rect x="54.9" y="52.1" fill="#231F20" width="10.5" height="1.4"/>
	<text transform="matrix(1 0 0 1 81.5928 22.4522)" fill="#231F20" font-family="'Futura-Medium'" font-size="6.9637">?</text>
	<circle fill="none" stroke="#231F20" stroke-width="1.086" stroke-miterlimit="10" cx="83.3" cy="19.5" r="4.4"/>
	<path fill="#9E4777" d="M34.9,1.4c0.6,1.3,0.1,2.8-1.2,3.5c-0.3,0.1-0.6,0.2-0.8,0.2l0,15.6c0.8,0.1,1.5,0.6,1.9,1.4
		c0.6,1.3,0.1,2.8-1.2,3.5c-1.3,0.6-2.8,0.1-3.5-1.2c-0.6-1.3-0.1-2.8,1.2-3.5c0.3-0.1,0.6-0.2,0.8-0.2l0-15.6
		c-0.8-0.1-1.5-0.6-1.9-1.4c-0.6-1.3-0.1-2.8,1.2-3.5C32.7-0.4,34.3,0.2,34.9,1.4 M31.7,21.6c-0.9,0.5-1.3,1.6-0.9,2.5
		c0.5,0.9,1.6,1.3,2.5,0.9c0.9-0.5,1.3-1.6,0.9-2.5C33.7,21.6,32.6,21.2,31.7,21.6 M34.3,1.7c-0.5-0.9-1.6-1.3-2.5-0.9
		c-0.9,0.5-1.3,1.6-0.9,2.5c0.5,0.9,1.6,1.3,2.5,0.9C34.4,3.8,34.8,2.7,34.3,1.7"/>
	<path fill="#402B56" d="M33.8,22.7c0.4,0.7,0.1,1.6-0.7,2c-0.7,0.4-1.6,0.1-2-0.7c-0.4-0.7-0.1-1.6,0.7-2
		C32.6,21.6,33.5,21.9,33.8,22.7"/>
	<path fill="#402B56" d="M34,1.9c0.4,0.7,0.1,1.6-0.7,2c-0.7,0.4-1.6,0.1-2-0.7c-0.4-0.7-0.1-1.6,0.7-2C32.7,0.9,33.6,1.2,34,1.9"/>
	<path fill="#9E4777" d="M34.9,30.7c0.6,1.3,0.1,2.8-1.2,3.5c-0.3,0.1-0.6,0.2-0.8,0.2l0,15.6c0.8,0.1,1.5,0.6,1.9,1.4
		c0.6,1.3,0.1,2.8-1.2,3.5c-1.3,0.6-2.8,0.1-3.5-1.2c-0.6-1.3-0.1-2.8,1.2-3.5c0.3-0.1,0.6-0.2,0.8-0.2l0-15.6
		c-0.8-0.1-1.5-0.6-1.9-1.4c-0.6-1.3-0.1-2.8,1.2-3.5C32.7,28.9,34.3,29.4,34.9,30.7 M31.7,50.9c-0.9,0.5-1.3,1.6-0.9,2.5
		c0.5,0.9,1.6,1.3,2.5,0.9c0.9-0.5,1.3-1.6,0.9-2.5C33.7,50.9,32.6,50.5,31.7,50.9 M34.3,31c-0.5-0.9-1.6-1.3-2.5-0.9
		c-0.9,0.5-1.3,1.6-0.9,2.5c0.5,0.9,1.6,1.3,2.5,0.9C34.4,33.1,34.8,32,34.3,31"/>
	<path fill="#402B56" d="M33.8,52c0.4,0.7,0.1,1.6-0.7,2c-0.7,0.4-1.6,0.1-2-0.7c-0.4-0.7-0.1-1.6,0.7-2
		C32.6,50.9,33.5,51.2,33.8,52"/>
	<path fill="#402B56" d="M34,31.2c0.4,0.7,0.1,1.6-0.7,2c-0.7,0.4-1.6,0.1-2-0.7c-0.4-0.7-0.1-1.6,0.7-2
		C32.7,30.2,33.6,30.5,34,31.2"/>
	<path fill="#9E4777" d="M95.5,10.2c0.6,1.3,0.1,2.8-1.2,3.5c-0.3,0.1-0.6,0.2-0.8,0.2l0,15.6c0.8,0.1,1.5,0.6,1.9,1.4
		c0.6,1.3,0.1,2.8-1.2,3.5c-1.3,0.6-2.8,0.1-3.5-1.2c-0.6-1.3-0.1-2.8,1.2-3.5c0.3-0.1,0.6-0.2,0.8-0.2l0-15.6
		c-0.8-0.1-1.5-0.6-1.9-1.4c-0.6-1.3-0.1-2.8,1.2-3.5C93.3,8.4,94.9,9,95.5,10.2 M92.2,30.4c-0.9,0.5-1.3,1.6-0.9,2.5
		c0.5,0.9,1.6,1.3,2.5,0.9c0.9-0.5,1.3-1.6,0.9-2.5C94.3,30.4,93.1,30,92.2,30.4 M94.9,10.5c-0.5-0.9-1.6-1.3-2.5-0.9
		c-0.9,0.5-1.3,1.6-0.9,2.5c0.5,0.9,1.6,1.3,2.5,0.9C94.9,12.6,95.3,11.5,94.9,10.5"/>
	<path fill="#402B56" d="M94.4,31.5c0.4,0.7,0.1,1.6-0.7,2c-0.7,0.4-1.6,0.1-2-0.7c-0.4-0.7-0.1-1.6,0.7-2
		C93.1,30.4,94,30.7,94.4,31.5"/>
	<path fill="#402B56" d="M94.5,10.7c0.4,0.7,0.1,1.6-0.7,2c-0.7,0.4-1.6,0.1-2-0.7c-0.4-0.7-0.1-1.6,0.7-2
		C93.3,9.7,94.2,10,94.5,10.7"/>
	<path fill="#9E4777" d="M95.5,39.5c0.6,1.3,0.1,2.8-1.2,3.5c-0.3,0.1-0.6,0.2-0.8,0.2l0,15.6c0.8,0.1,1.5,0.6,1.9,1.4
		c0.6,1.3,0.1,2.8-1.2,3.5c-1.3,0.6-2.8,0.1-3.5-1.2c-0.6-1.3-0.1-2.8,1.2-3.5c0.3-0.1,0.6-0.2,0.8-0.2l0-15.6
		c-0.8-0.1-1.5-0.6-1.9-1.4c-0.6-1.3-0.1-2.8,1.2-3.5C93.3,37.7,94.9,38.2,95.5,39.5 M92.2,59.7c-0.9,0.5-1.3,1.6-0.9,2.5
		c0.5,0.9,1.6,1.3,2.5,0.9c0.9-0.5,1.3-1.6,0.9-2.5C94.3,59.7,93.1,59.3,92.2,59.7 M94.9,39.8c-0.5-0.9-1.6-1.3-2.5-0.9
		c-0.9,0.5-1.3,1.6-0.9,2.5c0.5,0.9,1.6,1.3,2.5,0.9C94.9,41.9,95.3,40.8,94.9,39.8"/>
	<path fill="#402B56" d="M94.4,60.8c0.4,0.7,0.1,1.6-0.7,2c-0.7,0.4-1.6,0.1-2-0.7c-0.4-0.7-0.1-1.6,0.7-2
		C93.1,59.7,94,60,94.4,60.8"/>
	<path fill="#402B56" d="M94.5,40c0.4,0.7,0.1,1.6-0.7,2c-0.7,0.4-1.6,0.1-2-0.7c-0.4-0.7-0.1-1.6,0.7-2C93.3,39,94.2,39.3,94.5,40"
		/>
	<path fill="#9E4777" d="M22.1,14.6c0.6,1.3,0.1,2.8-1.2,3.5c-0.3,0.1-0.6,0.2-0.8,0.2l0,15.6c0.8,0.1,1.5,0.6,1.9,1.4
		c0.6,1.3,0.1,2.8-1.2,3.5c-1.3,0.6-2.8,0.1-3.5-1.2c-0.6-1.3-0.1-2.8,1.2-3.5c0.3-0.1,0.6-0.2,0.8-0.2l0-15.6
		c-0.8-0.1-1.5-0.6-1.9-1.4c-0.6-1.3-0.1-2.8,1.2-3.5C19.9,12.8,21.5,13.4,22.1,14.6 M18.8,34.8c-0.9,0.5-1.3,1.6-0.9,2.5
		c0.5,0.9,1.6,1.3,2.5,0.9c0.9-0.5,1.3-1.6,0.9-2.5C20.9,34.8,19.8,34.4,18.8,34.8 M21.5,14.9C21,14,19.9,13.6,19,14.1
		c-0.9,0.5-1.3,1.6-0.9,2.5c0.5,0.9,1.6,1.3,2.5,0.9C21.5,17,21.9,15.9,21.5,14.9"/>
	<path fill="#402B56" d="M21,35.9c0.4,0.7,0.1,1.6-0.7,2c-0.7,0.4-1.6,0.1-2-0.7c-0.4-0.7-0.1-1.6,0.7-2
		C19.7,34.8,20.6,35.1,21,35.9"/>
	<path fill="#402B56" d="M21.1,15.1c0.4,0.7,0.1,1.6-0.7,2c-0.7,0.4-1.6,0.1-2-0.7c-0.4-0.7-0.1-1.6,0.7-2
		C19.9,14.1,20.8,14.4,21.1,15.1"/>
	<path fill="#9E4777" d="M110.7,24.9c0.6,1.3,0.1,2.8-1.2,3.5c-0.3,0.1-0.6,0.2-0.8,0.2l0,15.6c0.8,0.1,1.5,0.6,1.9,1.4
		c0.6,1.3,0.1,2.8-1.2,3.5c-1.3,0.6-2.8,0.1-3.5-1.2c-0.6-1.3-0.1-2.8,1.2-3.5c0.3-0.1,0.6-0.2,0.8-0.2l0-15.6
		c-0.8-0.1-1.5-0.6-1.9-1.4c-0.6-1.3-0.1-2.8,1.2-3.5C108.5,23.1,110,23.6,110.7,24.9 M107.4,45.1c-0.9,0.5-1.3,1.6-0.9,2.5
		c0.5,0.9,1.6,1.3,2.5,0.9c0.9-0.5,1.3-1.6,0.9-2.5C109.5,45,108.3,44.6,107.4,45.1 M110.1,25.2c-0.5-0.9-1.6-1.3-2.5-0.9
		c-0.9,0.5-1.3,1.6-0.9,2.5c0.5,0.9,1.6,1.3,2.5,0.9C110.1,27.2,110.5,26.1,110.1,25.2"/>
	<path fill="#402B56" d="M109.6,46.1c0.4,0.7,0.1,1.6-0.7,2c-0.7,0.4-1.6,0.1-2-0.7c-0.4-0.7-0.1-1.6,0.7-2
		C108.3,45.1,109.2,45.4,109.6,46.1"/>
	<path fill="#402B56" d="M109.7,25.4c0.4,0.7,0.1,1.6-0.7,2c-0.7,0.4-1.6,0.1-2-0.7c-0.4-0.7-0.1-1.6,0.7-2
		C108.4,24.3,109.3,24.6,109.7,25.4"/>
</g>
</svg>
