<?xml version="1.0" encoding="utf-8"?>
<!-- Generator: Adobe Illustrator 18.0.0, SVG Export Plug-In . SVG Version: 6.00 Build 0)  -->
<!DOCTYPE svg PUBLIC "-//W3C//DTD SVG 1.1//EN" "http://www.w3.org/Graphics/SVG/1.1/DTD/svg11.dtd">
<svg version="1.1" id="Layer_1" xmlns="http://www.w3.org/2000/svg" xmlns:xlink="http://www.w3.org/1999/xlink" x="0px" y="0px"
	 viewBox="215.8 201.9 176.5 189.2" enable-background="new 215.8 201.9 176.5 189.2" xml:space="preserve">
<g>
	<path fill="#9E4777" d="M371.9,201.9c-11.4,0-20.6,9.2-20.6,20.6c0,7,3.5,13,8.6,16.7L304.8,351c-2.1-0.8-4.5-1.2-6.8-1.2
		c-11.4,0-20.6,9.2-20.6,20.6c0,11.4,9.2,20.6,20.6,20.6s20.6-9.2,20.6-20.6c0-7-3.5-13-8.6-16.7l54.9-111.8
		c2.1,0.8,4.5,1.2,6.8,1.2c11.4,0,20.6-9.2,20.6-20.6C392.3,211.1,383.2,201.9,371.9,201.9z M313,370.2c0,8.3-6.7,15-15,15
		s-15-6.7-15-15s6.7-15,15-15C306,355.3,313,361.9,313,370.2z M371.9,237.4c-8.3,0-15-6.7-15-15s6.7-15,15-15s15,6.7,15,15
		C386.7,230.7,379.9,237.4,371.9,237.4z"/>
	<circle fill="#9E4777" cx="224.1" cy="222.5" r="8.3"/>
	<circle fill="#9E4777" cx="298" cy="222.5" r="8.3"/>
	<circle fill="#9E4777" cx="224.1" cy="296.3" r="8.3"/>
	<circle fill="#9E4777" cx="298" cy="296.3" r="8.3"/>
	<circle fill="#402B56" cx="298" cy="370.2" r="12"/>
	<circle fill="#402B56" cx="371.9" cy="222.5" r="12"/>
	<circle fill="#9E4777" cx="371.9" cy="296.3" r="8.3"/>
	<circle fill="#9E4777" cx="224.1" cy="370.2" r="8.3"/>
	<circle fill="#9E4777" cx="371.9" cy="370.2" r="8.3"/>
</g>
</svg>
