<?xml version="1.0" encoding="utf-8"?>
<!-- Generator: Adobe Illustrator 18.0.0, SVG Export Plug-In . SVG Version: 6.00 Build 0)  -->
<!DOCTYPE svg PUBLIC "-//W3C//DTD SVG 1.1//EN" "http://www.w3.org/Graphics/SVG/1.1/DTD/svg11.dtd">
<svg version="1.1" id="Layer_1" xmlns="http://www.w3.org/2000/svg" xmlns:xlink="http://www.w3.org/1999/xlink" x="0px" y="0px"
	 viewBox="34.9 117.7 467.2 321.1" enable-background="new 34.9 117.7 467.2 321.1" xml:space="preserve">
<g>
	<g>
		<path fill="#9E4777" d="M55.5,356c-0.8-0.7-2-1.3-3.1-1.7c-1.1-0.4-2.1-0.7-3.2-1s-2.1-0.6-3.2-0.8c-1-0.3-1.8-0.6-2.5-0.8
			c-1.7-0.7-1.8-1.5-1.8-2.3c0-1,0.4-1.7,1.4-2.3c1.1-0.7,2.7-1,4.5-1c2.1,0,4.1,0.3,5.6,0.8c0.7,0.3,1.4,0.4,1.8,0.4
			c0.6,0,1.3-0.1,2-1.1c0.4-0.6,0.7-1.3,0.7-2c0-1.4-0.7-2.4-2-2.8c-2.5-1-5.5-1.4-8.6-1.4c-3.5,0-6.5,1-8.7,2.8
			c-2.1,1.8-3.1,4.1-3.1,6.9c0,2.7,1.1,4.8,3.2,6.5c0.8,0.7,2,1.3,3.1,1.7c1.1,0.4,2.1,0.7,3.2,1s2.1,0.6,3.2,0.8
			c1,0.3,1.8,0.6,2.5,0.8c2,0.8,2,1.7,2,2c0,1,0,3.4-5.8,3.4c-1.7,0-3.1-0.1-4.4-0.4c-1.5-0.4-2.3-0.7-2.7-0.8
			c-0.7-0.3-1.4-0.6-2-0.6s-1.3,0.1-2,1c-0.6,0.6-0.8,1.3-0.8,2c0,0.7,0.3,1.4,0.6,1.8c0.4,0.4,0.8,0.8,1.3,1.1
			c3.1,1.4,6.6,2.1,10.3,2.1c3.4,0,6.3-0.8,8.5-2.5c2.3-1.7,3.4-3.9,3.4-6.8C58.7,359.8,57.6,357.5,55.5,356z"/>
		<path fill="#9E4777" d="M103.4,347c2.4-1,5.9-0.8,8-0.3c1.1,0.3,2.1,0.7,3.1,1.3c1,0.4,2.5,0.4,3.5-0.6c0.6-0.6,0.7-1.3,0.7-2
			s-0.1-1.3-0.4-1.7c-0.3-0.4-0.8-1-1.8-1.4c-0.8-0.4-2-1-3.5-1.4c-1.5-0.6-3.5-0.8-5.6-0.8c-4.5,0-8.2,1.4-11.1,4.2
			c-3,3-4.5,6.9-4.5,11.7s1.5,8.7,4.5,11.7c1.4,1.4,3.1,2.5,4.9,3.2c1.8,0.7,3.9,1.1,6.1,1.1c2.1,0,4.1-0.3,5.6-0.8
			c1.5-0.6,3-1.1,4.2-1.8c1-0.6,1.7-1.5,1.7-2.7c0-0.7-0.3-1.4-0.7-2c-1-1-2.5-1.1-3.5-0.6c-1,0.6-2.1,1-3.1,1.3
			c-1,0.3-2.3,0.4-3.7,0.4c-3.1,0-5.5-0.8-7.2-2.8c-1.5-1.7-2.4-4.1-2.4-7s0.8-5.2,2.4-7C101.3,348.1,102.3,347.4,103.4,347z"/>
		<path fill="#9E4777" d="M154.4,341.2c-0.6,0.6-0.8,1.4-0.8,2.3v25.2c0,0.8,0.3,1.7,0.8,2.3c0.6,0.6,1.4,1,2.3,1s1.7-0.3,2.3-0.8
			c0.6-0.6,1-1.4,1-2.3v-25.2c0-0.8-0.3-1.7-1-2.3C157.6,339.9,155.6,339.9,154.4,341.2z"/>
		<path fill="#9E4777" d="M218.7,341.2c-0.6,0.6-0.8,1.4-0.8,2.3v17.7l-13.4-19.3c-1.1-1.4-2.4-1.7-3.2-1.7h-0.6
			c-1.1,0-2.1,0.4-2.8,1.1s-1.1,1.7-1.1,2.8v24.4c0,0.8,0.3,1.7,0.8,2.3c1.1,1.3,3.2,1.3,4.5,0c0.6-0.6,1-1.4,1-2.3v-17.9l13.4,19.3
			c0.8,1.1,2,1.7,3.2,1.7h0.4c1.1,0,2.1-0.4,2.8-1.1c0.8-0.7,1.1-1.7,1.1-2.8v-24.4c0-0.8-0.3-1.7-1-2.3
			C222,339.9,220,339.9,218.7,341.2z"/>
		<path fill="#9E4777" d="M276.5,342.7c-0.7-1.5-2-2.4-3.5-2.4h-0.4c-1.5,0-2.8,0.8-3.5,2.5l-10.4,24.5c-0.1,0.4-0.3,1-0.3,1.5
			c0,0.7,0.3,1.4,0.8,2c0.6,0.7,1.4,1,2.5,1c1.3,0,2.3-0.7,2.8-2l2.3-5.5h12.1l2.3,5.5c0.6,1.3,1.5,2,2.8,2c1.1,0,2-0.3,2.5-1
			c0.6-0.6,0.8-1.3,0.8-2c0-0.6-0.1-1-0.3-1.5L276.5,342.7z M269.1,358.2l3.5-8.5l3.5,8.5H269.1z"/>
		<path fill="#9E4777" d="M333.5,340.5h-9.3c-0.8,0-1.7,0.3-2.3,1c-0.6,0.6-0.8,1.4-0.8,2.3v24.9c0,0.8,0.3,1.7,0.8,2.3
			c0.6,0.6,1.4,1,2.3,1s1.7-0.3,2.3-0.8c0.6-0.6,1-1.4,1-2.3v-7.5h6.1c4.1,0,7.3-1.1,9.4-3.4c1.8-1.8,2.8-4.2,2.8-7
			c0-2.8-1-5.2-2.7-7C340.8,341.6,337.7,340.5,333.5,340.5z M339.4,350.8c0,1.3-0.3,2.1-1.1,2.8c-1,1-2.7,1.4-5.2,1.4h-5.8v-8.5h5.8
			c1.4,0,2.5,0.1,3.4,0.4C338.4,347.7,339.4,348.8,339.4,350.8z"/>
		<path fill="#9E4777" d="M398.9,356c-0.8-0.7-2-1.3-3.1-1.7c-1.1-0.4-2.1-0.7-3.2-1s-2.1-0.6-3.2-0.8c-1-0.3-1.8-0.6-2.5-0.8
			c-1.7-0.7-1.8-1.5-1.8-2.3c0-1,0.4-1.7,1.4-2.3c1.1-0.7,2.7-1,4.5-1c2.1,0,4.1,0.3,5.6,0.8c0.7,0.3,1.4,0.4,1.8,0.4
			c0.6,0,1.3-0.1,2-1.1c0.4-0.6,0.7-1.3,0.7-2c0-1.4-0.7-2.4-2-2.8c-2.5-1-5.5-1.4-8.6-1.4c-3.5,0-6.5,1-8.7,2.8
			c-2.1,1.8-3.1,4.1-3.1,6.9c0,2.7,1.1,4.8,3.2,6.5c0.8,0.7,2,1.3,3.1,1.7s2.1,0.7,3.2,1c1.1,0.3,2.1,0.6,3.2,0.8
			c1,0.3,1.8,0.6,2.5,0.8c2,0.8,2,1.7,2,2c0,1,0,3.4-5.8,3.4c-1.7,0-3.1-0.1-4.4-0.4c-1.5-0.4-2.3-0.7-2.7-0.8
			c-0.7-0.3-1.4-0.6-2-0.6s-1.3,0.1-2,1c-0.6,0.6-0.8,1.3-0.8,2c0,0.7,0.3,1.4,0.6,1.8c0.4,0.4,0.8,0.8,1.3,1.1
			c3.1,1.4,6.6,2.1,10.3,2.1c3.4,0,6.3-0.8,8.5-2.5c2.3-1.7,3.4-3.9,3.4-6.8C402,359.8,401,357.5,398.9,356z"/>
		<path fill="#9E4777" d="M437.6,341.2c-0.6,0.6-0.8,1.4-0.8,2.3v25.2c0,0.8,0.3,1.7,0.8,2.3c0.6,0.6,1.4,1,2.3,1s1.7-0.3,2.3-0.8
			c0.6-0.6,1-1.4,1-2.3v-25.2c0-0.8-0.3-1.7-1-2.3C440.8,339.9,438.9,339.9,437.6,341.2z"/>
		<path fill="#9E4777" d="M498.7,356c-0.8-0.7-2-1.3-3.1-1.7c-1.1-0.4-2.1-0.7-3.2-1c-1.1-0.3-2.1-0.6-3.2-0.8
			c-1-0.3-1.8-0.6-2.5-0.8c-1.7-0.7-1.8-1.5-1.8-2.3c0-1,0.4-1.7,1.4-2.3c1.1-0.7,2.7-1,4.5-1c2.1,0,4.1,0.3,5.6,0.8
			c0.7,0.3,1.4,0.4,1.8,0.4c0.6,0,1.3-0.1,2-1.1c0.4-0.6,0.7-1.3,0.7-2c0-1.4-0.7-2.4-2-2.8c-2.5-1-5.5-1.4-8.6-1.4
			c-3.5,0-6.5,1-8.7,2.8c-2.1,1.8-3.1,4.1-3.1,6.9c0,2.7,1.1,4.8,3.2,6.5c0.8,0.7,2,1.3,3.1,1.7c1.1,0.4,2.1,0.7,3.2,1
			c1.1,0.3,2.1,0.6,3.2,0.8c1,0.3,1.8,0.6,2.5,0.8c2,0.8,2,1.7,2,2c0,1,0,3.4-5.8,3.4c-1.7,0-3.1-0.1-4.4-0.4
			c-1.5-0.4-2.3-0.7-2.7-0.8c-0.7-0.3-1.4-0.6-2-0.6s-1.3,0.1-2,1c-0.6,0.6-0.8,1.3-0.8,2c0,0.7,0.3,1.4,0.6,1.8
			c0.4,0.4,0.8,0.8,1.3,1.1c3.1,1.4,6.6,2.1,10.3,2.1c3.4,0,6.3-0.8,8.5-2.5c2.3-1.7,3.4-3.9,3.4-6.8C502,359.8,501,357.5,498.7,356
			z"/>
	</g>
	<g>
		<path fill="#9E4777" d="M327.2,117.7c-9.9,0-17.9,8-17.9,17.9c0,6.1,3,11.3,7.5,14.5L269,247c-1.8-0.7-3.9-1-5.9-1
			c-9.9,0-17.9,8-17.9,17.9c0,9.9,8,17.9,17.9,17.9c9.9,0,17.9-8,17.9-17.9c0-6.1-3-11.3-7.5-14.5l47.6-97c1.8,0.7,3.9,1,5.9,1
			c9.9,0,17.9-8,17.9-17.9C344.9,125.7,337,117.7,327.2,117.7z M276.1,263.7c0,7.2-5.8,13-13,13c-7.2,0-13-5.8-13-13
			c0-7.2,5.8-13,13-13C270.1,250.8,276.1,256.5,276.1,263.7z M327.2,148.5c-7.2,0-13-5.8-13-13c0-7.2,5.8-13,13-13
			c7.2,0,13,5.8,13,13C340.1,142.7,334.2,148.5,327.2,148.5z"/>
		<circle fill="#9E4777" cx="199" cy="135.6" r="7.2"/>
		<circle fill="#9E4777" cx="263.1" cy="135.6" r="7.2"/>
		<circle fill="#9E4777" cx="199" cy="199.6" r="7.2"/>
		<circle fill="#9E4777" cx="263.1" cy="199.6" r="7.2"/>
		<circle fill="#402B56" cx="263.1" cy="263.7" r="10.4"/>
		<circle fill="#402B56" cx="327.2" cy="135.6" r="10.4"/>
		<circle fill="#9E4777" cx="327.2" cy="199.6" r="7.2"/>
		<circle fill="#9E4777" cx="199" cy="263.7" r="7.2"/>
		<circle fill="#9E4777" cx="327.2" cy="263.7" r="7.2"/>
	</g>
	<g>
		<text transform="matrix(1 0 0 1 42.8201 430.5264)" font-family="'ArialMT'" font-size="25.5248">we pair scientists with the best reagents</text>
	</g>
</g>
</svg>
