<?xml version="1.0" encoding="utf-8"?>
<!-- Generator: Adobe Illustrator 18.0.0, SVG Export Plug-In . SVG Version: 6.00 Build 0)  -->
<!DOCTYPE svg PUBLIC "-//W3C//DTD SVG 1.1//EN" "http://www.w3.org/Graphics/SVG/1.1/DTD/svg11.dtd">
<svg version="1.1" id="Layer_1" xmlns="http://www.w3.org/2000/svg" xmlns:xlink="http://www.w3.org/1999/xlink" x="0px" y="0px"
	 viewBox="45 212.9 459.3 110.3" enable-background="new 45 212.9 459.3 110.3" xml:space="preserve">
<g>
	<g>
		<circle fill="#402B56" cx="92.9" cy="311.3" r="7"/>
		<circle fill="#402B56" cx="136" cy="224.9" r="7"/>
	</g>
	<g>
		<path d="M197.7,311.3l-2.8-8.9h1.6l1.4,5.2l0.5,1.9c0-0.1,0.2-0.7,0.4-1.8l1.4-5.2h1.6l1.4,5.2l0.4,1.7l0.5-1.7l1.5-5.2h1.5
			l-2.8,8.9h-1.6l-1.4-5.3l-0.3-1.5l-1.8,6.9h-1.6V311.3z"/>
		<path d="M214.6,308.4l1.6,0.2c-0.2,1-0.7,1.6-1.4,2.1c-0.6,0.5-1.5,0.7-2.5,0.7c-1.3,0-2.3-0.4-3.1-1.2c-0.7-0.8-1.2-1.9-1.2-3.4
			c0-1.5,0.4-2.7,1.2-3.5c0.7-0.8,1.8-1.3,3-1.3c1.2,0,2.1,0.4,3,1.2c0.7,0.8,1.2,1.9,1.2,3.4c0,0.1,0,0.2,0,0.4h-6.7
			c0.1,1,0.3,1.7,0.8,2.2c0.5,0.5,1.2,0.7,1.9,0.7c0.5,0,1.1-0.1,1.4-0.4C214.1,309.5,214.4,309,214.6,308.4z M209.6,305.9h5
			c-0.1-0.7-0.2-1.3-0.5-1.7c-0.5-0.6-1.1-0.8-1.9-0.8c-0.7,0-1.3,0.2-1.8,0.7C209.9,304.5,209.7,305.1,209.6,305.9z"/>
		<path d="M222.9,314.7v-12.3h1.4v1.2c0.3-0.4,0.7-0.7,1.1-1.1c0.4-0.2,1-0.3,1.5-0.3c0.7,0,1.5,0.2,2,0.6c0.5,0.4,1.1,1,1.3,1.7
			c0.3,0.7,0.4,1.5,0.4,2.3c0,1-0.2,1.7-0.5,2.4c-0.3,0.7-0.8,1.3-1.4,1.7c-0.6,0.4-1.3,0.6-2,0.6c-0.5,0-1-0.1-1.4-0.3
			c-0.4-0.2-0.7-0.5-1-0.8v4.3h-1.4V314.7z M224.2,306.8c0,1.2,0.2,2,0.7,2.5c0.4,0.5,1.1,0.8,1.7,0.8c0.6,0,1.3-0.3,1.7-0.8
			c0.5-0.5,0.7-1.5,0.7-2.7c0-1.2-0.2-2-0.7-2.5c-0.4-0.5-1.1-0.8-1.7-0.8c-0.6,0-1.2,0.3-1.7,1
			C224.4,304.8,224.2,305.7,224.2,306.8z"/>
		<path d="M238.2,310.1c-0.5,0.4-1.1,0.8-1.6,1.1c-0.5,0.2-1.1,0.3-1.7,0.3c-1,0-1.7-0.2-2.2-0.7c-0.5-0.5-0.7-1.1-0.7-1.8
			c0-0.4,0.1-0.8,0.3-1.2c0.2-0.3,0.4-0.6,0.7-0.8c0.3-0.2,0.6-0.4,1.1-0.5c0.3-0.1,0.7-0.1,1.4-0.2c1.3-0.1,2.1-0.3,2.7-0.5
			c0-0.2,0-0.3,0-0.4c0-0.6-0.1-1.1-0.4-1.3c-0.4-0.3-1-0.5-1.7-0.5c-0.7,0-1.3,0.1-1.6,0.4c-0.3,0.2-0.6,0.7-0.7,1.3l-1.5-0.2
			c0.1-0.6,0.3-1.2,0.6-1.5c0.3-0.4,0.7-0.7,1.4-0.8c0.5-0.2,1.3-0.3,2-0.3s1.4,0.1,1.9,0.3c0.4,0.2,0.8,0.4,1.1,0.6
			c0.2,0.3,0.4,0.6,0.4,1.1c0,0.2,0.1,0.7,0.1,1.4v2c0,1.4,0,2.3,0.1,2.7c0.1,0.4,0.2,0.7,0.4,1.1h-1.7
			C238.3,311,238.3,310.5,238.2,310.1z M238.1,306.7c-0.5,0.2-1.4,0.4-2.4,0.5c-0.6,0.1-1.1,0.2-1.3,0.3s-0.4,0.3-0.6,0.5
			c-0.1,0.2-0.2,0.4-0.2,0.7c0,0.4,0.1,0.7,0.4,1.1c0.3,0.3,0.7,0.4,1.4,0.4c0.5,0,1.1-0.1,1.6-0.4c0.4-0.2,0.7-0.6,1-1.1
			c0.2-0.3,0.2-0.8,0.2-1.5L238.1,306.7L238.1,306.7z"/>
		<path d="M242,300.7V299h1.5v1.7H242z M242,311.3v-8.9h1.5v8.9H242z"/>
		<path d="M245.8,311.3v-8.9h1.4v1.4c0.3-0.6,0.6-1.1,1-1.3s0.6-0.3,1-0.3c0.5,0,1.1,0.2,1.6,0.5l-0.5,1.4c-0.3-0.2-0.7-0.3-1.1-0.3
			c-0.3,0-0.6,0.1-0.8,0.3s-0.4,0.4-0.5,0.8c-0.2,0.5-0.2,1.2-0.2,1.8v4.7h-1.7V311.3z"/>
		<path d="M255.7,308.6l1.5-0.2c0.1,0.6,0.3,1.1,0.7,1.4c0.4,0.3,1,0.5,1.6,0.5c0.7,0,1.2-0.1,1.6-0.4c0.3-0.3,0.5-0.6,0.5-1
			s-0.1-0.6-0.4-0.8c-0.2-0.1-0.7-0.3-1.6-0.5c-1.1-0.3-1.9-0.5-2.3-0.7s-0.7-0.5-1-0.8c-0.2-0.3-0.3-0.7-0.3-1.2
			c0-0.4,0.1-0.7,0.3-1.1s0.4-0.6,0.7-0.8c0.2-0.2,0.5-0.3,1-0.4s0.8-0.2,1.3-0.2c0.7,0,1.3,0.1,1.8,0.3c0.5,0.2,1,0.4,1.2,0.8
			c0.2,0.4,0.4,0.8,0.5,1.4l-1.5,0.2c-0.1-0.4-0.2-0.8-0.6-1.1c-0.3-0.2-0.7-0.4-1.4-0.4c-0.7,0-1.2,0.1-1.5,0.3s-0.4,0.5-0.4,0.8
			c0,0.2,0.1,0.4,0.2,0.5c0.1,0.2,0.3,0.3,0.5,0.4c0.1,0.1,0.6,0.2,1.4,0.4c1.1,0.3,1.8,0.5,2.2,0.7c0.4,0.2,0.7,0.4,1,0.7
			c0.2,0.3,0.3,0.7,0.3,1.3s-0.1,1-0.4,1.4c-0.3,0.4-0.7,0.7-1.3,1.1c-0.5,0.2-1.2,0.3-1.9,0.3c-1.2,0-2-0.2-2.7-0.7
			C256.2,310.2,255.8,309.5,255.7,308.6z"/>
		<path d="M270.8,308l1.5,0.2c-0.2,1.1-0.5,1.8-1.3,2.4c-0.6,0.5-1.5,0.8-2.4,0.8c-1.3,0-2.2-0.4-3-1.2c-0.7-0.8-1.1-1.9-1.1-3.4
			c0-1,0.2-1.8,0.5-2.5c0.3-0.7,0.8-1.3,1.5-1.6s1.4-0.5,2.1-0.5c1,0,1.8,0.2,2.3,0.7c0.6,0.5,1.1,1.2,1.2,2.1l-1.5,0.2
			c-0.1-0.6-0.4-1.1-0.7-1.4s-0.7-0.4-1.3-0.4c-0.7,0-1.4,0.3-1.9,0.8c-0.4,0.5-0.7,1.4-0.7,2.5c0,1.2,0.2,2.1,0.6,2.7
			c0.4,0.5,1.1,0.8,1.8,0.8c0.6,0,1.1-0.2,1.5-0.5C270.4,309.3,270.7,308.7,270.8,308z"/>
		<path d="M273.5,300.7V299h1.5v1.7H273.5z M273.5,311.3v-8.9h1.5v8.9H273.5z"/>
		<path d="M283.4,308.4l1.6,0.2c-0.2,1-0.7,1.6-1.4,2.1c-0.6,0.5-1.5,0.7-2.5,0.7c-1.3,0-2.3-0.4-3.1-1.2c-0.7-0.8-1.2-1.9-1.2-3.4
			c0-1.5,0.4-2.7,1.2-3.5c0.7-0.8,1.8-1.3,3-1.3c1.2,0,2.1,0.4,3,1.2c0.7,0.8,1.2,1.9,1.2,3.4c0,0.1,0,0.2,0,0.4h-6.7
			c0.1,1,0.3,1.7,0.8,2.2s1.2,0.7,1.9,0.7c0.5,0,1.1-0.1,1.4-0.4C282.9,309.5,283.2,309,283.4,308.4z M278.5,305.9h5
			c-0.1-0.7-0.2-1.3-0.5-1.7c-0.5-0.6-1.1-0.8-1.9-0.8c-0.7,0-1.3,0.2-1.8,0.7C278.8,304.5,278.5,305.1,278.5,305.9z"/>
		<path d="M286.9,311.3v-8.9h1.4v1.3c0.6-1,1.6-1.5,2.9-1.5c0.5,0,1.1,0.1,1.5,0.3s0.7,0.4,1.1,0.7c0.2,0.3,0.4,0.6,0.4,1.2
			c0.1,0.3,0.1,0.7,0.1,1.5v5.5h-1.6V306c0-0.6-0.1-1.1-0.2-1.4s-0.3-0.5-0.6-0.7s-0.6-0.3-1.1-0.3c-0.6,0-1.2,0.2-1.7,0.6
			c-0.4,0.4-0.7,1.2-0.7,2.3v4.9h-1.4V311.3z"/>
		<path d="M299.7,309.9l0.2,1.4c-0.4,0.1-0.8,0.1-1.2,0.1c-0.5,0-1-0.1-1.3-0.2c-0.3-0.2-0.5-0.4-0.6-0.6c-0.1-0.3-0.2-0.8-0.2-1.8
			v-5.1h-1.1v-1.2h1.1v-2.2l1.5-1v3.1h1.5v1.2h-1.5v5.2c0,0.4,0,0.7,0.1,0.8c0.1,0.1,0.1,0.2,0.2,0.3c0.1,0.1,0.3,0.1,0.5,0.1
			C299.3,309.9,299.5,309.9,299.7,309.9z"/>
		<path d="M301.3,300.7V299h1.5v1.7H301.3z M301.3,311.3v-8.9h1.5v8.9H301.3z"/>
		<path d="M304.5,308.6l1.5-0.2c0.1,0.6,0.3,1.1,0.7,1.4c0.4,0.3,1,0.5,1.6,0.5c0.7,0,1.2-0.1,1.6-0.4c0.3-0.3,0.5-0.6,0.5-1
			s-0.1-0.6-0.4-0.8c-0.2-0.1-0.7-0.3-1.6-0.5c-1.1-0.3-1.9-0.5-2.3-0.7c-0.4-0.2-0.7-0.5-1-0.8c-0.2-0.3-0.3-0.7-0.3-1.2
			c0-0.4,0.1-0.7,0.3-1.1s0.4-0.6,0.7-0.8c0.2-0.2,0.5-0.3,1-0.4s0.8-0.2,1.3-0.2c0.7,0,1.3,0.1,1.8,0.3c0.5,0.2,1,0.4,1.2,0.8
			c0.2,0.3,0.4,0.8,0.5,1.4l-1.5,0.2c-0.1-0.4-0.2-0.8-0.6-1.1c-0.3-0.2-0.7-0.4-1.4-0.4c-0.7,0-1.2,0.1-1.5,0.3s-0.4,0.5-0.4,0.8
			c0,0.2,0.1,0.4,0.2,0.5c0.1,0.2,0.3,0.3,0.5,0.4c0.1,0.1,0.6,0.2,1.4,0.4c1.1,0.3,1.8,0.5,2.2,0.7s0.7,0.4,1,0.7
			c0.2,0.3,0.3,0.7,0.3,1.3s-0.1,1-0.4,1.4c-0.3,0.4-0.7,0.7-1.3,1.1c-0.5,0.2-1.2,0.3-1.9,0.3c-1.2,0-2-0.2-2.7-0.7
			C305,310.2,304.6,309.5,304.5,308.6z"/>
		<path d="M317,309.9l0.2,1.4c-0.4,0.1-0.8,0.1-1.2,0.1c-0.5,0-1-0.1-1.3-0.2c-0.3-0.2-0.5-0.4-0.6-0.6c-0.1-0.3-0.2-0.8-0.2-1.8
			v-5.1h-1.1v-1.2h1.1v-2.2l1.5-1v3.1h1.5v1.2h-1.5v5.2c0,0.4,0,0.7,0.1,0.8c0.1,0.1,0.1,0.2,0.2,0.3s0.3,0.1,0.5,0.1
			C316.5,309.9,316.7,309.9,317,309.9z"/>
		<path d="M317.8,308.6l1.5-0.2c0.1,0.6,0.3,1.1,0.7,1.4c0.4,0.3,1,0.5,1.6,0.5c0.7,0,1.2-0.1,1.6-0.4c0.3-0.3,0.5-0.6,0.5-1
			s-0.1-0.6-0.4-0.8c-0.2-0.1-0.7-0.3-1.6-0.5c-1.1-0.3-1.9-0.5-2.3-0.7c-0.4-0.2-0.7-0.5-1-0.8c-0.2-0.3-0.3-0.7-0.3-1.2
			c0-0.4,0.1-0.7,0.3-1.1c0.2-0.3,0.4-0.6,0.7-0.8c0.2-0.2,0.5-0.3,1-0.4s0.8-0.2,1.3-0.2c0.7,0,1.3,0.1,1.8,0.3
			c0.5,0.2,1,0.4,1.2,0.8c0.2,0.3,0.4,0.8,0.5,1.4l-1.5,0.2c-0.1-0.4-0.2-0.8-0.6-1.1c-0.3-0.2-0.7-0.4-1.4-0.4
			c-0.7,0-1.2,0.1-1.5,0.3s-0.4,0.5-0.4,0.8c0,0.2,0.1,0.4,0.2,0.5c0.1,0.2,0.3,0.3,0.5,0.4c0.1,0.1,0.6,0.2,1.4,0.4
			c1.1,0.3,1.8,0.5,2.2,0.7s0.7,0.4,1,0.7c0.2,0.3,0.3,0.7,0.3,1.3s-0.1,1-0.4,1.4c-0.3,0.4-0.7,0.7-1.3,1.1
			c-0.5,0.2-1.2,0.3-1.9,0.3c-1.2,0-2-0.2-2.7-0.7C318.4,310.2,318.1,309.5,317.8,308.6z"/>
		<path d="M333.4,311.3l-2.8-8.9h1.6l1.4,5.2l0.5,1.9c0-0.1,0.2-0.7,0.4-1.8l1.4-5.2h1.6l1.4,5.2l0.4,1.7l0.5-1.7l1.5-5.2h1.5
			l-2.8,8.9h-1.6l-1.4-5.3l-0.3-1.5l-1.8,6.9h-1.6V311.3z"/>
		<path d="M344.2,300.7V299h1.5v1.7H344.2z M344.2,311.3v-8.9h1.5v8.9H344.2z"/>
		<path d="M351.3,309.9l0.2,1.4c-0.4,0.1-0.8,0.1-1.2,0.1c-0.5,0-1-0.1-1.3-0.2c-0.3-0.2-0.5-0.4-0.6-0.6c-0.1-0.3-0.2-0.8-0.2-1.8
			v-5.1h-1.1v-1.2h1.1v-2.2l1.5-1v3.1h1.5v1.2h-1.4v5.2c0,0.4,0,0.7,0.1,0.8c0.1,0.1,0.1,0.2,0.2,0.3s0.3,0.1,0.5,0.1
			C350.9,309.9,351.1,309.9,351.3,309.9z"/>
		<path d="M352.8,311.3V299h1.5v4.5c0.7-0.8,1.6-1.3,2.7-1.3c0.6,0,1.3,0.1,1.7,0.4c0.5,0.2,0.8,0.6,1.1,1.1c0.2,0.4,0.3,1.2,0.3,2
			v5.6h-1.5v-5.6c0-0.7-0.2-1.3-0.5-1.7c-0.3-0.3-0.7-0.5-1.4-0.5c-0.4,0-0.8,0.1-1.3,0.3c-0.4,0.2-0.6,0.5-0.8,1s-0.2,1-0.2,1.7
			v4.9C354.3,311.3,352.8,311.3,352.8,311.3z"/>
		<path d="M370.5,309.9l0.2,1.4c-0.4,0.1-0.8,0.1-1.2,0.1c-0.5,0-1-0.1-1.3-0.2c-0.3-0.2-0.5-0.4-0.6-0.6c-0.1-0.3-0.2-0.8-0.2-1.8
			v-5.1h-1.1v-1.2h1.1v-2.2l1.5-1v3.1h1.5v1.2h-1.5v5.2c0,0.4,0,0.7,0.1,0.8c0.1,0.1,0.1,0.2,0.2,0.3c0.1,0.1,0.3,0.1,0.5,0.1
			C370,309.9,370.2,309.9,370.5,309.9z"/>
		<path d="M372,311.3V299h1.5v4.5c0.7-0.8,1.6-1.3,2.7-1.3c0.6,0,1.3,0.1,1.7,0.4c0.5,0.2,0.8,0.6,1.1,1.1c0.2,0.4,0.3,1.2,0.3,2
			v5.6h-1.5v-5.6c0-0.7-0.2-1.3-0.5-1.7c-0.3-0.3-0.7-0.5-1.4-0.5c-0.4,0-0.8,0.1-1.3,0.3c-0.4,0.2-0.6,0.5-0.8,1s-0.2,1-0.2,1.7
			v4.9C373.5,311.3,372,311.3,372,311.3z"/>
		<path d="M387.6,308.4l1.6,0.2c-0.2,1-0.7,1.6-1.4,2.1c-0.6,0.5-1.5,0.7-2.5,0.7c-1.3,0-2.3-0.4-3.1-1.2c-0.7-0.8-1.2-1.9-1.2-3.4
			c0-1.5,0.4-2.7,1.2-3.5c0.7-0.8,1.8-1.3,3-1.3s2.1,0.4,3,1.2c0.7,0.8,1.2,1.9,1.2,3.4c0,0.1,0,0.2,0,0.4h-6.7
			c0.1,1,0.3,1.7,0.8,2.2c0.5,0.5,1.2,0.7,1.9,0.7c0.5,0,1.1-0.1,1.4-0.4C387.1,309.5,387.4,309,387.6,308.4z M382.7,305.9h5
			c-0.1-0.7-0.2-1.3-0.5-1.7c-0.5-0.6-1.1-0.8-1.9-0.8c-0.7,0-1.3,0.2-1.8,0.7C382.9,304.5,382.7,305.1,382.7,305.9z"/>
		<path d="M397.3,311.3h-1.4V299h1.5v4.3c0.6-0.8,1.5-1.2,2.4-1.2c0.5,0,1.1,0.1,1.6,0.3c0.5,0.2,0.8,0.5,1.2,1
			c0.3,0.4,0.5,0.8,0.7,1.5c0.2,0.5,0.3,1.2,0.3,1.8c0,1.5-0.4,2.8-1.2,3.5c-0.7,0.8-1.7,1.3-2.8,1.3c-1.1,0-1.9-0.4-2.4-1.3V311.3z
			 M397.3,306.7c0,1.1,0.1,1.8,0.4,2.3c0.4,0.7,1.2,1.2,1.9,1.2c0.6,0,1.3-0.3,1.7-0.8c0.5-0.5,0.7-1.4,0.7-2.5c0-1.2-0.2-2-0.7-2.5
			c-0.4-0.5-1.1-0.8-1.7-0.8c-0.6,0-1.3,0.3-1.7,0.8C397.5,304.8,397.3,305.7,397.3,306.7z"/>
		<path d="M411.6,308.4l1.6,0.2c-0.2,1-0.7,1.6-1.4,2.1c-0.6,0.5-1.5,0.7-2.5,0.7c-1.3,0-2.3-0.4-3.1-1.2c-0.7-0.8-1.2-1.9-1.2-3.4
			c0-1.5,0.4-2.7,1.2-3.5c0.7-0.8,1.8-1.3,3-1.3c1.2,0,2.1,0.4,3,1.2c0.7,0.8,1.2,1.9,1.2,3.4c0,0.1,0,0.2,0,0.4h-6.7
			c0.1,1,0.3,1.7,0.8,2.2s1.2,0.7,1.9,0.7c0.5,0,1.1-0.1,1.4-0.4C411,309.5,411.4,309,411.6,308.4z M406.6,305.9h5
			c-0.1-0.7-0.2-1.3-0.5-1.7c-0.5-0.6-1.1-0.8-1.9-0.8c-0.7,0-1.3,0.2-1.8,0.7C406.9,304.5,406.7,305.1,406.6,305.9z"/>
		<path d="M414.4,308.6l1.5-0.2c0.1,0.6,0.3,1.1,0.7,1.4c0.4,0.3,1,0.5,1.6,0.5c0.7,0,1.2-0.1,1.6-0.4c0.3-0.3,0.5-0.6,0.5-1
			s-0.1-0.6-0.4-0.8c-0.2-0.1-0.7-0.3-1.6-0.5c-1.1-0.3-1.9-0.5-2.3-0.7c-0.4-0.2-0.7-0.5-1-0.8c-0.2-0.3-0.3-0.7-0.3-1.2
			c0-0.4,0.1-0.7,0.3-1.1c0.2-0.3,0.4-0.6,0.7-0.8c0.2-0.2,0.5-0.3,1-0.4s0.8-0.2,1.3-0.2c0.7,0,1.3,0.1,1.8,0.3
			c0.5,0.2,1,0.4,1.2,0.8c0.2,0.3,0.4,0.8,0.5,1.4l-1.5,0.2c-0.1-0.4-0.2-0.8-0.6-1.1c-0.3-0.2-0.7-0.4-1.4-0.4
			c-0.7,0-1.2,0.1-1.5,0.3c-0.3,0.2-0.4,0.5-0.4,0.8c0,0.2,0.1,0.4,0.2,0.5c0.1,0.2,0.3,0.3,0.5,0.4c0.1,0.1,0.6,0.2,1.4,0.4
			c1.1,0.3,1.8,0.5,2.2,0.7s0.7,0.4,1,0.7c0.2,0.3,0.3,0.7,0.3,1.3s-0.1,1-0.4,1.4c-0.3,0.4-0.7,0.7-1.3,1.1
			c-0.5,0.2-1.2,0.3-1.9,0.3c-1.2,0-2-0.2-2.7-0.7C415,310.2,414.5,309.5,414.4,308.6z"/>
		<path d="M426.9,309.9l0.2,1.4c-0.4,0.1-0.8,0.1-1.2,0.1c-0.5,0-1-0.1-1.3-0.2c-0.3-0.2-0.5-0.4-0.6-0.6c-0.1-0.3-0.2-0.8-0.2-1.8
			v-5.1h-1.1v-1.2h1.1v-2.2l1.5-1v3.1h1.5v1.2h-1.5v5.2c0,0.4,0,0.7,0.1,0.8c0.1,0.1,0.1,0.2,0.2,0.3c0.1,0.1,0.3,0.1,0.5,0.1
			C426.4,309.9,426.6,309.9,426.9,309.9z"/>
		<path d="M433.2,311.3v-8.9h1.4v1.4c0.3-0.6,0.6-1.1,1-1.3s0.6-0.3,1-0.3c0.5,0,1.1,0.2,1.6,0.5l-0.5,1.4c-0.3-0.2-0.7-0.3-1.1-0.3
			s-0.6,0.1-0.8,0.3s-0.4,0.4-0.5,0.8c-0.2,0.5-0.2,1.2-0.2,1.8v4.7h-1.7V311.3z"/>
		<path d="M445,308.4l1.6,0.2c-0.2,1-0.7,1.6-1.4,2.1c-0.6,0.5-1.5,0.7-2.5,0.7c-1.3,0-2.3-0.4-3.1-1.2c-0.7-0.8-1.2-1.9-1.2-3.4
			c0-1.5,0.4-2.7,1.2-3.5c0.7-0.8,1.8-1.3,3-1.3s2.1,0.4,3,1.2c0.7,0.8,1.2,1.9,1.2,3.4c0,0.1,0,0.2,0,0.4H440
			c0.1,1,0.3,1.7,0.8,2.2c0.5,0.5,1.2,0.7,1.9,0.7c0.5,0,1.1-0.1,1.4-0.4C444.4,309.5,444.8,309,445,308.4z M440.1,305.9h5
			c-0.1-0.7-0.2-1.3-0.5-1.7c-0.5-0.6-1.1-0.8-1.9-0.8c-0.7,0-1.3,0.2-1.8,0.7C440.4,304.5,440.1,305.1,440.1,305.9z"/>
		<path d="M454.3,310.1c-0.5,0.4-1.1,0.8-1.6,1.1s-1.1,0.3-1.7,0.3c-1,0-1.7-0.2-2.2-0.7c-0.5-0.5-0.7-1.1-0.7-1.8
			c0-0.4,0.1-0.8,0.3-1.2c0.2-0.3,0.4-0.6,0.7-0.8c0.3-0.2,0.6-0.4,1.1-0.5c0.3-0.1,0.7-0.1,1.4-0.2c1.3-0.1,2.1-0.3,2.7-0.5
			c0-0.2,0-0.3,0-0.4c0-0.6-0.1-1.1-0.4-1.3c-0.4-0.3-1-0.5-1.7-0.5c-0.7,0-1.3,0.1-1.6,0.4c-0.3,0.2-0.6,0.7-0.7,1.3l-1.5-0.2
			c0.1-0.6,0.3-1.2,0.6-1.5c0.3-0.4,0.7-0.7,1.4-0.8c0.5-0.2,1.3-0.3,2-0.3c0.7,0,1.4,0.1,1.9,0.3c0.4,0.2,0.8,0.4,1.1,0.6
			c0.2,0.3,0.4,0.6,0.4,1.1c0,0.2,0.1,0.7,0.1,1.4v2c0,1.4,0,2.3,0.1,2.7c0.1,0.4,0.2,0.7,0.4,1.1h-1.6
			C454.4,311,454.3,310.5,454.3,310.1z M454.2,306.7c-0.5,0.2-1.4,0.4-2.4,0.5c-0.6,0.1-1.1,0.2-1.3,0.3c-0.2,0.1-0.4,0.3-0.6,0.5
			c-0.1,0.2-0.2,0.4-0.2,0.7c0,0.4,0.1,0.7,0.4,1.1c0.3,0.3,0.7,0.4,1.4,0.4c0.5,0,1.1-0.1,1.6-0.4c0.4-0.2,0.7-0.6,1-1.1
			c0.2-0.3,0.2-0.8,0.2-1.5L454.2,306.7L454.2,306.7z"/>
		<path d="M457.8,312l1.5,0.2c0.1,0.4,0.2,0.7,0.5,1c0.4,0.3,0.8,0.4,1.5,0.4c0.7,0,1.3-0.1,1.6-0.4c0.4-0.3,0.6-0.6,0.7-1.2
			c0.1-0.3,0.1-1,0.1-1.9c-0.6,0.7-1.5,1.2-2.4,1.2c-1.3,0-2.2-0.4-2.9-1.4c-0.6-0.8-1.1-1.9-1.1-3.2c0-0.8,0.1-1.6,0.4-2.3
			c0.3-0.7,0.7-1.3,1.4-1.7c0.6-0.4,1.3-0.6,2-0.6c1.1,0,1.9,0.4,2.7,1.3v-1.1h1.4v7.7c0,1.4-0.1,2.3-0.4,3
			c-0.3,0.5-0.7,1.1-1.4,1.4s-1.4,0.5-2.2,0.5c-1.1,0-1.9-0.2-2.5-0.7C458,313.6,457.7,313,457.8,312z M459,306.6
			c0,1.2,0.2,2,0.7,2.5c0.5,0.5,1.1,0.8,1.7,0.8c0.7,0,1.3-0.3,1.7-0.8s0.7-1.4,0.7-2.5c0-1.1-0.2-1.9-0.7-2.4
			c-0.5-0.5-1.1-0.8-1.8-0.8c-0.6,0-1.3,0.3-1.7,0.8C459.3,304.7,459,305.5,459,306.6z"/>
		<path d="M473.7,308.4l1.6,0.2c-0.2,1-0.7,1.6-1.4,2.1c-0.6,0.5-1.5,0.7-2.5,0.7c-1.3,0-2.3-0.4-3.1-1.2c-0.7-0.8-1.2-1.9-1.2-3.4
			c0-1.5,0.4-2.7,1.2-3.5c0.7-0.8,1.8-1.3,3-1.3c1.2,0,2.1,0.4,3,1.2c0.7,0.8,1.2,1.9,1.2,3.4c0,0.1,0,0.2,0,0.4h-6.7
			c0.1,1,0.3,1.7,0.8,2.2s1.2,0.7,1.9,0.7c0.5,0,1.1-0.1,1.4-0.4C473.2,309.5,473.5,309,473.7,308.4z M468.7,305.9h5
			c-0.1-0.7-0.2-1.3-0.5-1.7c-0.5-0.6-1.1-0.8-1.9-0.8c-0.7,0-1.3,0.2-1.8,0.7C469,304.5,468.8,305.1,468.7,305.9z"/>
		<path d="M477.2,311.3v-8.9h1.4v1.3c0.6-1,1.6-1.5,2.9-1.5c0.5,0,1.1,0.1,1.5,0.3s0.7,0.4,1.1,0.7c0.2,0.3,0.4,0.6,0.4,1.2
			c0.1,0.3,0.1,0.7,0.1,1.5v5.5H483V306c0-0.6-0.1-1.1-0.2-1.4s-0.3-0.5-0.6-0.7c-0.3-0.2-0.6-0.3-1.1-0.3c-0.6,0-1.2,0.2-1.7,0.6
			c-0.4,0.4-0.7,1.2-0.7,2.3v4.9h-1.5V311.3z"/>
		<path d="M490,309.9l0.2,1.4c-0.4,0.1-0.8,0.1-1.2,0.1c-0.5,0-1-0.1-1.3-0.2c-0.3-0.2-0.5-0.4-0.6-0.6c-0.1-0.3-0.2-0.8-0.2-1.8
			v-5.1h-1.1v-1.2h1.1v-2.2l1.5-1v3.1h1.5v1.2h-1.5v5.2c0,0.4,0,0.7,0.1,0.8c0.1,0.1,0.1,0.2,0.2,0.3s0.3,0.1,0.5,0.1
			C489.5,309.9,489.8,309.9,490,309.9z"/>
		<path d="M490.9,308.6l1.5-0.2c0.1,0.6,0.3,1.1,0.7,1.4c0.4,0.3,1,0.5,1.6,0.5c0.7,0,1.2-0.1,1.6-0.4c0.3-0.3,0.5-0.6,0.5-1
			s-0.1-0.6-0.4-0.8c-0.2-0.1-0.7-0.3-1.6-0.5c-1.1-0.3-1.9-0.5-2.3-0.7c-0.4-0.2-0.7-0.5-1-0.8c-0.2-0.3-0.3-0.7-0.3-1.2
			c0-0.4,0.1-0.7,0.3-1.1s0.4-0.6,0.7-0.8c0.2-0.2,0.5-0.3,1-0.4s0.8-0.2,1.3-0.2c0.7,0,1.3,0.1,1.8,0.3c0.5,0.2,1,0.4,1.2,0.8
			c0.2,0.3,0.4,0.8,0.5,1.4l-1.5,0.2c-0.1-0.4-0.2-0.8-0.6-1.1c-0.3-0.2-0.7-0.4-1.4-0.4c-0.7,0-1.2,0.1-1.5,0.3
			c-0.3,0.2-0.4,0.5-0.4,0.8c0,0.2,0.1,0.4,0.2,0.5c0.1,0.2,0.3,0.3,0.5,0.4c0.1,0.1,0.6,0.2,1.4,0.4c1.1,0.3,1.8,0.5,2.2,0.7
			s0.7,0.4,1,0.7c0.2,0.3,0.3,0.7,0.3,1.3s-0.1,1-0.4,1.4c-0.3,0.4-0.7,0.7-1.3,1.1c-0.5,0.2-1.2,0.3-1.9,0.3c-1.2,0-2-0.2-2.7-0.7
			C491.5,310.2,491.1,309.5,490.9,308.6z"/>
	</g>
	<path fill="#9E4777" d="M205.4,272.5c0,1.8-0.7,3.4-2.2,4.6c-1.5,1.2-3.4,1.7-5.7,1.7c-2.4,0-4.8-0.4-6.9-1.4
		c-0.3-0.2-0.6-0.4-0.8-0.7c-0.3-0.3-0.4-0.7-0.4-1.3s0.2-1,0.5-1.4c0.4-0.5,1-0.6,1.4-0.6c0.4,0,0.8,0.1,1.4,0.3
		c0.2,0.1,0.7,0.3,1.8,0.5c0.8,0.2,1.8,0.3,2.9,0.3c3.9,0,3.9-1.7,3.9-2.2c0-0.2,0-0.7-1.3-1.3c-0.4-0.2-1.1-0.4-1.7-0.5
		c-0.7-0.2-1.5-0.3-2.1-0.5c-0.7-0.2-1.5-0.4-2.2-0.7c-0.7-0.3-1.5-0.6-2.1-1.1c-1.5-1.1-2.2-2.5-2.2-4.3c0-1.9,0.7-3.4,2.1-4.7
		c1.5-1.3,3.5-1.9,5.8-1.9c2.1,0,4,0.3,5.7,1c0.8,0.3,1.4,1.1,1.4,1.9c0,0.4-0.2,1-0.4,1.4c-0.4,0.6-1,0.7-1.4,0.7
		c-0.3,0-0.7-0.1-1.3-0.3c-1.1-0.4-2.3-0.5-3.8-0.5c-1.3,0-2.2,0.2-3.1,0.6c-0.6,0.4-1,0.8-1,1.6c0,0.4,0.1,1.1,1.3,1.6
		c0.5,0.2,1.1,0.4,1.7,0.5c0.7,0.2,1.4,0.3,2.1,0.5c0.7,0.2,1.5,0.4,2.2,0.6c0.7,0.3,1.5,0.6,2.1,1.1
		C204.6,269.1,205.4,270.6,205.4,272.5z M235.5,261.9c1.7-0.6,4-0.6,5.4-0.2c0.7,0.2,1.4,0.5,2.1,0.8c0.6,0.3,1.7,0.3,2.3-0.4
		c0.3-0.4,0.5-0.8,0.5-1.3s-0.1-0.8-0.3-1.2s-0.6-0.6-1.3-1c-0.5-0.3-1.4-0.6-2.4-1c-1.1-0.3-2.3-0.5-3.8-0.5c-3.1,0-5.5,1-7.5,2.9
		c-2,1.9-3,4.6-3,7.8c0,3.3,1.1,5.9,3,7.8c1,1,2.1,1.7,3.4,2.1c1.3,0.5,2.7,0.7,4.1,0.7s2.8-0.2,3.8-0.5c1.1-0.3,2-0.7,2.9-1.3
		c0.7-0.3,1.1-1.1,1.1-1.8c0-0.5-0.2-1-0.5-1.4c-0.6-0.7-1.7-0.7-2.3-0.4c-0.6,0.3-1.4,0.6-2.1,0.8c-0.6,0.2-1.5,0.3-2.5,0.3
		c-2.1,0-3.7-0.6-4.9-1.9c-1.1-1.2-1.6-2.8-1.6-4.7c0-2,0.5-3.5,1.6-4.7C234,262.7,234.7,262.3,235.5,261.9z M269.8,258.1
		c-0.4,0.4-0.6,1-0.6,1.5v17c0,0.6,0.2,1.1,0.6,1.5c0.4,0.4,1,0.6,1.5,0.6s1.1-0.2,1.5-0.6c0.4-0.4,0.6-1,0.6-1.5v-17
		c0-0.5-0.2-1.1-0.6-1.5C272,257.2,270.7,257.2,269.8,258.1z M313.2,258.1c-0.4,0.4-0.6,1-0.6,1.5v12l-9-12.9
		c-0.7-1-1.6-1.2-2.2-1.2H301c-0.7,0-1.4,0.3-1.9,0.8s-0.7,1.2-0.7,1.9v16.4c0,0.6,0.2,1.1,0.6,1.5c0.8,0.8,2.2,0.8,3,0
		c0.4-0.4,0.6-1,0.6-1.5v-12.2l9,13c0.5,0.7,1.3,1.1,2.1,1.1h0.3c0.7,0,1.4-0.3,1.9-0.7c0.5-0.5,0.8-1.2,0.8-1.9v-16.3
		c0-0.5-0.2-1.1-0.6-1.5C315.4,257.2,314,257.2,313.2,258.1z M359.1,275.5c0.1,0.3,0.2,0.7,0.2,1.1c0,0.5-0.2,1-0.5,1.4
		c-0.4,0.4-1,0.6-1.7,0.6c-0.8,0-1.5-0.4-1.9-1.3l-1.6-3.7h-8.2l-1.6,3.7c-0.3,0.8-1.1,1.3-1.9,1.3c-0.7,0-1.3-0.2-1.7-0.6
		c-0.4-0.4-0.5-0.8-0.5-1.4c0-0.3,0.1-0.7,0.2-1.1l7-16.5c0.4-1.1,1.4-1.7,2.4-1.7h0.3c1.1,0,1.9,0.6,2.4,1.7L359.1,275.5z
		 M351.9,269.5l-2.3-5.7l-2.3,5.7H351.9z M396.9,259.7c1.3,1.3,1.8,2.9,1.8,4.8c0,1.9-0.6,3.5-1.8,4.8c-1.5,1.5-3.6,2.2-6.4,2.2
		h-4.1v5c0,0.6-0.2,1.2-0.6,1.5c-0.4,0.4-1,0.6-1.5,0.6c-0.5,0-1.1-0.2-1.5-0.6s-0.6-1-0.6-1.5v-16.9c0-0.5,0.2-1.1,0.6-1.5
		c0.4-0.4,1-0.6,1.5-0.6h6.3C393.3,257.5,395.5,258.3,396.9,259.7z M392.6,262c-0.5-0.2-1.3-0.3-2.2-0.3h-3.8v5.7h3.8
		c1.6,0,2.9-0.3,3.5-1c0.5-0.4,0.7-1.1,0.7-1.9C394.5,263.1,393.9,262.4,392.6,262z M434.6,268c-0.6-0.4-1.3-0.8-2.1-1.1
		c-0.7-0.2-1.5-0.5-2.2-0.6c-0.7-0.2-1.5-0.3-2.1-0.5c-0.6-0.1-1.2-0.3-1.7-0.5c-1.2-0.5-1.3-1.1-1.3-1.6c0-0.7,0.3-1.2,1-1.6
		c0.7-0.4,1.8-0.6,3.1-0.6c1.4,0,2.8,0.2,3.8,0.5c0.5,0.2,1,0.3,1.3,0.3c0.3,0,0.8-0.1,1.4-0.7c0.3-0.4,0.4-0.8,0.4-1.4
		c0-1-0.5-1.6-1.4-1.9c-1.7-0.6-3.7-1-5.7-1c-2.4,0-4.3,0.6-5.8,1.9c-1.4,1.2-2.1,2.8-2.1,4.7c0,1.8,0.7,3.3,2.2,4.3
		c0.6,0.4,1.3,0.8,2.1,1.1c0.7,0.3,1.5,0.5,2.2,0.7s1.5,0.4,2.1,0.5c0.6,0.2,1.3,0.3,1.7,0.5c1.3,0.5,1.3,1.2,1.3,1.3
		c0,0.6,0,2.2-3.9,2.2c-1.1,0-2.1-0.1-2.9-0.3c-1.1-0.3-1.6-0.4-1.8-0.5c-0.5-0.2-1-0.3-1.4-0.3c-0.3,0-0.8,0.1-1.4,0.6
		c-0.3,0.4-0.5,0.8-0.5,1.4s0.1,1,0.4,1.3c0.2,0.3,0.5,0.5,0.8,0.7c2.1,1,4.5,1.4,6.9,1.4c2.3,0,4.2-0.5,5.7-1.7
		c1.5-1.2,2.2-2.7,2.2-4.6C436.7,270.6,436,269.1,434.6,268z M460.7,258.1c-0.4,0.4-0.6,1-0.6,1.5v17c0,0.6,0.2,1.1,0.6,1.5
		c0.4,0.4,1,0.6,1.5,0.6c0.5,0,1.1-0.2,1.5-0.6c0.4-0.4,0.6-1,0.6-1.5v-17c0-0.5-0.2-1.1-0.6-1.5
		C462.9,257.2,461.5,257.2,460.7,258.1z M501.9,268c-0.6-0.4-1.3-0.8-2.1-1.1c-0.7-0.2-1.5-0.5-2.2-0.6c-0.7-0.2-1.5-0.3-2.1-0.5
		c-0.6-0.1-1.2-0.3-1.7-0.5c-1.2-0.5-1.3-1.1-1.3-1.6c0-0.7,0.3-1.2,1-1.6c0.7-0.4,1.8-0.6,3.1-0.6c1.4,0,2.8,0.2,3.8,0.5
		c0.5,0.2,1,0.3,1.3,0.3c0.3,0,0.8-0.1,1.4-0.7c0.3-0.4,0.4-0.8,0.4-1.4c0-1-0.5-1.6-1.4-1.9c-1.7-0.6-3.7-1-5.7-1
		c-2.4,0-4.3,0.6-5.8,1.9c-1.4,1.2-2.1,2.8-2.1,4.7c0,1.8,0.7,3.3,2.2,4.3c0.6,0.4,1.3,0.8,2.1,1.1c0.7,0.3,1.5,0.5,2.2,0.7
		c0.7,0.2,1.5,0.4,2.1,0.5c0.6,0.2,1.3,0.3,1.7,0.5c1.3,0.5,1.3,1.2,1.3,1.3c0,0.6,0,2.2-3.9,2.2c-1.1,0-2.1-0.1-2.9-0.3
		c-1.1-0.3-1.6-0.4-1.8-0.5c-0.5-0.2-1-0.3-1.4-0.3c-0.3,0-0.8,0.1-1.4,0.6c-0.3,0.4-0.5,0.8-0.5,1.4s0.1,1,0.4,1.3
		c0.2,0.3,0.5,0.5,0.8,0.7c2.1,1,4.5,1.4,6.9,1.4c2.3,0,4.2-0.5,5.7-1.7c1.5-1.2,2.2-2.7,2.2-4.6C504.1,270.6,503.4,269.1,501.9,268
		z M148.1,224.9c0,6.7-5.4,12-12,12c-1.4,0-2.8-0.2-4-0.7l-32.2,65.3c3.1,2.2,5.1,5.7,5.1,9.8c0,6.7-5.4,12-12,12
		c-6.7,0-12-5.4-12-12c0-6.7,5.4-12,12-12c1.4,0,2.8,0.2,4,0.7l32.2-65.3c-3.1-2.2-5.1-5.7-5.1-9.8c0-6.7,5.4-12,12-12
		C142.7,212.9,148.1,218.2,148.1,224.9z M92.9,302.5c-4.8,0-8.7,3.9-8.7,8.7s3.9,8.7,8.7,8.7c4.8,0,8.7-3.9,8.7-8.7
		C101.6,306.4,97.6,302.5,92.9,302.5z M144.8,224.9c0-4.8-3.9-8.7-8.7-8.7s-8.7,3.9-8.7,8.7s3.9,8.7,8.7,8.7
		C140.9,233.6,144.8,229.6,144.8,224.9z M49.7,220.1c-2.7,0-4.8,2.1-4.8,4.8c0,2.7,2.1,4.8,4.8,4.8c2.7,0,4.8-2.1,4.8-4.8
		C54.5,222.2,52.4,220.1,49.7,220.1z M92.9,229.6c2.7,0,4.8-2.1,4.8-4.8c0-2.7-2.1-4.8-4.8-4.8s-4.8,2.1-4.8,4.8
		C88.1,227.5,90.2,229.6,92.9,229.6z M49.7,263.2c-2.7,0-4.8,2.1-4.8,4.8c0,2.7,2.1,4.8,4.8,4.8c2.7,0,4.8-2.1,4.8-4.8
		C54.5,265.4,52.4,263.2,49.7,263.2z M92.9,272.9c2.7,0,4.8-2.1,4.8-4.8c0-2.7-2.1-4.8-4.8-4.8s-4.8,2.1-4.8,4.8
		C88.1,270.7,90.2,272.9,92.9,272.9z M136,263.2c-2.7,0-4.8,2.1-4.8,4.8c0,2.7,2.1,4.8,4.8,4.8c2.7,0,4.8-2.1,4.8-4.8
		C140.9,265.4,138.7,263.2,136,263.2z M49.7,306.4c-2.7,0-4.8,2.1-4.8,4.8s2.1,4.8,4.8,4.8c2.7,0,4.8-2.1,4.8-4.8
		C54.5,308.6,52.4,306.4,49.7,306.4z M136,306.4c-2.7,0-4.8,2.1-4.8,4.8s2.1,4.8,4.8,4.8c2.7,0,4.8-2.1,4.8-4.8
		C140.9,308.6,138.7,306.4,136,306.4z"/>
</g>
</svg>
