<?xml version="1.0" encoding="utf-8"?>
<!-- Generator: Adobe Illustrator 16.0.0, SVG Export Plug-In . SVG Version: 6.00 Build 0)  -->
<!DOCTYPE svg PUBLIC "-//W3C//DTD SVG 1.1//EN" "http://www.w3.org/Graphics/SVG/1.1/DTD/svg11.dtd">
<svg version="1.1"
	 id="svg2" xmlns:dc="http://purl.org/dc/elements/1.1/" xmlns:cc="http://creativecommons.org/ns#" xmlns:rdf="http://www.w3.org/1999/02/22-rdf-syntax-ns#" xmlns:svg="http://www.w3.org/2000/svg"
	 xmlns="http://www.w3.org/2000/svg" xmlns:xlink="http://www.w3.org/1999/xlink" x="0px" y="0px" width="152.433px"
	 height="651.666px" viewBox="266.734 -206.333 152.433 651.666" enable-background="new 266.734 -206.333 152.433 651.666"
	 xml:space="preserve">
<g id="g10" transform="matrix(1.3333333,0,0,-1.3333333,0,213.33333)">
	<g id="g12" transform="scale(0.1)">
		<path id="path14" fill="#382751" d="M2163.794,2652.95c-32.633-16.165-45.981-55.708-29.813-88.33
			c16.161-32.622,55.715-45.981,88.341-29.817c32.622,16.165,45.967,55.73,29.802,88.337
			C2235.96,2655.777,2196.405,2669.107,2163.794,2652.95"/>
		<path id="path16" fill="#382751" d="M2167.12,3563.72c-32.622-16.161-45.963-55.704-29.802-88.334
			c16.172-32.629,55.715-45.97,88.33-29.802c32.633,16.161,45.985,55.708,29.82,88.337
			C2239.3,3566.547,2199.752,3579.885,2167.12,3563.72"/>
		<path id="path88" fill="#9B3478" d="M2270.12,3541.187c-20.142,40.657-69.609,57.338-110.255,37.204
			c-40.66-20.149-57.356-69.603-37.21-110.259c20.142-40.664,69.605-57.353,110.27-37.204
			C2273.57,3451.059,2290.269,3500.52,2270.12,3541.187z M2156.529,2667.598c-40.657-20.142-57.338-69.595-37.196-110.244
			c20.138-40.649,69.587-57.349,110.248-37.192c40.642,20.134,57.337,69.595,37.196,110.244
			C2246.642,2671.048,2197.178,2687.74,2156.529,2667.598z M2298.043,3555.027c27.773-56.063,4.775-124.252-51.284-152.025
			c-11.953-5.922-24.459-9.4-37.009-10.884l1.11-686.353c35.021-5.618,66.929-27.393,83.836-61.531
			c27.773-56.06,4.768-124.226-51.292-152c-56.052-27.773-124.237-4.775-152.01,51.284c-27.77,56.06-4.757,124.233,51.302,152.007
			c11.942,5.911,24.445,9.397,36.987,10.884l-1.117,686.345c-35.021,5.629-66.933,27.419-83.837,61.531
			c-27.777,56.066-4.753,124.252,51.306,152.025C2202.093,3634.081,2270.267,3611.079,2298.043,3555.027z"/>
	</g>
</g>
<g id="g10_2_" transform="matrix(1.3333333,0,0,-1.3333333,0,213.33333)">
	<g id="g12_2_" transform="scale(0.1)">
		<path id="path14_2_" fill="#382751" d="M2493.791,1478.647c-32.629-16.165-45.981-55.708-29.81-88.33
			c16.157-32.622,55.715-45.981,88.345-29.817c32.622,16.165,45.967,55.73,29.795,88.337
			C2565.964,1481.475,2526.406,1494.805,2493.791,1478.647"/>
		<path id="path16_2_" fill="#382751" d="M2497.116,2389.417c-32.622-16.161-45.959-55.704-29.795-88.333
			c16.172-32.629,55.708-45.971,88.33-29.802c32.629,16.161,45.981,55.708,29.817,88.337
			C2569.303,2392.245,2529.753,2405.582,2497.116,2389.417"/>
		<path id="path88_2_" fill="#9B3478" d="M2600.124,2366.885c-20.142,40.657-69.609,57.337-110.259,37.203
			c-40.664-20.149-57.356-69.602-37.207-110.259c20.142-40.664,69.602-57.352,110.266-37.203
			C2603.566,2276.756,2620.265,2326.217,2600.124,2366.885z M2486.525,1493.296c-40.649-20.142-57.334-69.595-37.192-110.244
			s69.587-57.349,110.244-37.192c40.649,20.134,57.341,69.595,37.2,110.244C2576.642,1496.746,2527.175,1513.438,2486.525,1493.296z
			 M2628.044,2380.724c27.773-56.063,4.775-124.251-51.284-152.025c-11.953-5.922-24.463-9.401-37.009-10.884l1.106-686.353
			c35.024-5.618,66.929-27.393,83.84-61.531c27.773-56.06,4.768-124.226-51.292-152c-56.052-27.773-124.233-4.775-152.01,51.284
			c-27.77,56.06-4.757,124.233,51.302,152.007c11.938,5.911,24.448,9.397,36.987,10.884l-1.113,686.345
			c-35.024,5.628-66.936,27.418-83.84,61.531c-27.777,56.067-4.753,124.251,51.306,152.025
			C2532.096,2459.778,2600.27,2436.776,2628.044,2380.724z"/>
	</g>
</g>
<g id="g10_3_" transform="matrix(1.3333333,0,0,-1.3333333,0,213.33333)">
	<g id="g12_3_" transform="scale(0.1)">
		<path id="path14_3_" fill="#382751" d="M2840.043-349.624c-32.629-16.165-45.981-55.708-29.81-88.33
			c16.157-32.622,55.715-45.981,88.345-29.817c32.622,16.165,45.967,55.73,29.795,88.337
			C2912.216-346.797,2872.658-333.467,2840.043-349.624"/>
		<path id="path16_3_" fill="#382751" d="M2843.369,561.143c-32.622-16.157-45.959-55.701-29.795-88.33
			c16.172-32.629,55.708-45.967,88.33-29.802c32.629,16.165,45.981,55.708,29.817,88.337
			C2915.556,563.97,2876.005,577.314,2843.369,561.143"/>
		<path id="path88_3_" fill="#9B3478" d="M2946.376,538.613c-20.142,40.657-69.609,57.334-110.259,37.207
			c-40.664-20.156-57.356-69.609-37.207-110.259c20.142-40.664,69.602-57.356,110.266-37.207
			C2949.819,448.481,2966.518,497.949,2946.376,538.613z M2832.778-334.976c-40.649-20.142-57.334-69.595-37.192-110.244
			s69.587-57.349,110.244-37.192c40.649,20.134,57.341,69.595,37.2,110.244C2922.895-331.526,2873.427-314.834,2832.778-334.976z
			 M2974.296,552.456c27.773-56.067,4.775-124.255-51.284-152.029c-11.953-5.925-24.463-9.397-37.009-10.884l1.106-686.353
			c35.024-5.618,66.929-27.393,83.84-61.531c27.773-56.06,4.768-124.226-51.292-152c-56.052-27.773-124.233-4.775-152.007,51.284
			s-4.761,124.233,51.299,152.007c11.938,5.911,24.448,9.397,36.987,10.884l-1.113,686.345
			c-35.024,5.625-66.936,27.422-83.84,61.531c-27.781,56.067-4.753,124.255,51.306,152.029
			C2878.349,631.506,2946.523,608.501,2974.296,552.456z"/>
	</g>
</g>
<g id="g10_4_" transform="matrix(1.3333333,0,0,-1.3333333,0,213.33333)">
	<g id="g12_4_" transform="scale(0.1)">
		<path id="path14_4_" fill="#382751" d="M2116.297-260.261c-32.633-16.165-45.981-55.708-29.813-88.33
			c16.161-32.622,55.715-45.981,88.345-29.817c32.622,16.165,45.967,55.73,29.795,88.337
			C2188.466-257.434,2148.908-244.104,2116.297-260.261"/>
		<path id="path16_4_" fill="#382751" d="M2119.622,650.513c-32.622-16.165-45.963-55.708-29.802-88.337
			c16.172-32.629,55.715-45.974,88.334-29.802c32.629,16.157,45.981,55.708,29.817,88.337S2152.255,666.67,2119.622,650.513"/>
		<path id="path88_4_" fill="#9B3478" d="M2222.626,627.977c-20.142,40.657-69.609,57.341-110.259,37.2
			c-40.661-20.142-57.356-69.595-37.211-110.259c20.142-40.664,69.606-57.349,110.27-37.2
			C2226.069,537.852,2242.768,587.305,2222.626,627.977z M2109.031-245.612c-40.657-20.142-57.337-69.595-37.196-110.244
			c20.138-40.649,69.587-57.349,110.244-37.192c40.649,20.134,57.341,69.595,37.2,110.244
			C2199.145-242.163,2149.677-225.471,2109.031-245.612z M2250.546,641.812c27.773-56.06,4.775-124.248-51.284-152.021
			c-11.953-5.918-24.463-9.404-37.009-10.884l1.106-686.353c35.024-5.618,66.929-27.393,83.84-61.531
			c27.773-56.06,4.768-124.226-51.292-152c-56.052-27.773-124.237-4.775-152.011,51.284c-27.77,56.06-4.757,124.233,51.303,152.007
			c11.942,5.911,24.444,9.397,36.987,10.884l-1.117,686.345c-35.021,5.632-66.932,27.415-83.837,61.531
			c-27.777,56.067-4.753,124.248,51.306,152.021C2154.599,720.87,2222.773,697.872,2250.546,641.812z"/>
	</g>
</g>
<g id="g10_5_" transform="matrix(1.3333333,0,0,-1.3333333,0,213.33333)">
	<g id="g12_5_" transform="scale(0.1)">
		<path id="path14_5_" fill="#382751" d="M2404.527-829.082c-32.633-16.165-45.981-55.708-29.813-88.33
			c16.161-32.622,55.715-45.981,88.345-29.817c32.622,16.165,45.967,55.73,29.795,88.337
			C2476.696-826.254,2437.138-812.924,2404.527-829.082"/>
		<path id="path16_5_" fill="#382751" d="M2407.852,81.685c-32.622-16.157-45.963-55.701-29.802-88.33
			c16.172-32.629,55.715-45.967,88.334-29.802c32.629,16.165,45.981,55.708,29.817,88.337
			C2480.036,84.512,2440.485,97.857,2407.852,81.685"/>
		<path id="path88_5_" fill="#9B3478" d="M2510.856,59.156c-20.142,40.657-69.609,57.334-110.259,37.207
			c-40.661-20.156-57.356-69.609-37.211-110.259c20.142-40.664,69.606-57.356,110.27-37.207
			C2514.299-30.976,2530.998,18.492,2510.856,59.156z M2397.261-814.433c-40.657-20.142-57.337-69.595-37.196-110.244
			c20.138-40.649,69.587-57.349,110.244-37.192c40.649,20.134,57.341,69.595,37.2,110.244
			C2487.375-810.983,2437.907-794.292,2397.261-814.433z M2538.776,72.999c27.773-56.067,4.775-124.255-51.284-152.029
			c-11.953-5.925-24.463-9.397-37.009-10.884l1.106-686.353c35.024-5.618,66.929-27.393,83.84-61.531
			c27.773-56.06,4.768-124.226-51.292-152c-56.052-27.773-124.237-4.775-152.011,51.284c-27.77,56.06-4.757,124.233,51.303,152.007
			c11.942,5.911,24.444,9.397,36.987,10.884L2419.3-89.277c-35.021,5.625-66.932,27.422-83.836,61.531
			c-27.777,56.067-4.753,124.255,51.306,152.029C2442.829,152.049,2511.003,129.043,2538.776,72.999z"/>
	</g>
</g>
<g id="g10_8_" transform="matrix(1.3333333,0,0,-1.3333333,0,213.33333)">
	<g id="g12_8_" transform="scale(0.1)">
		<path id="path14_8_" fill="#382751" d="M2889.211,1059.908c-32.629-16.157-45.981-55.708-29.81-88.33
			c16.157-32.622,55.715-45.982,88.345-29.81c32.622,16.157,45.967,55.723,29.795,88.33
			C2961.384,1062.735,2921.826,1076.065,2889.211,1059.908"/>
		<path id="path16_8_" fill="#382751" d="M2892.536,1970.678c-32.622-16.161-45.959-55.704-29.795-88.333
			c16.172-32.629,55.708-45.971,88.33-29.802c32.629,16.161,45.981,55.708,29.817,88.337
			C2964.724,1973.505,2925.173,1986.843,2892.536,1970.678"/>
		<path id="path88_8_" fill="#9B3478" d="M2995.544,1948.146c-20.142,40.657-69.609,57.337-110.259,37.203
			c-40.664-20.149-57.356-69.602-37.207-110.259c20.142-40.664,69.602-57.352,110.266-37.203
			C2998.986,1858.017,3015.686,1907.478,2995.544,1948.146z M2881.945,1074.557c-40.649-20.142-57.334-69.595-37.192-110.244
			c20.142-40.65,69.587-57.349,110.244-37.193c40.649,20.142,57.341,69.595,37.2,110.245
			C2972.062,1078.014,2922.595,1094.698,2881.945,1074.557z M3023.464,1961.984c27.773-56.063,4.775-124.251-51.284-152.025
			c-11.953-5.922-24.463-9.401-37.009-10.884l1.106-686.345c35.024-5.625,66.929-27.393,83.84-61.538
			c27.773-56.06,4.768-124.219-51.292-151.993c-56.052-27.773-124.233-4.775-152.007,51.285
			c-27.773,56.06-4.761,124.233,51.299,152.007c11.938,5.903,24.448,9.39,36.987,10.884l-1.113,686.338
			c-35.024,5.628-66.936,27.418-83.84,61.531c-27.781,56.067-4.753,124.251,51.306,152.025
			C2927.517,2041.039,2995.69,2018.037,3023.464,1961.984z"/>
	</g>
</g>
<g id="g10_1_" transform="matrix(1.3333333,0,0,-1.3333333,0,213.33333)">
	<g id="g12_1_" transform="scale(0.1)">
		<path id="path14_1_" fill="#382751" d="M2902.651,3058.68c-32.637-16.165-45.981-55.708-29.817-88.33s55.715-45.981,88.345-29.817
			c32.622,16.165,45.967,55.73,29.795,88.337C2974.816,3061.507,2935.258,3074.837,2902.651,3058.68"/>
		<path id="path16_1_" fill="#382751" d="M2905.976,3969.45c-32.622-16.16-45.967-55.704-29.81-88.333
			c16.172-32.63,55.715-45.971,88.337-29.803c32.629,16.161,45.981,55.708,29.817,88.338
			C2978.156,3972.277,2938.605,3985.615,2905.976,3969.45"/>
		<path id="path88_1_" fill="#9B3478" d="M3008.977,3946.918c-20.142,40.656-69.609,57.337-110.259,37.203
			c-40.657-20.149-57.356-69.603-37.214-110.259c20.142-40.664,69.609-57.353,110.273-37.203
			C3012.419,3856.789,3029.118,3906.25,3008.977,3946.918z M2895.385,3073.329c-40.664-20.142-57.341-69.595-37.2-110.244
			c20.134-40.649,69.587-57.349,110.244-37.192c40.649,20.134,57.341,69.595,37.2,110.244
			C2985.495,3076.778,2936.027,3093.47,2895.385,3073.329z M3036.896,3960.757c27.773-56.063,4.775-124.252-51.284-152.025
			c-11.953-5.922-24.463-9.4-37.009-10.884l1.106-686.353c35.024-5.618,66.929-27.393,83.84-61.531
			c27.773-56.06,4.768-124.226-51.292-152c-56.052-27.773-124.241-4.775-152.014,51.284c-27.766,56.06-4.753,124.233,51.306,152.007
			c11.946,5.911,24.441,9.397,36.987,10.884l-1.121,686.346c-35.017,5.628-66.929,27.418-83.833,61.53
			c-27.773,56.067-4.753,124.252,51.306,152.025C2940.949,4039.811,3009.123,4016.809,3036.896,3960.757z"/>
	</g>
</g>
<g id="g10_6_" transform="matrix(1.3333333,0,0,-1.3333333,0,213.33333)">
	<g id="g12_6_" transform="scale(0.1)">
		<path id="path14_6_" fill="#382751" d="M2900.981-1839.619c-32.637-16.165-45.981-55.708-29.817-88.33
			c16.165-32.622,55.715-45.982,88.345-29.817c32.622,16.165,45.967,55.73,29.795,88.338
			C2973.146-1836.792,2933.588-1823.461,2900.981-1839.619"/>
		<path id="path16_6_" fill="#382751" d="M2904.306-928.852c-32.622-16.157-45.967-55.701-29.81-88.33
			c16.172-32.629,55.715-45.967,88.337-29.802c32.629,16.165,45.981,55.708,29.817,88.337
			C2976.486-926.025,2936.936-912.68,2904.306-928.852"/>
		<path id="path88_6_" fill="#9B3478" d="M3007.307-951.381c-20.142,40.657-69.609,57.334-110.259,37.207
			c-40.657-20.156-57.356-69.609-37.214-110.259c20.142-40.664,69.609-57.356,110.273-37.207
			C3010.749-1041.513,3027.448-992.045,3007.307-951.381z M2893.715-1824.97c-40.664-20.142-57.341-69.595-37.2-110.244
			c20.134-40.65,69.587-57.349,110.244-37.193c40.649,20.134,57.341,69.595,37.2,110.244
			C2983.825-1821.521,2934.357-1804.829,2893.715-1824.97z M3035.227-937.539c27.773-56.067,4.775-124.255-51.284-152.029
			c-11.953-5.925-24.463-9.397-37.009-10.884l1.106-686.353c35.024-5.618,66.929-27.393,83.84-61.531
			c27.773-56.06,4.768-124.226-51.292-152c-56.052-27.773-124.241-4.775-152.014,51.284c-27.766,56.06-4.753,124.234,51.306,152.007
			c11.946,5.911,24.441,9.397,36.987,10.884l-1.121,686.345c-35.017,5.625-66.929,27.422-83.833,61.531
			c-27.773,56.067-4.753,124.255,51.306,152.029C2939.279-858.488,3007.453-881.494,3035.227-937.539z"/>
	</g>
</g>
<g id="g10_7_" transform="matrix(1.3333333,0,0,-1.3333333,0,213.33333)">
	<g id="g12_7_" transform="scale(0.1)">
		<path id="path14_7_" fill="#382751" d="M2165.472-2267.119c-32.637-16.165-45.981-55.708-29.817-88.33
			s55.715-45.981,88.345-29.817c32.622,16.165,45.967,55.73,29.795,88.337C2237.637-2264.292,2198.079-2250.962,2165.472-2267.119"
			/>
		<path id="path16_7_" fill="#382751" d="M2168.797-1356.352c-32.622-16.157-45.967-55.701-29.81-88.33
			c16.172-32.629,55.715-45.967,88.337-29.802c32.629,16.165,45.981,55.708,29.817,88.337
			C2240.977-1353.525,2201.426-1340.18,2168.797-1356.352"/>
		<path id="path88_7_" fill="#9B3478" d="M2271.797-1378.881c-20.142,40.657-69.609,57.334-110.259,37.207
			c-40.657-20.156-57.356-69.609-37.214-110.259c20.142-40.664,69.609-57.356,110.273-37.207
			C2275.24-1469.013,2291.939-1419.545,2271.797-1378.881z M2158.206-2252.47c-40.664-20.142-57.341-69.595-37.2-110.244
			c20.134-40.649,69.587-57.349,110.244-37.192c40.649,20.134,57.341,69.595,37.2,110.244
			C2248.316-2249.021,2198.848-2232.329,2158.206-2252.47z M2299.717-1365.039c27.773-56.067,4.775-124.255-51.284-152.029
			c-11.953-5.925-24.463-9.397-37.009-10.884l1.106-686.353c35.024-5.618,66.929-27.393,83.84-61.531
			c27.773-56.06,4.768-124.226-51.292-152c-56.052-27.773-124.241-4.775-152.014,51.284c-27.766,56.06-4.753,124.233,51.306,152.007
			c11.946,5.911,24.441,9.397,36.987,10.884l-1.121,686.345c-35.017,5.625-66.929,27.422-83.833,61.531
			c-27.773,56.067-4.753,124.255,51.306,152.029C2203.77-1285.988,2271.944-1308.994,2299.717-1365.039z"/>
	</g>
</g>
</svg>
