<?xml version="1.0" encoding="utf-8"?>
<!-- Generator: Adobe Illustrator 18.0.0, SVG Export Plug-In . SVG Version: 6.00 Build 0)  -->
<!DOCTYPE svg PUBLIC "-//W3C//DTD SVG 1.1//EN" "http://www.w3.org/Graphics/SVG/1.1/DTD/svg11.dtd">
<svg version="1.1"
	 id="svg2" xmlns:dc="http://purl.org/dc/elements/1.1/" xmlns:cc="http://creativecommons.org/ns#" xmlns:rdf="http://www.w3.org/1999/02/22-rdf-syntax-ns#" xmlns:svg="http://www.w3.org/2000/svg"
	 xmlns="http://www.w3.org/2000/svg" xmlns:xlink="http://www.w3.org/1999/xlink" x="0px" y="0px"
	 viewBox="270.9 -323.2 141.7 861.8" enable-background="new 270.9 -323.2 141.7 861.8" xml:space="preserve">
<g id="g10" transform="matrix(1.3333333,0,0,-1.3333333,0,213.33333)">
	<g id="g12" transform="scale(0.1)">
		<path id="path14" fill="#666666" d="M2148.5,2550.8c-32.6-16.2-46-55.7-29.8-88.3c16.2-32.6,55.7-46,88.3-29.8
			c32.6,16.2,46,55.7,29.8,88.3C2220.7,2553.6,2181.1,2566.9,2148.5,2550.8"/>
		<path id="path16" fill="#666666" d="M2151.8,3461.6c-32.6-16.2-46-55.7-29.8-88.3c16.2-32.6,55.7-46,88.3-29.8
			c32.6,16.2,46,55.7,29.8,88.3C2224,3464.4,2184.5,3477.7,2151.8,3461.6"/>
		<path id="path88" fill="#999999" d="M2254.8,3439c-20.1,40.7-69.6,57.3-110.3,37.2c-40.7-20.1-57.4-69.6-37.2-110.3
			c20.1-40.7,69.6-57.4,110.3-37.2C2258.3,3348.9,2275,3398.4,2254.8,3439z M2141.3,2565.4c-40.7-20.1-57.3-69.6-37.2-110.2
			c20.1-40.6,69.6-57.3,110.2-37.2c40.6,20.1,57.3,69.6,37.2,110.2C2231.4,2568.9,2181.9,2585.6,2141.3,2565.4z M2282.8,3452.9
			c27.8-56.1,4.8-124.3-51.3-152c-12-5.9-24.5-9.4-37-10.9l1.1-686.4c35-5.6,66.9-27.4,83.8-61.5c27.8-56.1,4.8-124.2-51.3-152
			c-56.1-27.8-124.2-4.8-152,51.3c-27.8,56.1-4.8,124.2,51.3,152c11.9,5.9,24.4,9.4,37,10.9l-1.1,686.3c-35,5.6-66.9,27.4-83.8,61.5
			c-27.8,56.1-4.8,124.3,51.3,152C2186.8,3531.9,2255,3508.9,2282.8,3452.9z"/>
	</g>
</g>
<g id="g10_2_" transform="matrix(1.3333333,0,0,-1.3333333,0,213.33333)">
	<g id="g12_2_" transform="scale(0.1)">
		<path id="path14_2_" fill="#666666" d="M2532.7,1786.3c-32.6-16.2-46-55.7-29.8-88.3c16.2-32.6,55.7-46,88.3-29.8
			c32.6,16.2,46,55.7,29.8,88.3C2604.9,1789.1,2565.3,1802.4,2532.7,1786.3"/>
		<path id="path16_2_" fill="#666666" d="M2536,2697.1c-32.6-16.2-46-55.7-29.8-88.3c16.2-32.6,55.7-46,88.3-29.8
			c32.6,16.2,46,55.7,29.8,88.3C2608.2,2699.9,2568.6,2713.2,2536,2697.1"/>
		<path id="path88_2_" fill="#999999" d="M2639,2674.5c-20.1,40.7-69.6,57.3-110.3,37.2c-40.7-20.1-57.4-69.6-37.2-110.3
			c20.1-40.7,69.6-57.4,110.3-37.2C2642.5,2584.4,2659.2,2633.9,2639,2674.5z M2525.4,1800.9c-40.6-20.1-57.3-69.6-37.2-110.2
			s69.6-57.3,110.2-37.2c40.6,20.1,57.3,69.6,37.2,110.2C2615.5,1804.4,2566.1,1821.1,2525.4,1800.9z M2666.9,2688.4
			c27.8-56.1,4.8-124.3-51.3-152c-12-5.9-24.5-9.4-37-10.9l1.1-686.4c35-5.6,66.9-27.4,83.8-61.5c27.8-56.1,4.8-124.2-51.3-152
			c-56.1-27.8-124.2-4.8-152,51.3c-27.8,56.1-4.8,124.2,51.3,152c11.9,5.9,24.4,9.4,37,10.9l-1.1,686.3c-35,5.6-66.9,27.4-83.8,61.5
			c-27.8,56.1-4.8,124.3,51.3,152C2571,2767.4,2639.2,2744.4,2666.9,2688.4z"/>
	</g>
</g>
<g id="g10_3_" transform="matrix(1.3333333,0,0,-1.3333333,0,213.33333)">
	<g id="g12_3_" transform="scale(0.1)">
		<path id="path14_3_" fill="#666666" d="M2884.9-260.3c-32.6-16.2-46-55.7-29.8-88.3c16.2-32.6,55.7-46,88.3-29.8
			c32.6,16.2,46,55.7,29.8,88.3C2957.1-257.4,2917.5-244.1,2884.9-260.3"/>
		<path id="path16_3_" fill="#666666" d="M2888.2,650.5c-32.6-16.2-46-55.7-29.8-88.3c16.2-32.6,55.7-46,88.3-29.8
			c32.6,16.2,46,55.7,29.8,88.3C2960.4,653.3,2920.9,666.7,2888.2,650.5"/>
		<path id="path88_3_" fill="#999999" d="M2991.2,628c-20.1,40.7-69.6,57.3-110.3,37.2c-40.7-20.2-57.4-69.6-37.2-110.3
			c20.1-40.7,69.6-57.4,110.3-37.2C2994.7,537.8,3011.4,587.3,2991.2,628z M2877.6-245.6c-40.6-20.1-57.3-69.6-37.2-110.2
			s69.6-57.3,110.2-37.2c40.6,20.1,57.3,69.6,37.2,110.2C2967.7-242.2,2918.3-225.5,2877.6-245.6z M3019.1,641.8
			c27.8-56.1,4.8-124.3-51.3-152c-12-5.9-24.5-9.4-37-10.9l1.1-686.4c35-5.6,66.9-27.4,83.8-61.5c27.8-56.1,4.8-124.2-51.3-152
			c-56.1-27.8-124.2-4.8-152,51.3s-4.8,124.2,51.3,152c11.9,5.9,24.4,9.4,37,10.9l-1.1,686.3c-35,5.6-66.9,27.4-83.8,61.5
			c-27.8,56.1-4.8,124.3,51.3,152C2923.2,720.9,2991.4,697.9,3019.1,641.8z"/>
	</g>
</g>
<g id="g10_4_" transform="matrix(1.3333333,0,0,-1.3333333,0,213.33333)">
	<g id="g12_4_" transform="scale(0.1)">
		<path id="path14_4_" fill="#666666" d="M2148.5,182.6c-32.6-16.2-46-55.7-29.8-88.3c16.2-32.6,55.7-46,88.3-29.8
			c32.6,16.2,46,55.7,29.8,88.3C2220.7,185.5,2181.1,198.8,2148.5,182.6"/>
		<path id="path16_4_" fill="#666666" d="M2151.8,1093.4c-32.6-16.2-46-55.7-29.8-88.3c16.2-32.6,55.7-46,88.3-29.8
			c32.6,16.2,46,55.7,29.8,88.3C2224,1096.2,2184.5,1109.6,2151.8,1093.4"/>
		<path id="path88_4_" fill="#999999" d="M2254.8,1070.9c-20.1,40.7-69.6,57.3-110.3,37.2c-40.7-20.1-57.4-69.6-37.2-110.3
			c20.1-40.7,69.6-57.3,110.3-37.2C2258.3,980.8,2275,1030.2,2254.8,1070.9z M2141.3,197.3c-40.7-20.1-57.3-69.6-37.2-110.2
			c20.1-40.6,69.6-57.3,110.2-37.2c40.6,20.1,57.3,69.6,37.2,110.2C2231.4,200.7,2181.9,217.4,2141.3,197.3z M2282.8,1084.7
			c27.8-56.1,4.8-124.2-51.3-152c-12-5.9-24.5-9.4-37-10.9l1.1-686.4c35-5.6,66.9-27.4,83.8-61.5c27.8-56.1,4.8-124.2-51.3-152
			c-56.1-27.8-124.2-4.8-152,51.3c-27.8,56.1-4.8,124.2,51.3,152c11.9,5.9,24.4,9.4,37,10.9l-1.1,686.3c-35,5.6-66.9,27.4-83.8,61.5
			c-27.8,56.1-4.8,124.2,51.3,152C2186.8,1163.8,2255,1140.8,2282.8,1084.7z"/>
	</g>
</g>
<g id="g10_5_" transform="matrix(1.3333333,0,0,-1.3333333,0,213.33333)">
	<g id="g12_5_" transform="scale(0.1)">
		<path id="path14_5_" fill="#666666" d="M2532.7-907.5c-32.6-16.2-46-55.7-29.8-88.3c16.2-32.6,55.7-46,88.3-29.8
			c32.6,16.2,46,55.7,29.8,88.3C2604.9-904.7,2565.3-891.4,2532.7-907.5"/>
		<path id="path16_5_" fill="#666666" d="M2536,3.3c-32.6-16.2-46-55.7-29.8-88.3c16.2-32.6,55.7-46,88.3-29.8
			c32.6,16.2,46,55.7,29.8,88.3C2608.2,6.1,2568.6,19.4,2536,3.3"/>
		<path id="path88_5_" fill="#999999" d="M2639-19.3c-20.1,40.7-69.6,57.3-110.3,37.2c-40.7-20.2-57.4-69.6-37.2-110.3
			c20.1-40.7,69.6-57.4,110.3-37.2C2642.5-109.4,2659.2-59.9,2639-19.3z M2525.4-892.9c-40.7-20.1-57.3-69.6-37.2-110.2
			c20.1-40.6,69.6-57.3,110.2-37.2c40.6,20.1,57.3,69.6,37.2,110.2C2615.5-889.4,2566.1-872.7,2525.4-892.9z M2666.9-5.4
			c27.8-56.1,4.8-124.3-51.3-152c-12-5.9-24.5-9.4-37-10.9l1.1-686.4c35-5.6,66.9-27.4,83.8-61.5c27.8-56.1,4.8-124.2-51.3-152
			c-56.1-27.8-124.2-4.8-152,51.3c-27.8,56.1-4.8,124.2,51.3,152c11.9,5.9,24.4,9.4,37,10.9l-1.1,686.3c-35,5.6-66.9,27.4-83.8,61.5
			c-27.8,56.1-4.8,124.3,51.3,152C2571,73.6,2639.2,50.6,2666.9-5.4z"/>
	</g>
</g>
<g id="g10_8_" transform="matrix(1.3333333,0,0,-1.3333333,0,213.33333)">
	<g id="g12_8_" transform="scale(0.1)">
		<path id="path14_8_" fill="#666666" d="M2883.2,1396.8c-32.6-16.2-46-55.7-29.8-88.3c16.2-32.6,55.7-46,88.3-29.8
			c32.6,16.2,46,55.7,29.8,88.3C2955.4,1399.7,2915.8,1413,2883.2,1396.8"/>
		<path id="path16_8_" fill="#666666" d="M2886.5,2307.6c-32.6-16.2-46-55.7-29.8-88.3c16.2-32.6,55.7-46,88.3-29.8
			c32.6,16.2,46,55.7,29.8,88.3C2958.7,2310.4,2919.2,2323.8,2886.5,2307.6"/>
		<path id="path88_8_" fill="#999999" d="M2989.6,2285.1c-20.1,40.7-69.6,57.3-110.3,37.2c-40.7-20.1-57.4-69.6-37.2-110.3
			c20.1-40.7,69.6-57.4,110.3-37.2C2993,2195,3009.7,2244.4,2989.6,2285.1z M2876,1411.5c-40.6-20.1-57.3-69.6-37.2-110.2
			c20.1-40.7,69.6-57.3,110.2-37.2c40.6,20.1,57.3,69.6,37.2,110.2C2966.1,1415,2916.6,1431.6,2876,1411.5z M3017.5,2298.9
			c27.8-56.1,4.8-124.3-51.3-152c-12-5.9-24.5-9.4-37-10.9l1.1-686.3c35-5.6,66.9-27.4,83.8-61.5c27.8-56.1,4.8-124.2-51.3-152
			c-56.1-27.8-124.2-4.8-152,51.3c-27.8,56.1-4.8,124.2,51.3,152c11.9,5.9,24.4,9.4,37,10.9l-1.1,686.3c-35,5.6-66.9,27.4-83.8,61.5
			c-27.8,56.1-4.8,124.3,51.3,152C2921.5,2378,2989.7,2355,3017.5,2298.9z"/>
	</g>
</g>
<g id="g10_1_" transform="matrix(1.3333333,0,0,-1.3333333,0,213.33333)">
	<g id="g12_1_" transform="scale(0.1)">
		<path id="path14_1_" fill="#666666" d="M2883.2,3006.2c-32.6-16.2-46-55.7-29.8-88.3s55.7-46,88.3-29.8
			c32.6,16.2,46,55.7,29.8,88.3C2955.4,3009,2915.8,3022.3,2883.2,3006.2"/>
		<path id="path16_1_" fill="#666666" d="M2886.6,3917c-32.6-16.2-46-55.7-29.8-88.3c16.2-32.6,55.7-46,88.3-29.8
			c32.6,16.2,46,55.7,29.8,88.3C2958.7,3919.8,2919.2,3933.1,2886.6,3917"/>
		<path id="path88_1_" fill="#999999" d="M2989.6,3894.4c-20.1,40.7-69.6,57.3-110.3,37.2c-40.7-20.1-57.4-69.6-37.2-110.3
			c20.1-40.7,69.6-57.4,110.3-37.2C2993,3804.3,3009.7,3853.8,2989.6,3894.4z M2876,3020.8c-40.7-20.1-57.3-69.6-37.2-110.2
			c20.1-40.6,69.6-57.3,110.2-37.2c40.6,20.1,57.3,69.6,37.2,110.2C2966.1,3024.3,2916.6,3041,2876,3020.8z M3017.5,3908.3
			c27.8-56.1,4.8-124.3-51.3-152c-12-5.9-24.5-9.4-37-10.9l1.1-686.4c35-5.6,66.9-27.4,83.8-61.5c27.8-56.1,4.8-124.2-51.3-152
			c-56.1-27.8-124.2-4.8-152,51.3c-27.8,56.1-4.8,124.2,51.3,152c11.9,5.9,24.4,9.4,37,10.9L2898,3746c-35,5.6-66.9,27.4-83.8,61.5
			c-27.8,56.1-4.8,124.3,51.3,152C2921.5,3987.3,2989.7,3964.3,3017.5,3908.3z"/>
	</g>
</g>
<g id="g10_6_" transform="matrix(1.3333333,0,0,-1.3333333,0,213.33333)">
	<g id="g12_6_" transform="scale(0.1)">
		<path id="path14_6_" fill="#666666" d="M2883.2-2071.5c-32.6-16.2-46-55.7-29.8-88.3c16.2-32.6,55.7-46,88.3-29.8
			c32.6,16.2,46,55.7,29.8,88.3C2955.4-2068.7,2915.8-2055.3,2883.2-2071.5"/>
		<path id="path16_6_" fill="#666666" d="M2886.6-1160.7c-32.6-16.2-46-55.7-29.8-88.3c16.2-32.6,55.7-46,88.3-29.8
			c32.6,16.2,46,55.7,29.8,88.3C2958.7-1157.9,2919.2-1144.6,2886.6-1160.7"/>
		<path id="path88_6_" fill="#999999" d="M2989.6-1183.3c-20.1,40.7-69.6,57.3-110.3,37.2c-40.7-20.2-57.4-69.6-37.2-110.3
			c20.1-40.7,69.6-57.4,110.3-37.2C2993-1273.4,3009.7-1223.9,2989.6-1183.3z M2876-2056.8c-40.7-20.1-57.3-69.6-37.2-110.2
			c20.1-40.7,69.6-57.3,110.2-37.2c40.6,20.1,57.3,69.6,37.2,110.2C2966.1-2053.4,2916.6-2036.7,2876-2056.8z M3017.5-1169.4
			c27.8-56.1,4.8-124.3-51.3-152c-12-5.9-24.5-9.4-37-10.9l1.1-686.4c35-5.6,66.9-27.4,83.8-61.5c27.8-56.1,4.8-124.2-51.3-152
			c-56.1-27.8-124.2-4.8-152,51.3c-27.8,56.1-4.8,124.2,51.3,152c11.9,5.9,24.4,9.4,37,10.9l-1.1,686.3c-35,5.6-66.9,27.4-83.8,61.5
			c-27.8,56.1-4.8,124.3,51.3,152C2921.5-1090.4,2989.7-1113.4,3017.5-1169.4z"/>
	</g>
</g>
<g id="g10_7_" transform="matrix(1.3333333,0,0,-1.3333333,0,213.33333)">
	<g id="g12_7_" transform="scale(0.1)">
		<path id="path14_7_" fill="#666666" d="M2148.5-2267.1c-32.6-16.2-46-55.7-29.8-88.3s55.7-46,88.3-29.8
			c32.6,16.2,46,55.7,29.8,88.3C2220.7-2264.3,2181.1-2251,2148.5-2267.1"/>
		<path id="path16_7_" fill="#666666" d="M2151.8-1356.4c-32.6-16.2-46-55.7-29.8-88.3c16.2-32.6,55.7-46,88.3-29.8
			c32.6,16.2,46,55.7,29.8,88.3C2224-1353.5,2184.5-1340.2,2151.8-1356.4"/>
		<path id="path88_7_" fill="#999999" d="M2254.8-1378.9c-20.1,40.7-69.6,57.3-110.3,37.2c-40.7-20.2-57.4-69.6-37.2-110.3
			c20.1-40.7,69.6-57.4,110.3-37.2C2258.3-1469,2275-1419.5,2254.8-1378.9z M2141.3-2252.5c-40.7-20.1-57.3-69.6-37.2-110.2
			c20.1-40.6,69.6-57.3,110.2-37.2c40.6,20.1,57.3,69.6,37.2,110.2C2231.4-2249,2181.9-2232.3,2141.3-2252.5z M2282.8-1365
			c27.8-56.1,4.8-124.3-51.3-152c-12-5.9-24.5-9.4-37-10.9l1.1-686.4c35-5.6,66.9-27.4,83.8-61.5c27.8-56.1,4.8-124.2-51.3-152
			c-56.1-27.8-124.2-4.8-152,51.3c-27.8,56.1-4.8,124.2,51.3,152c11.9,5.9,24.4,9.4,37,10.9l-1.1,686.3c-35,5.6-66.9,27.4-83.8,61.5
			c-27.8,56.1-4.8,124.3,51.3,152C2186.8-1286,2255-1309,2282.8-1365z"/>
	</g>
</g>
</svg>
