<?xml version="1.0" encoding="UTF-8" standalone="no"?>
<svg
   xmlns:dc="http://purl.org/dc/elements/1.1/"
   xmlns:cc="http://creativecommons.org/ns#"
   xmlns:rdf="http://www.w3.org/1999/02/22-rdf-syntax-ns#"
   xmlns:svg="http://www.w3.org/2000/svg"
   xmlns="http://www.w3.org/2000/svg"
   viewBox="0 0 677.33331 213.33333"
   height="213.33333"
   width="677.33331"
   xml:space="preserve"
   version="1.1"
   id="svg2"><metadata
     id="metadata8"><rdf:RDF><cc:Work
         rdf:about=""><dc:format>image/svg+xml</dc:format><dc:type
           rdf:resource="http://purl.org/dc/dcmitype/StillImage" /></cc:Work></rdf:RDF></metadata><defs
     id="defs6" /><g
     transform="matrix(1.3333333,0,0,-1.3333333,0,213.33333)"
     id="g10"><g
       transform="scale(0.1)"
       id="g12"><path
         id="path14"
         style="fill:#382751;fill-opacity:1;fill-rule:nonzero;stroke:none"
         d="m 875.961,470.301 c -36.41,0 -65.926,-29.512 -65.926,-65.922 0,-36.41 29.516,-65.93 65.926,-65.93 36.41,0 65.926,29.52 65.926,65.93 0,36.41 -29.516,65.922 -65.926,65.922" /><path
         id="path16"
         style="fill:#382751;fill-opacity:1;fill-rule:nonzero;stroke:none"
         d="m 1283.27,1284.93 c -36.41,0 -65.92,-29.52 -65.92,-65.93 0,-36.41 29.51,-65.92 65.92,-65.92 36.41,0 65.93,29.51 65.93,65.92 0,36.41 -29.52,65.93 -65.93,65.93" /><path
         id="path18"
         style="fill:#231f20;fill-opacity:1;fill-rule:nonzero;stroke:none"
         d="m 1865.03,404.379 -25.74,84.133 14.73,0 13.39,-48.563 4.99,-18.07 c 0.21,0.902 1.66,6.68 4.36,17.359 l 13.39,49.274 14.65,0 12.6,-48.801 4.2,-16.082 4.83,16.242 14.42,48.641 13.86,0 -26.3,-84.133 -14.82,0 -13.38,50.383 -3.25,14.34 -17.03,-64.723 -14.9,0" /><path
         id="path20"
         style="fill:#231f20;fill-opacity:1;fill-rule:nonzero;stroke:none"
         d="m 1977.45,454.52 46.97,0 c -0.63,7.082 -2.43,12.39 -5.38,15.921 -4.55,5.5 -10.44,8.239 -17.67,8.239 -6.55,0 -12.05,-2.192 -16.52,-6.559 -4.46,-4.391 -6.93,-10.262 -7.4,-17.601 z m 46.82,-23.051 14.73,-1.821 c -2.33,-8.609 -6.63,-15.289 -12.91,-20.046 -6.29,-4.75 -14.32,-7.122 -24.09,-7.122 -12.3,0 -22.06,3.79 -29.27,11.372 -7.21,7.57 -10.81,18.199 -10.81,31.878 0,14.161 3.64,25.141 10.93,32.95 7.29,7.82 16.74,11.73 28.36,11.73 11.25,0 20.44,-3.832 27.57,-11.488 7.13,-7.652 10.7,-18.434 10.7,-32.32 0,-0.852 -0.03,-2.122 -0.08,-3.801 l -62.75,0 c 0.53,-9.242 3.14,-16.313 7.85,-21.231 4.7,-4.91 10.56,-7.371 17.58,-7.371 5.23,0 9.69,1.371 13.39,4.121 3.7,2.739 6.63,7.129 8.8,13.149" /><path
         id="path22"
         style="fill:#231f20;fill-opacity:1;fill-rule:nonzero;stroke:none"
         d="m 2114.89,445.969 c 0,-10.828 2.19,-18.828 6.58,-24.008 4.38,-5.172 9.69,-7.762 15.92,-7.762 6.34,0 11.76,2.68 16.28,8.039 4.52,5.364 6.77,13.66 6.77,24.922 0,10.719 -2.2,18.75 -6.61,24.078 -4.41,5.34 -9.68,8 -15.8,8 -6.08,0 -11.45,-2.84 -16.13,-8.519 -4.67,-5.68 -7.01,-13.93 -7.01,-24.75 z m -12.91,-73.828 0,116.371 12.99,0 0,-10.93 c 3.06,4.27 6.52,7.477 10.38,9.617 3.85,2.141 8.53,3.211 14.02,3.211 7.18,0 13.52,-1.851 19.01,-5.539 5.5,-3.699 9.64,-8.91 12.44,-15.66 2.8,-6.731 4.2,-14.102 4.2,-22.133 0,-8.617 -1.54,-16.359 -4.63,-23.258 -3.09,-6.89 -7.58,-12.16 -13.47,-15.84 -5.89,-3.66 -12.08,-5.5 -18.58,-5.5 -4.75,0 -9.02,1 -12.79,3 -3.78,2.02 -6.88,4.551 -9.31,7.61 l 0,-40.949 -14.26,0" /><path
         id="path24"
         style="fill:#231f20;fill-opacity:1;fill-rule:nonzero;stroke:none"
         d="m 2245.92,446.602 c -5.17,-2.122 -12.94,-3.903 -23.29,-5.391 -5.86,-0.852 -10.01,-1.789 -12.44,-2.852 -2.43,-1.05 -4.3,-2.597 -5.62,-4.64 -1.32,-2.02 -1.98,-4.278 -1.98,-6.758 0,-3.813 1.44,-6.981 4.32,-9.512 2.88,-2.539 7.09,-3.801 12.63,-3.801 5.49,0 10.38,1.204 14.66,3.602 4.28,2.398 7.42,5.691 9.43,9.871 1.53,3.219 2.29,7.969 2.29,14.258 l 0,5.223 z m 1.19,-31.84 c -5.28,-4.5 -10.36,-7.672 -15.25,-9.5 -4.88,-1.864 -10.13,-2.782 -15.72,-2.782 -9.25,0 -16.35,2.258 -21.31,6.77 -4.97,4.512 -7.45,10.289 -7.45,17.309 0,4.121 0.94,7.89 2.81,11.281 1.88,3.41 4.33,6.148 7.37,8.199 3.04,2.07 6.46,3.633 10.26,4.68 2.8,0.742 7.02,1.461 12.67,2.14 11.52,1.371 19.99,3.012 25.43,4.911 0.05,1.949 0.08,3.191 0.08,3.73 0,5.801 -1.34,9.891 -4.04,12.281 -3.64,3.219 -9.06,4.828 -16.24,4.828 -6.71,0 -11.66,-1.179 -14.85,-3.527 -3.2,-2.363 -5.56,-6.512 -7.09,-12.473 l -13.94,1.903 c 1.26,5.957 3.35,10.777 6.25,14.449 2.91,3.68 7.11,6.5 12.6,8.48 5.49,1.981 11.85,2.969 19.09,2.969 7.18,0 13.02,-0.84 17.51,-2.539 4.49,-1.68 7.79,-3.812 9.9,-6.371 2.11,-2.559 3.59,-5.801 4.44,-9.699 0.47,-2.43 0.71,-6.821 0.71,-13.16 l 0,-19.012 c 0,-13.258 0.31,-21.641 0.91,-25.149 0.61,-3.519 1.81,-6.878 3.61,-10.101 l -14.9,0 c -1.48,2.953 -2.43,6.41 -2.85,10.383" /><path
         id="path26"
         style="fill:#231f20;fill-opacity:1;fill-rule:nonzero;stroke:none"
         d="m 2282.52,404.379 0,84.133 14.26,0 0,-84.133 -14.26,0 z m 0,99.742 0,16.391 14.26,0 0,-16.391 -14.26,0" /><path
         id="path28"
         style="fill:#231f20;fill-opacity:1;fill-rule:nonzero;stroke:none"
         d="m 2318.33,404.379 0,84.133 12.83,0 0,-12.762 c 3.28,5.969 6.3,9.898 9.08,11.801 2.77,1.91 5.82,2.859 9.14,2.859 4.81,0 9.69,-1.539 14.66,-4.59 l -4.91,-13.23 c -3.49,2.058 -6.97,3.09 -10.46,3.09 -3.12,0 -5.91,-0.942 -8.4,-2.821 -2.48,-1.871 -4.25,-4.468 -5.3,-7.8 -1.59,-5.071 -2.38,-10.61 -2.38,-16.629 l 0,-44.051 -14.26,0" /><path
         id="path30"
         style="fill:#231f20;fill-opacity:1;fill-rule:nonzero;stroke:none"
         d="m 2411.89,429.488 14.1,2.223 c 0.79,-5.66 3,-9.981 6.61,-12.992 3.62,-3.008 8.68,-4.52 15.18,-4.52 6.54,0 11.4,1.332 14.57,4 3.17,2.672 4.76,5.801 4.76,9.391 0,3.219 -1.4,5.75 -4.2,7.601 -1.96,1.27 -6.82,2.879 -14.58,4.829 -10.46,2.652 -17.7,4.929 -21.75,6.859 -4.03,1.93 -7.1,4.59 -9.19,8 -2.08,3.41 -3.12,7.172 -3.12,11.293 0,3.75 0.85,7.207 2.57,10.418 1.72,3.199 4.05,5.84 7.01,7.961 2.22,1.64 5.24,3.019 9.07,4.16 3.83,1.129 7.94,1.699 12.32,1.699 6.6,0 12.4,-0.949 17.39,-2.859 4.99,-1.903 8.67,-4.473 11.05,-7.711 2.38,-3.25 4.01,-7.602 4.91,-13.031 l -13.94,-1.911 c -0.63,4.332 -2.47,7.711 -5.5,10.153 -3.04,2.418 -7.33,3.629 -12.88,3.629 -6.55,0 -11.22,-1.078 -14.02,-3.239 -2.8,-2.171 -4.2,-4.711 -4.2,-7.613 0,-1.848 0.58,-3.508 1.74,-4.988 1.16,-1.539 2.99,-2.801 5.47,-3.801 1.43,-0.519 5.62,-1.738 12.6,-3.641 10.08,-2.699 17.12,-4.91 21.11,-6.617 3.99,-1.722 7.11,-4.211 9.39,-7.492 2.26,-3.269 3.4,-7.34 3.4,-12.187 0,-4.762 -1.38,-9.231 -4.16,-13.442 -2.77,-4.191 -6.77,-7.441 -12,-9.73 -5.23,-2.309 -11.14,-3.45 -17.74,-3.45 -10.94,0 -19.27,2.27 -25,6.809 -5.73,4.551 -9.39,11.281 -10.97,20.199" /><path
         id="path32"
         style="fill:#231f20;fill-opacity:1;fill-rule:nonzero;stroke:none"
         d="m 2553.61,435.191 14.03,-1.82 c -1.54,-9.66 -5.46,-17.23 -11.77,-22.691 -6.31,-5.481 -14.06,-8.2 -23.25,-8.2 -11.51,0 -20.77,3.758 -27.77,11.282 -6.99,7.527 -10.49,18.316 -10.49,32.367 0,9.082 1.5,17.031 4.51,23.84 3.01,6.812 7.6,11.922 13.75,15.332 6.15,3.41 12.84,5.109 20.08,5.109 9.14,0 16.61,-2.308 22.42,-6.941 5.81,-4.61 9.53,-11.18 11.17,-19.68 l -13.86,-2.129 c -1.33,5.641 -3.66,9.899 -7.02,12.75 -3.35,2.852 -7.4,4.27 -12.16,4.27 -7.18,0 -13.02,-2.571 -17.5,-7.719 -4.49,-5.141 -6.74,-13.289 -6.74,-24.43 0,-11.312 2.17,-19.519 6.5,-24.652 4.33,-5.117 9.98,-7.68 16.95,-7.68 5.6,0 10.27,1.711 14.02,5.153 3.75,3.429 6.13,8.718 7.13,15.839" /><path
         id="path34"
         style="fill:#231f20;fill-opacity:1;fill-rule:nonzero;stroke:none"
         d="m 2579.92,404.379 0,84.133 14.25,0 0,-84.133 -14.25,0 z m 0,99.742 0,16.391 14.25,0 0,-16.391 -14.25,0" /><path
         id="path36"
         style="fill:#231f20;fill-opacity:1;fill-rule:nonzero;stroke:none"
         d="m 2626.65,454.52 46.98,0 c -0.63,7.082 -2.43,12.39 -5.38,15.921 -4.55,5.5 -10.44,8.239 -17.67,8.239 -6.55,0 -12.05,-2.192 -16.52,-6.559 -4.46,-4.391 -6.93,-10.262 -7.41,-17.601 z m 46.82,-23.051 14.74,-1.821 c -2.33,-8.609 -6.63,-15.289 -12.91,-20.046 -6.29,-4.75 -14.32,-7.122 -24.09,-7.122 -12.3,0 -22.06,3.79 -29.27,11.372 -7.21,7.57 -10.81,18.199 -10.81,31.878 0,14.161 3.64,25.141 10.93,32.95 7.29,7.82 16.74,11.73 28.36,11.73 11.25,0 20.44,-3.832 27.57,-11.488 7.13,-7.652 10.69,-18.434 10.69,-32.32 0,-0.852 -0.02,-2.122 -0.07,-3.801 l -62.75,0 c 0.53,-9.242 3.14,-16.313 7.85,-21.231 4.7,-4.91 10.56,-7.371 17.58,-7.371 5.23,0 9.69,1.371 13.39,4.121 3.7,2.739 6.63,7.129 8.79,13.149" /><path
         id="path38"
         style="fill:#231f20;fill-opacity:1;fill-rule:nonzero;stroke:none"
         d="m 2706.11,404.379 0,84.133 12.84,0 0,-11.961 c 6.18,9.238 15.1,13.859 26.77,13.859 5.07,0 9.73,-0.922 13.99,-2.73 4.25,-1.821 7.43,-4.219 9.54,-7.168 2.11,-2.961 3.59,-6.473 4.44,-10.543 0.52,-2.637 0.79,-7.258 0.79,-13.86 l 0,-51.73 -14.26,0 0,51.172 c 0,5.82 -0.55,10.148 -1.66,13.031 -1.11,2.879 -3.08,5.18 -5.91,6.898 -2.82,1.711 -6.13,2.571 -9.94,2.571 -6.07,0 -11.31,-1.93 -15.72,-5.781 -4.41,-3.848 -6.62,-11.168 -6.62,-21.942 l 0,-45.949 -14.26,0" /><path
         id="path40"
         style="fill:#231f20;fill-opacity:1;fill-rule:nonzero;stroke:none"
         d="m 2827.48,417.129 2.06,-12.598 c -4.02,-0.832 -7.61,-1.261 -10.78,-1.261 -5.17,0 -9.19,0.82 -12.04,2.449 -2.85,1.64 -4.86,3.793 -6.02,6.461 -1.16,2.672 -1.74,8.289 -1.74,16.84 l 0,48.39 -10.46,0 0,11.102 10.46,0 0,20.828 14.18,8.558 0,-29.386 14.34,0 0,-11.102 -14.34,0 0,-49.191 c 0,-4.071 0.25,-6.68 0.75,-7.84 0.5,-1.16 1.32,-2.078 2.46,-2.77 1.13,-0.687 2.76,-1.039 4.87,-1.039 1.58,0 3.67,0.192 6.26,0.559" /><path
         id="path42"
         style="fill:#231f20;fill-opacity:1;fill-rule:nonzero;stroke:none"
         d="m 2841.5,404.379 0,84.133 14.26,0 0,-84.133 -14.26,0 z m 0,99.742 0,16.391 14.26,0 0,-16.391 -14.26,0" /><path
         id="path44"
         style="fill:#231f20;fill-opacity:1;fill-rule:nonzero;stroke:none"
         d="m 2871.76,429.488 14.1,2.223 c 0.8,-5.66 3,-9.981 6.62,-12.992 3.62,-3.008 8.67,-4.52 15.17,-4.52 6.55,0 11.41,1.332 14.58,4 3.16,2.672 4.75,5.801 4.75,9.391 0,3.219 -1.4,5.75 -4.2,7.601 -1.96,1.27 -6.81,2.879 -14.58,4.829 -10.45,2.652 -17.7,4.929 -21.74,6.859 -4.04,1.93 -7.11,4.59 -9.19,8 -2.09,3.41 -3.13,7.172 -3.13,11.293 0,3.75 0.86,7.207 2.58,10.418 1.71,3.199 4.04,5.84 7,7.961 2.22,1.64 5.25,3.019 9.07,4.16 3.83,1.129 7.94,1.699 12.32,1.699 6.6,0 12.4,-0.949 17.39,-2.859 4.99,-1.903 8.68,-4.473 11.05,-7.711 2.38,-3.25 4.02,-7.602 4.92,-13.031 l -13.95,-1.911 c -0.63,4.332 -2.47,7.711 -5.5,10.153 -3.04,2.418 -7.33,3.629 -12.88,3.629 -6.55,0 -11.22,-1.078 -14.02,-3.239 -2.8,-2.171 -4.2,-4.711 -4.2,-7.613 0,-1.848 0.58,-3.508 1.75,-4.988 1.16,-1.539 2.98,-2.801 5.46,-3.801 1.43,-0.519 5.63,-1.738 12.6,-3.641 10.08,-2.699 17.12,-4.91 21.11,-6.617 3.99,-1.722 7.12,-4.211 9.39,-7.492 2.27,-3.269 3.4,-7.34 3.4,-12.187 0,-4.762 -1.38,-9.231 -4.16,-13.442 -2.77,-4.191 -6.77,-7.441 -12,-9.73 -5.22,-2.309 -11.14,-3.45 -17.74,-3.45 -10.93,0 -19.27,2.27 -24.99,6.809 -5.74,4.551 -9.39,11.281 -10.98,20.199" /><path
         id="path46"
         style="fill:#231f20;fill-opacity:1;fill-rule:nonzero;stroke:none"
         d="m 2989.72,417.129 2.06,-12.598 c -4.01,-0.832 -7.6,-1.261 -10.77,-1.261 -5.18,0 -9.19,0.82 -12.04,2.449 -2.86,1.64 -4.87,3.793 -6.03,6.461 -1.16,2.672 -1.74,8.289 -1.74,16.84 l 0,48.39 -10.46,0 0,11.102 10.46,0 0,20.828 14.18,8.558 0,-29.386 14.34,0 0,-11.102 -14.34,0 0,-49.191 c 0,-4.071 0.25,-6.68 0.75,-7.84 0.51,-1.16 1.32,-2.078 2.46,-2.77 1.14,-0.687 2.76,-1.039 4.87,-1.039 1.59,0 3.67,0.192 6.26,0.559" /><path
         id="path48"
         style="fill:#231f20;fill-opacity:1;fill-rule:nonzero;stroke:none"
         d="m 2997.96,429.488 14.1,2.223 c 0.79,-5.66 3,-9.981 6.61,-12.992 3.62,-3.008 8.68,-4.52 15.18,-4.52 6.54,0 11.4,1.332 14.57,4 3.17,2.672 4.76,5.801 4.76,9.391 0,3.219 -1.4,5.75 -4.2,7.601 -1.96,1.27 -6.82,2.879 -14.58,4.829 -10.46,2.652 -17.7,4.929 -21.75,6.859 -4.03,1.93 -7.1,4.59 -9.19,8 -2.08,3.41 -3.12,7.172 -3.12,11.293 0,3.75 0.86,7.207 2.57,10.418 1.72,3.199 4.05,5.84 7.01,7.961 2.22,1.64 5.24,3.019 9.07,4.16 3.83,1.129 7.94,1.699 12.32,1.699 6.6,0 12.4,-0.949 17.39,-2.859 4.99,-1.903 8.67,-4.473 11.05,-7.711 2.38,-3.25 4.01,-7.602 4.91,-13.031 l -13.94,-1.911 c -0.63,4.332 -2.47,7.711 -5.5,10.153 -3.04,2.418 -7.33,3.629 -12.88,3.629 -6.55,0 -11.22,-1.078 -14.02,-3.239 -2.8,-2.171 -4.2,-4.711 -4.2,-7.613 0,-1.848 0.58,-3.508 1.74,-4.988 1.16,-1.539 2.99,-2.801 5.47,-3.801 1.43,-0.519 5.62,-1.738 12.6,-3.641 10.08,-2.699 17.12,-4.91 21.11,-6.617 3.99,-1.722 7.11,-4.211 9.39,-7.492 2.26,-3.269 3.4,-7.34 3.4,-12.187 0,-4.762 -1.38,-9.231 -4.16,-13.442 -2.77,-4.191 -6.77,-7.441 -12,-9.73 -5.23,-2.309 -11.14,-3.45 -17.74,-3.45 -10.94,0 -19.27,2.27 -25,6.809 -5.73,4.551 -9.39,11.281 -10.97,20.199" /><path
         id="path50"
         style="fill:#231f20;fill-opacity:1;fill-rule:nonzero;stroke:none"
         d="m 3145.39,404.379 -25.75,84.133 14.74,0 13.39,-48.563 4.99,-18.07 c 0.21,0.902 1.66,6.68 4.35,17.359 l 13.39,49.274 14.66,0 12.59,-48.801 4.2,-16.082 4.83,16.242 14.42,48.641 13.87,0 -26.31,-84.133 -14.81,0 -13.39,50.383 -3.25,14.34 -17.03,-64.723 -14.89,0" /><path
         id="path52"
         style="fill:#231f20;fill-opacity:1;fill-rule:nonzero;stroke:none"
         d="m 3247.11,404.379 0,84.133 14.26,0 0,-84.133 -14.26,0 z m 0,99.742 0,16.391 14.26,0 0,-16.391 -14.26,0" /><path
         id="path54"
         style="fill:#231f20;fill-opacity:1;fill-rule:nonzero;stroke:none"
         d="m 3314.21,417.129 2.06,-12.598 c -4.02,-0.832 -7.61,-1.261 -10.78,-1.261 -5.18,0 -9.19,0.82 -12.04,2.449 -2.85,1.64 -4.86,3.793 -6.02,6.461 -1.16,2.672 -1.74,8.289 -1.74,16.84 l 0,48.39 -10.46,0 0,11.102 10.46,0 0,20.828 14.18,8.558 0,-29.386 14.34,0 0,-11.102 -14.34,0 0,-49.191 c 0,-4.071 0.25,-6.68 0.75,-7.84 0.5,-1.16 1.32,-2.078 2.46,-2.77 1.13,-0.687 2.75,-1.039 4.87,-1.039 1.58,0 3.67,0.192 6.26,0.559" /><path
         id="path56"
         style="fill:#231f20;fill-opacity:1;fill-rule:nonzero;stroke:none"
         d="m 3328.15,404.379 0,116.133 14.26,0 0,-41.66 c 6.65,7.699 15.05,11.558 25.19,11.558 6.23,0 11.65,-1.23 16.24,-3.68 4.6,-2.46 7.89,-5.851 9.86,-10.179 1.99,-4.332 2.98,-10.621 2.98,-18.86 l 0,-53.312 -14.26,0 0,53.312 c 0,7.141 -1.55,12.321 -4.64,15.571 -3.09,3.238 -7.46,4.879 -13.11,4.879 -4.23,0 -8.2,-1.11 -11.92,-3.301 -3.73,-2.192 -6.38,-5.16 -7.96,-8.91 -1.59,-3.75 -2.38,-8.918 -2.38,-15.532 l 0,-46.019 -14.26,0" /><path
         id="path58"
         style="fill:#231f20;fill-opacity:1;fill-rule:nonzero;stroke:none"
         d="m 3494.59,417.129 2.06,-12.598 c -4.01,-0.832 -7.61,-1.261 -10.78,-1.261 -5.17,0 -9.19,0.82 -12.04,2.449 -2.85,1.64 -4.86,3.793 -6.02,6.461 -1.16,2.672 -1.74,8.289 -1.74,16.84 l 0,48.39 -10.46,0 0,11.102 10.46,0 0,20.828 14.18,8.558 0,-29.386 14.34,0 0,-11.102 -14.34,0 0,-49.191 c 0,-4.071 0.25,-6.68 0.75,-7.84 0.5,-1.16 1.32,-2.078 2.46,-2.77 1.13,-0.687 2.76,-1.039 4.87,-1.039 1.58,0 3.67,0.192 6.26,0.559" /><path
         id="path60"
         style="fill:#231f20;fill-opacity:1;fill-rule:nonzero;stroke:none"
         d="m 3508.54,404.379 0,116.133 14.26,0 0,-41.66 c 6.65,7.699 15.04,11.558 25.18,11.558 6.24,0 11.65,-1.23 16.25,-3.68 4.59,-2.46 7.88,-5.851 9.86,-10.179 1.98,-4.332 2.97,-10.621 2.97,-18.86 l 0,-53.312 -14.26,0 0,53.312 c 0,7.141 -1.55,12.321 -4.63,15.571 -3.1,3.238 -7.46,4.879 -13.12,4.879 -4.22,0 -8.2,-1.11 -11.92,-3.301 -3.72,-2.192 -6.38,-5.16 -7.96,-8.91 -1.59,-3.75 -2.37,-8.918 -2.37,-15.532 l 0,-46.019 -14.26,0" /><path
         id="path62"
         style="fill:#231f20;fill-opacity:1;fill-rule:nonzero;stroke:none"
         d="m 3609.54,454.52 46.97,0 c -0.63,7.082 -2.42,12.39 -5.38,15.921 -4.55,5.5 -10.44,8.239 -17.67,8.239 -6.55,0 -12.06,-2.192 -16.52,-6.559 -4.46,-4.391 -6.93,-10.262 -7.4,-17.601 z m 46.82,-23.051 14.73,-1.821 c -2.33,-8.609 -6.63,-15.289 -12.92,-20.046 -6.28,-4.75 -14.31,-7.122 -24.08,-7.122 -12.3,0 -22.06,3.79 -29.27,11.372 -7.21,7.57 -10.81,18.199 -10.81,31.878 0,14.161 3.64,25.141 10.93,32.95 7.29,7.82 16.74,11.73 28.37,11.73 11.24,0 20.43,-3.832 27.56,-11.488 7.13,-7.652 10.7,-18.434 10.7,-32.32 0,-0.852 -0.03,-2.122 -0.09,-3.801 l -62.74,0 c 0.53,-9.242 3.14,-16.313 7.85,-21.231 4.7,-4.91 10.56,-7.371 17.58,-7.371 5.23,0 9.69,1.371 13.4,4.121 3.69,2.739 6.62,7.129 8.79,13.149" /><path
         id="path64"
         style="fill:#231f20;fill-opacity:1;fill-rule:nonzero;stroke:none"
         d="m 3747.07,447.078 c 0,-10.09 1.36,-17.367 4.11,-21.859 4.49,-7.348 10.56,-11.02 18.22,-11.02 6.24,0 11.62,2.699 16.16,8.121 4.54,5.41 6.82,13.481 6.82,24.211 0,10.969 -2.18,19.078 -6.54,24.321 -4.35,5.218 -9.62,7.828 -15.81,7.828 -6.23,0 -11.61,-2.7 -16.16,-8.11 -4.54,-5.422 -6.8,-13.25 -6.8,-23.492 z m 0.15,-42.699 -13.23,0 0,116.133 14.26,0 0,-41.422 c 6.02,7.539 13.71,11.32 23.05,11.32 5.18,0 10.08,-1.039 14.7,-3.129 4.62,-2.082 8.42,-5.019 11.41,-8.793 2.98,-3.769 5.32,-8.34 7.01,-13.656 1.69,-5.344 2.54,-11.043 2.54,-17.113 0,-14.43 -3.57,-25.571 -10.7,-33.438 -7.13,-7.871 -15.69,-11.801 -25.67,-11.801 -9.93,0 -17.72,4.141 -23.37,12.43 l 0,-10.531" /><path
         id="path66"
         style="fill:#231f20;fill-opacity:1;fill-rule:nonzero;stroke:none"
         d="m 3835.08,454.52 46.98,0 c -0.64,7.082 -2.43,12.39 -5.39,15.921 -4.54,5.5 -10.43,8.239 -17.67,8.239 -6.55,0 -12.05,-2.192 -16.52,-6.559 -4.46,-4.391 -6.93,-10.262 -7.4,-17.601 z m 46.82,-23.051 14.73,-1.821 c -2.32,-8.609 -6.63,-15.289 -12.91,-20.046 -6.28,-4.75 -14.31,-7.122 -24.09,-7.122 -12.3,0 -22.06,3.79 -29.26,11.372 -7.21,7.57 -10.81,18.199 -10.81,31.878 0,14.161 3.63,25.141 10.92,32.95 7.29,7.82 16.75,11.73 28.37,11.73 11.24,0 20.43,-3.832 27.57,-11.488 7.12,-7.652 10.69,-18.434 10.69,-32.32 0,-0.852 -0.03,-2.122 -0.08,-3.801 l -62.75,0 c 0.54,-9.242 3.15,-16.313 7.85,-21.231 4.7,-4.91 10.56,-7.371 17.59,-7.371 5.23,0 9.69,1.371 13.39,4.121 3.69,2.739 6.62,7.129 8.79,13.149" /><path
         id="path68"
         style="fill:#231f20;fill-opacity:1;fill-rule:nonzero;stroke:none"
         d="m 3908.84,429.488 14.09,2.223 c 0.8,-5.66 3,-9.981 6.62,-12.992 3.62,-3.008 8.68,-4.52 15.17,-4.52 6.55,0 11.41,1.332 14.58,4 3.17,2.672 4.75,5.801 4.75,9.391 0,3.219 -1.4,5.75 -4.19,7.601 -1.96,1.27 -6.82,2.879 -14.58,4.829 -10.46,2.652 -17.71,4.929 -21.75,6.859 -4.04,1.93 -7.1,4.59 -9.19,8 -2.08,3.41 -3.13,7.172 -3.13,11.293 0,3.75 0.86,7.207 2.58,10.418 1.71,3.199 4.05,5.84 7.01,7.961 2.22,1.64 5.24,3.019 9.07,4.16 3.83,1.129 7.93,1.699 12.32,1.699 6.6,0 12.39,-0.949 17.39,-2.859 4.99,-1.903 8.67,-4.473 11.05,-7.711 2.37,-3.25 4.01,-7.602 4.91,-13.031 l -13.95,-1.911 c -0.63,4.332 -2.46,7.711 -5.5,10.153 -3.04,2.418 -7.32,3.629 -12.88,3.629 -6.54,0 -11.21,-1.078 -14.01,-3.239 -2.81,-2.171 -4.2,-4.711 -4.2,-7.613 0,-1.848 0.58,-3.508 1.74,-4.988 1.16,-1.539 2.98,-2.801 5.47,-3.801 1.42,-0.519 5.62,-1.738 12.59,-3.641 10.09,-2.699 17.12,-4.91 21.12,-6.617 3.98,-1.722 7.11,-4.211 9.38,-7.492 2.27,-3.269 3.41,-7.34 3.41,-12.187 0,-4.762 -1.39,-9.231 -4.16,-13.442 -2.77,-4.191 -6.77,-7.441 -12.01,-9.73 -5.22,-2.309 -11.14,-3.45 -17.74,-3.45 -10.93,0 -19.26,2.27 -24.99,6.809 -5.74,4.551 -9.39,11.281 -10.97,20.199" /><path
         id="path70"
         style="fill:#231f20;fill-opacity:1;fill-rule:nonzero;stroke:none"
         d="m 4026.8,417.129 2.05,-12.598 c -4.01,-0.832 -7.6,-1.261 -10.77,-1.261 -5.18,0 -9.19,0.82 -12.04,2.449 -2.85,1.64 -4.86,3.793 -6.02,6.461 -1.16,2.672 -1.74,8.289 -1.74,16.84 l 0,48.39 -10.46,0 0,11.102 10.46,0 0,20.828 14.18,8.558 0,-29.386 14.34,0 0,-11.102 -14.34,0 0,-49.191 c 0,-4.071 0.25,-6.68 0.75,-7.84 0.5,-1.16 1.32,-2.078 2.46,-2.77 1.13,-0.687 2.75,-1.039 4.86,-1.039 1.59,0 3.68,0.192 6.27,0.559" /><path
         id="path72"
         style="fill:#231f20;fill-opacity:1;fill-rule:nonzero;stroke:none"
         d="m 4085.65,404.379 0,84.133 12.84,0 0,-12.762 c 3.27,5.969 6.29,9.898 9.07,11.801 2.77,1.91 5.82,2.859 9.14,2.859 4.81,0 9.7,-1.539 14.66,-4.59 l -4.91,-13.23 c -3.49,2.058 -6.97,3.09 -10.46,3.09 -3.12,0 -5.91,-0.942 -8.4,-2.821 -2.48,-1.871 -4.25,-4.468 -5.3,-7.8 -1.59,-5.071 -2.38,-10.61 -2.38,-16.629 l 0,-44.051 -14.26,0" /><path
         id="path74"
         style="fill:#231f20;fill-opacity:1;fill-rule:nonzero;stroke:none"
         d="m 4150.62,454.52 46.97,0 c -0.63,7.082 -2.42,12.39 -5.38,15.921 -4.55,5.5 -10.43,8.239 -17.67,8.239 -6.55,0 -12.06,-2.192 -16.52,-6.559 -4.46,-4.391 -6.93,-10.262 -7.4,-17.601 z m 46.81,-23.051 14.74,-1.821 c -2.33,-8.609 -6.63,-15.289 -12.92,-20.046 -6.28,-4.75 -14.31,-7.122 -24.08,-7.122 -12.3,0 -22.06,3.79 -29.27,11.372 -7.21,7.57 -10.81,18.199 -10.81,31.878 0,14.161 3.64,25.141 10.93,32.95 7.29,7.82 16.74,11.73 28.37,11.73 11.24,0 20.43,-3.832 27.56,-11.488 7.13,-7.652 10.7,-18.434 10.7,-32.32 0,-0.852 -0.03,-2.122 -0.09,-3.801 l -62.74,0 c 0.53,-9.242 3.14,-16.313 7.85,-21.231 4.7,-4.91 10.56,-7.371 17.58,-7.371 5.23,0 9.69,1.371 13.39,4.121 3.7,2.739 6.63,7.129 8.79,13.149" /><path
         id="path76"
         style="fill:#231f20;fill-opacity:1;fill-rule:nonzero;stroke:none"
         d="m 4283.78,446.602 c -5.17,-2.122 -12.94,-3.903 -23.29,-5.391 -5.86,-0.852 -10.01,-1.789 -12.44,-2.852 -2.42,-1.05 -4.3,-2.597 -5.62,-4.64 -1.32,-2.02 -1.98,-4.278 -1.98,-6.758 0,-3.813 1.44,-6.981 4.31,-9.512 2.88,-2.539 7.1,-3.801 12.64,-3.801 5.5,0 10.38,1.204 14.65,3.602 4.29,2.398 7.43,5.691 9.43,9.871 1.54,3.219 2.3,7.969 2.3,14.258 l 0,5.223 z m 1.19,-31.84 c -5.28,-4.5 -10.37,-7.672 -15.25,-9.5 -4.88,-1.864 -10.13,-2.782 -15.73,-2.782 -9.24,0 -16.34,2.258 -21.3,6.77 -4.97,4.512 -7.45,10.289 -7.45,17.309 0,4.121 0.94,7.89 2.81,11.281 1.87,3.41 4.33,6.148 7.37,8.199 3.03,2.07 6.45,3.633 10.26,4.68 2.8,0.742 7.02,1.461 12.67,2.14 11.52,1.371 19.99,3.012 25.43,4.911 0.06,1.949 0.08,3.191 0.08,3.73 0,5.801 -1.35,9.891 -4.04,12.281 -3.65,3.219 -9.06,4.828 -16.24,4.828 -6.7,0 -11.66,-1.179 -14.85,-3.527 -3.2,-2.363 -5.56,-6.512 -7.1,-12.473 l -13.94,1.903 c 1.27,5.957 3.36,10.777 6.26,14.449 2.91,3.68 7.11,6.5 12.6,8.48 5.49,1.981 11.85,2.969 19.09,2.969 7.18,0 13.02,-0.84 17.5,-2.539 4.5,-1.68 7.8,-3.812 9.91,-6.371 2.11,-2.559 3.59,-5.801 4.44,-9.699 0.47,-2.43 0.71,-6.821 0.71,-13.16 l 0,-19.012 c 0,-13.258 0.3,-21.641 0.91,-25.149 0.61,-3.519 1.81,-6.878 3.61,-10.101 l -14.9,0 c -1.47,2.953 -2.42,6.41 -2.85,10.383" /><path
         id="path78"
         style="fill:#231f20;fill-opacity:1;fill-rule:nonzero;stroke:none"
         d="m 4329.49,447.949 c 0,-11.039 2.19,-19.09 6.57,-24.16 4.39,-5.07 9.88,-7.609 16.48,-7.609 6.55,0 12.04,2.519 16.48,7.57 4.44,5.039 6.65,12.949 6.65,23.73 0,10.29 -2.28,18.059 -6.85,23.282 -4.57,5.226 -10.07,7.847 -16.51,7.847 -6.34,0 -11.73,-2.578 -16.16,-7.718 -4.44,-5.161 -6.66,-12.813 -6.66,-22.942 z m -11.8,-50.539 13.86,-2.07 c 0.58,-4.27 2.19,-7.391 4.83,-9.34 3.54,-2.648 8.37,-3.969 14.49,-3.969 6.61,0 11.7,1.321 15.3,3.969 3.59,2.641 6.02,6.34 7.29,11.09 0.74,2.91 1.08,9 1.03,18.308 -6.24,-7.359 -14,-11.019 -23.3,-11.019 -11.56,0 -20.51,4.172 -26.85,12.512 -6.34,8.347 -9.51,18.347 -9.51,30.031 0,8.019 1.45,15.437 4.36,22.219 2.91,6.781 7.11,12.031 12.63,15.73 5.52,3.688 12.01,5.539 19.45,5.539 9.94,0 18.12,-4.012 24.56,-12.039 l 0,10.141 13.15,0 0,-72.723 c 0,-13.109 -1.33,-22.391 -4,-27.848 -2.66,-5.461 -6.89,-9.781 -12.67,-12.953 -5.79,-3.168 -12.9,-4.758 -21.35,-4.758 -10.04,0 -18.15,2.258 -24.32,6.77 -6.19,4.531 -9.16,11.32 -8.95,20.41" /><path
         id="path80"
         style="fill:#231f20;fill-opacity:1;fill-rule:nonzero;stroke:none"
         d="m 4421.31,454.52 46.98,0 c -0.64,7.082 -2.43,12.39 -5.39,15.921 -4.55,5.5 -10.43,8.239 -17.67,8.239 -6.55,0 -12.05,-2.192 -16.52,-6.559 -4.46,-4.391 -6.93,-10.262 -7.4,-17.601 z m 46.82,-23.051 14.73,-1.821 c -2.32,-8.609 -6.63,-15.289 -12.91,-20.046 -6.28,-4.75 -14.31,-7.122 -24.09,-7.122 -12.3,0 -22.06,3.79 -29.26,11.372 -7.22,7.57 -10.82,18.199 -10.82,31.878 0,14.161 3.64,25.141 10.93,32.95 7.29,7.82 16.74,11.73 28.37,11.73 11.24,0 20.43,-3.832 27.57,-11.488 7.12,-7.652 10.69,-18.434 10.69,-32.32 0,-0.852 -0.03,-2.122 -0.08,-3.801 l -62.75,0 c 0.54,-9.242 3.15,-16.313 7.85,-21.231 4.7,-4.91 10.56,-7.371 17.59,-7.371 5.22,0 9.69,1.371 13.39,4.121 3.69,2.739 6.62,7.129 8.79,13.149" /><path
         id="path82"
         style="fill:#231f20;fill-opacity:1;fill-rule:nonzero;stroke:none"
         d="m 4500.77,404.379 0,84.133 12.83,0 0,-11.961 c 6.19,9.238 15.11,13.859 26.78,13.859 5.07,0 9.73,-0.922 13.98,-2.73 4.25,-1.821 7.44,-4.219 9.55,-7.168 2.11,-2.961 3.59,-6.473 4.43,-10.543 0.53,-2.637 0.8,-7.258 0.8,-13.86 l 0,-51.73 -14.26,0 0,51.172 c 0,5.82 -0.55,10.148 -1.67,13.031 -1.1,2.879 -3.07,5.18 -5.9,6.898 -2.83,1.711 -6.14,2.571 -9.94,2.571 -6.08,0 -11.32,-1.93 -15.73,-5.781 -4.41,-3.848 -6.61,-11.168 -6.61,-21.942 l 0,-45.949 -14.26,0" /><path
         id="path84"
         style="fill:#231f20;fill-opacity:1;fill-rule:nonzero;stroke:none"
         d="m 4622.13,417.129 2.06,-12.598 c -4.01,-0.832 -7.6,-1.261 -10.77,-1.261 -5.18,0 -9.19,0.82 -12.04,2.449 -2.86,1.64 -4.87,3.793 -6.03,6.461 -1.15,2.672 -1.74,8.289 -1.74,16.84 l 0,48.39 -10.45,0 0,11.102 10.45,0 0,20.828 14.19,8.558 0,-29.386 14.33,0 0,-11.102 -14.33,0 0,-49.191 c 0,-4.071 0.24,-6.68 0.74,-7.84 0.5,-1.16 1.32,-2.078 2.46,-2.77 1.14,-0.687 2.76,-1.039 4.87,-1.039 1.58,0 3.68,0.192 6.26,0.559" /><path
         id="path86"
         style="fill:#231f20;fill-opacity:1;fill-rule:nonzero;stroke:none"
         d="m 4630.38,429.488 14.09,2.223 c 0.8,-5.66 3,-9.981 6.62,-12.992 3.62,-3.008 8.67,-4.52 15.17,-4.52 6.55,0 11.41,1.332 14.58,4 3.17,2.672 4.75,5.801 4.75,9.391 0,3.219 -1.4,5.75 -4.2,7.601 -1.95,1.27 -6.82,2.879 -14.57,4.829 -10.46,2.652 -17.71,4.929 -21.75,6.859 -4.04,1.93 -7.11,4.59 -9.19,8 -2.09,3.41 -3.13,7.172 -3.13,11.293 0,3.75 0.86,7.207 2.58,10.418 1.71,3.199 4.05,5.84 7.01,7.961 2.21,1.64 5.24,3.019 9.06,4.16 3.83,1.129 7.94,1.699 12.33,1.699 6.6,0 12.39,-0.949 17.39,-2.859 4.98,-1.903 8.67,-4.473 11.05,-7.711 2.37,-3.25 4.01,-7.602 4.9,-13.031 l -13.94,-1.911 c -0.63,4.332 -2.46,7.711 -5.5,10.153 -3.04,2.418 -7.33,3.629 -12.88,3.629 -6.54,0 -11.22,-1.078 -14.02,-3.239 -2.8,-2.171 -4.19,-4.711 -4.19,-7.613 0,-1.848 0.57,-3.508 1.73,-4.988 1.17,-1.539 2.99,-2.801 5.47,-3.801 1.43,-0.519 5.62,-1.738 12.6,-3.641 10.09,-2.699 17.12,-4.91 21.11,-6.617 3.99,-1.722 7.12,-4.211 9.39,-7.492 2.27,-3.269 3.4,-7.34 3.4,-12.187 0,-4.762 -1.38,-9.231 -4.16,-13.442 -2.76,-4.191 -6.76,-7.441 -12,-9.73 -5.22,-2.309 -11.14,-3.45 -17.74,-3.45 -10.93,0 -19.26,2.27 -24.99,6.809 -5.74,4.551 -9.39,11.281 -10.97,20.199" /><path
         id="path88"
         style="fill:#9b3478;fill-opacity:1;fill-rule:nonzero;stroke:none"
         d="m 1283.27,449.801 c -25.08,0 -45.42,-20.332 -45.42,-45.422 0,-25.09 20.34,-45.43 45.42,-45.43 25.09,0 45.43,20.34 45.43,45.43 0,25.09 -20.34,45.422 -45.43,45.422 z m -814.622,0 c -25.089,0 -45.425,-20.332 -45.425,-45.422 0,-25.09 20.336,-45.43 45.425,-45.43 25.086,0 45.426,20.34 45.426,45.43 0,25.09 -20.34,45.422 -45.426,45.422 z m 814.622,407.316 c -25.08,0 -45.42,-20.34 -45.42,-45.426 0,-25.089 20.34,-45.425 45.42,-45.425 25.09,0 45.43,20.336 45.43,45.425 0,25.086 -20.34,45.426 -45.43,45.426 z M 875.961,766.266 c 25.09,0 45.426,20.336 45.426,45.425 0,25.086 -20.336,45.426 -45.426,45.426 -25.086,0 -45.426,-20.34 -45.426,-45.426 0,-25.089 20.34,-45.425 45.426,-45.425 z m -407.313,90.851 c -25.089,0 -45.425,-20.34 -45.425,-45.426 0,-25.089 20.336,-45.425 45.425,-45.425 25.086,0 45.426,20.336 45.426,45.425 0,25.086 -20.34,45.426 -45.426,45.426 z m 407.313,316.463 c 25.09,0 45.426,20.34 45.426,45.42 0,25.09 -20.336,45.43 -45.426,45.43 -25.086,0 -45.426,-20.34 -45.426,-45.43 0,-25.08 20.34,-45.42 45.426,-45.42 z m -407.313,90.85 c -25.089,0 -45.425,-20.34 -45.425,-45.43 0,-25.08 20.336,-45.42 45.425,-45.42 25.086,0 45.426,20.34 45.426,45.42 0,25.09 -20.34,45.43 -45.426,45.43 z m 896.912,-45.42 c 0,45.37 -36.92,82.28 -82.28,82.28 -45.38,0 -82.29,-36.91 -82.29,-82.28 0,-45.38 36.91,-82.29 82.29,-82.29 45.36,0 82.28,36.91 82.28,82.29 z M 875.961,486.648 c -45.371,0 -82.273,-36.91 -82.273,-82.277 0,-45.359 36.902,-82.269 82.273,-82.269 45.363,0 82.277,36.91 82.277,82.269 0,45.367 -36.914,82.277 -82.277,82.277 z m 520.759,732.362 c 0,-62.56 -50.88,-113.45 -113.44,-113.45 -13.34,0 -26.09,2.43 -37.99,6.68 L 941.59,496.73 c 28.883,-20.582 47.808,-54.261 47.808,-92.359 0,-62.551 -50.878,-113.43 -113.437,-113.43 -62.559,0 -113.453,50.879 -113.453,113.43 0,62.559 50.894,113.438 113.453,113.438 13.336,0 26.078,-2.43 37.973,-6.668 l 303.696,615.509 c -28.88,20.59 -47.81,54.28 -47.81,92.36 0,62.56 50.9,113.44 113.46,113.44 62.56,0 113.44,-50.88 113.44,-113.44 z M 4734.05,812.355 c -5.79,4.262 -12.44,7.75 -19.76,10.34 -6.82,2.442 -13.83,4.524 -21.01,6.34 -6.94,1.723 -13.69,3.375 -20.3,4.934 -5.99,1.426 -11.37,3.242 -16.17,5.488 -10.7,4.703 -12.07,10.273 -12.07,14.598 0,6.539 2.8,11.09 9.01,14.761 7.32,4.227 16.97,6.375 28.7,6.375 13.49,0 25.53,-1.851 35.74,-5.457 4.76,-1.738 8.61,-2.574 11.79,-2.574 3.36,0 8.26,1.164 12.57,6.735 2.98,3.835 4.49,8.046 4.49,12.535 0,8.699 -4.67,15.351 -12.75,18.238 -16.4,6.012 -34.72,9.059 -54.44,9.059 -22.83,0 -41.45,-5.981 -55.41,-17.778 -13.31,-11.289 -20.06,-25.984 -20.06,-43.715 0,-16.875 6.87,-30.621 20.51,-40.957 5.8,-4.246 12.47,-7.765 19.85,-10.437 6.84,-2.508 13.79,-4.719 20.82,-6.668 6.91,-1.934 13.73,-3.734 20.42,-5.375 6.29,-1.559 11.78,-3.309 16.2,-5.145 12.29,-5.308 12.29,-10.519 12.29,-12.238 0,-5.852 0,-21.398 -36.95,-21.398 -10.47,0 -19.68,1.031 -27.38,3.082 -9.89,2.621 -14.73,4.39 -17.02,5.386 -4.83,2.149 -8.98,3.18 -12.71,3.18 -3.43,0 -8.46,-1.047 -12.88,-6.047 -3.25,-3.668 -4.97,-8.109 -4.97,-12.824 0,-4.605 1.35,-8.652 3.92,-11.93 2.26,-3 5.05,-5.242 8.4,-6.785 20.12,-8.699 41.98,-13.121 64.97,-13.121 21.84,0 39.86,5.391 53.62,16.039 13.99,10.945 21.09,25.379 21.09,42.859 0,18.301 -6.92,32.622 -20.51,42.5 z m -388.72,93.997 c -3.72,-3.883 -5.68,-8.797 -5.68,-14.219 l 0,-159.828 c 0,-5.504 2.01,-10.422 5.81,-14.223 3.82,-3.816 8.74,-5.832 14.23,-5.832 5.4,0 10.32,1.965 14.25,5.734 3.95,3.817 6.05,8.766 6.05,14.321 l 0,159.828 c 0,5.472 -2.05,10.418 -5.97,14.367 -7.88,7.816 -21.04,7.734 -28.69,-0.148 z m -246.71,-93.997 c -5.78,4.262 -12.44,7.75 -19.76,10.34 -6.81,2.442 -13.81,4.539 -21,6.34 -6.93,1.723 -13.7,3.375 -20.3,4.934 -6.02,1.426 -11.39,3.242 -16.17,5.488 -10.7,4.703 -12.08,10.273 -12.08,14.598 0,6.539 2.8,11.09 9.01,14.761 7.33,4.227 16.98,6.375 28.71,6.375 13.48,0 25.52,-1.851 35.73,-5.457 4.77,-1.738 8.62,-2.574 11.8,-2.574 3.34,0 8.24,1.164 12.61,6.77 2.95,3.851 4.46,8.043 4.46,12.5 0,8.699 -4.69,15.351 -12.76,18.238 -16.4,6.012 -34.72,9.059 -54.45,9.059 -22.82,0 -41.47,-5.981 -55.39,-17.778 -13.32,-11.273 -20.07,-25.984 -20.07,-43.715 0,-16.875 6.88,-30.636 20.51,-40.941 5.78,-4.262 12.45,-7.781 19.84,-10.453 6.85,-2.508 13.8,-4.719 20.83,-6.668 6.91,-1.934 13.72,-3.734 20.41,-5.375 6.29,-1.559 11.78,-3.309 16.2,-5.145 12.29,-5.308 12.29,-10.519 12.29,-12.238 0,-5.852 0,-21.398 -36.94,-21.398 -10.47,0 -19.68,1.031 -27.38,3.082 -9.9,2.621 -14.73,4.39 -17.03,5.386 -4.83,2.149 -8.97,3.18 -12.71,3.18 -3.42,0 -8.45,-1.047 -12.91,-6.078 -3.23,-3.668 -4.93,-8.094 -4.93,-12.793 0,-4.605 1.34,-8.652 3.95,-11.981 2.27,-2.964 5.04,-5.21 8.37,-6.734 20.12,-8.699 41.98,-13.121 64.96,-13.121 21.84,0 39.86,5.391 53.63,16.039 13.99,10.945 21.08,25.379 21.08,42.859 0,18.301 -6.91,32.622 -20.51,42.5 z m -395.94,57.051 c -5.36,1.785 -12.47,2.688 -21.17,2.688 l -36.43,0 0,-53.692 36.43,0 c 15.47,0 26.51,3.047 32.8,9.078 4.54,4.293 6.74,10.09 6.74,17.758 0,12.489 -5.67,19.942 -18.37,24.168 z m 41.31,20.547 c 11.53,-11.535 17.41,-26.594 17.41,-44.715 0,-18.121 -5.88,-33.191 -17.5,-44.773 -13.59,-13.996 -33.83,-21.121 -60.06,-21.121 l -38.76,0 0,-47.039 c 0,-5.555 -2.1,-10.504 -6.07,-14.321 -3.91,-3.769 -8.83,-5.734 -14.23,-5.734 -5.49,0 -10.41,2.016 -14.23,5.832 -3.8,3.801 -5.81,8.719 -5.81,14.223 l 0,158.531 c 0,5.426 1.96,10.34 5.68,14.223 3.85,3.984 8.8,6.078 14.36,6.078 l 59.06,0 c 26.25,0 46.48,-7.125 60.15,-21.184 z m -424.76,-91.75 -22.4,53.918 -22.4,-53.918 44.8,0 z m 67.7,-57.445 c 1.32,-3.211 1.96,-6.504 1.96,-9.879 0,-4.508 -1.8,-8.734 -5.35,-12.567 -3.69,-4.015 -9.07,-6.062 -15.98,-6.062 -7.91,0 -14.14,4.375 -17.56,12.336 l -14.72,35.324 -76.89,0 -14.68,-35.242 c -3.46,-8.043 -9.7,-12.418 -17.6,-12.418 -6.9,0 -12.28,2.047 -16,6.078 -3.54,3.817 -5.34,8.043 -5.34,12.551 0,3.457 0.66,6.766 1.96,9.863 l 66.06,155.961 c 4.46,10.176 12.53,15.731 22.75,15.731 l 2.59,0 c 10.2,0 18.26,-5.555 22.7,-15.633 l 66.1,-156.043 z m -432.9,165.594 c -3.72,-3.883 -5.7,-8.813 -5.7,-14.219 l 0,-113.051 -84.79,122.438 c -7.21,9.011 -15.29,10.914 -20.8,10.914 l -3.36,0 c -6.91,0 -13.11,-2.625 -17.92,-7.571 -4.78,-4.898 -7.31,-11.093 -7.31,-17.91 l 0,-154.648 c 0,-5.504 2.02,-10.438 5.82,-14.207 7.55,-7.618 20.61,-7.664 28.47,-0.114 3.96,3.817 6.06,8.766 6.06,14.321 l 0,113.281 85.12,-122.949 c 5.05,-6.797 12.13,-10.387 20.47,-10.387 l 3.1,0 c 6.8,0 13,2.523 17.94,7.309 4.94,4.847 7.56,11.058 7.56,17.921 l 0,154.653 c 0,5.488 -2.07,10.453 -5.97,14.351 -7.82,7.817 -21.04,7.797 -28.69,-0.132 z m -409.01,0.019 c -3.73,-3.883 -5.7,-8.801 -5.7,-14.238 l 0,-159.828 c 0,-5.524 2.01,-10.438 5.82,-14.223 3.81,-3.816 8.73,-5.832 14.22,-5.832 5.4,0 10.33,1.965 14.24,5.734 3.96,3.817 6.06,8.766 6.06,14.321 l 0,159.828 c 0,5.472 -2.05,10.418 -5.97,14.367 -7.86,7.816 -21.04,7.719 -28.67,-0.129 z m -323.74,-36.754 c 15.54,6.442 37.96,5.723 50.64,1.805 6.74,-2.098 13.42,-4.852 19.9,-8.258 5.83,-2.996 16.13,-3.031 22.32,3.754 3.22,3.52 4.92,7.797 4.92,12.387 0,4.093 -0.96,7.683 -2.87,10.715 -1.92,3.046 -5.52,5.847 -12.02,9.355 -5.35,2.914 -12.95,6.027 -22.56,9.238 -10.05,3.395 -22.06,5.114 -35.7,5.114 -28.58,0 -52.35,-9.176 -70.64,-27.247 -18.86,-18.5 -28.42,-43.437 -28.42,-74.14 0,-30.703 9.56,-55.641 28.36,-74.055 8.92,-8.914 19.58,-15.777 31.68,-20.414 11.96,-4.59 25.04,-6.914 38.89,-6.914 13.72,0 25.78,1.719 35.83,5.109 9.63,3.231 18.85,7.258 27.12,11.832 6.66,3.34 10.33,9.5 10.33,17.352 0,4.668 -1.7,8.992 -4.92,12.531 -6.16,6.699 -16.24,6.801 -22.39,3.703 -6.47,-3.375 -13.14,-6.144 -19.83,-8.226 -6.4,-1.981 -14.37,-2.981 -23.68,-2.981 -19.85,0 -34.86,5.817 -45.88,17.746 -10.2,11.106 -15.15,25.59 -15.15,44.317 0,18.726 4.95,33.226 15.14,44.32 5.02,5.453 11.39,9.813 18.93,12.957 z m -284.31,-99.762 c 0,-17.496 -7.09,-31.914 -21.09,-42.859 -13.75,-10.648 -31.77,-16.039 -53.61,-16.039 -23,0 -44.85,4.422 -64.99,13.121 -3.32,1.524 -6.08,3.77 -8.36,6.734 -2.57,3.329 -3.95,7.473 -3.95,11.981 0,4.699 1.71,9.125 4.96,12.809 4.44,5.015 9.46,6.062 12.89,6.062 3.72,0 7.87,-1.031 12.71,-3.18 2.3,-0.996 7.12,-2.765 17.03,-5.386 7.7,-2.051 16.91,-3.082 27.38,-3.082 36.94,0 36.94,15.546 36.94,21.398 0,1.719 0,6.93 -12.29,12.238 -4.42,1.836 -9.9,3.586 -16.18,5.145 -6.7,1.641 -13.53,3.441 -20.43,5.375 -7.04,1.949 -13.98,4.16 -20.84,6.668 -7.35,2.672 -14.03,6.176 -19.83,10.453 -13.65,10.32 -20.52,24.066 -20.52,40.941 0,17.731 6.75,32.426 20.07,43.715 13.95,11.797 32.6,17.778 55.41,17.778 19.72,0 38.04,-3.047 54.44,-9.059 8.07,-2.887 12.75,-9.539 12.75,-18.238 0,-4.473 -1.51,-8.684 -4.47,-12.52 -4.34,-5.586 -9.24,-6.75 -12.59,-6.75 -3.21,0 -6.96,0.82 -11.8,2.559 -10.21,3.621 -22.25,5.472 -35.74,5.472 -11.72,0 -21.38,-2.148 -28.7,-6.375 -6.22,-3.671 -9.02,-8.242 -9.02,-14.761 0,-4.325 1.38,-9.895 12.08,-14.598 4.8,-2.246 10.18,-4.062 16.18,-5.488 6.59,-1.559 13.36,-3.211 20.3,-4.934 7.18,-1.816 14.19,-3.898 20.99,-6.34 7.32,-2.59 13.96,-6.062 19.76,-10.34 13.61,-9.878 20.52,-24.199 20.52,-42.5" /></g></g></svg>