<?xml version="1.0" encoding="utf-8"?>
<!-- Generator: Adobe Illustrator 16.0.0, SVG Export Plug-In . SVG Version: 6.00 Build 0)  -->
<!DOCTYPE svg PUBLIC "-//W3C//DTD SVG 1.1//EN" "http://www.w3.org/Graphics/SVG/1.1/DTD/svg11.dtd">
<svg version="1.1"
	 id="svg2" xmlns:dc="http://purl.org/dc/elements/1.1/" xmlns:cc="http://creativecommons.org/ns#" xmlns:rdf="http://www.w3.org/1999/02/22-rdf-syntax-ns#" xmlns:svg="http://www.w3.org/2000/svg"
	 xmlns="http://www.w3.org/2000/svg" xmlns:xlink="http://www.w3.org/1999/xlink" x="0px" y="0px" width="152.433px"
	 height="651.666px" viewBox="266.734 -206.333 152.433 651.666" enable-background="new 266.734 -206.333 152.433 651.666"
	 xml:space="preserve">
<g id="g10" transform="matrix(1.3333333,0,0,-1.3333333,0,213.33333)">
	<g id="g12" transform="scale(0.1)">
		<path id="path14" fill="#382751" d="M2179.468,2127.95c-32.633-16.165-45.981-55.708-29.813-88.33
			c16.161-32.622,55.715-45.981,88.341-29.817c32.622,16.165,45.967,55.73,29.802,88.337
			C2251.634,2130.777,2212.079,2144.107,2179.468,2127.95"/>
		<path id="path16" fill="#382751" d="M2182.793,3038.72c-32.622-16.161-45.963-55.704-29.802-88.333
			c16.172-32.629,55.715-45.971,88.33-29.802c32.633,16.161,45.985,55.708,29.82,88.337
			C2254.974,3041.547,2215.426,3054.885,2182.793,3038.72"/>
		<path id="path88" fill="#9B3478" d="M2285.794,3016.188c-20.142,40.657-69.609,57.337-110.255,37.203
			c-40.66-20.149-57.356-69.602-37.21-110.259c20.142-40.664,69.605-57.352,110.27-37.203
			C2289.244,2926.059,2305.943,2975.52,2285.794,3016.188z M2172.203,2142.598c-40.657-20.142-57.338-69.595-37.196-110.244
			c20.138-40.649,69.587-57.349,110.248-37.192c40.642,20.134,57.337,69.595,37.196,110.244
			C2262.316,2146.048,2212.852,2162.74,2172.203,2142.598z M2313.717,3030.026c27.773-56.063,4.775-124.251-51.284-152.025
			c-11.953-5.922-24.459-9.401-37.009-10.884l1.11-686.353c35.021-5.618,66.929-27.393,83.836-61.531
			c27.773-56.06,4.768-124.226-51.292-152c-56.052-27.773-124.237-4.775-152.01,51.284c-27.77,56.06-4.757,124.233,51.302,152.007
			c11.942,5.911,24.445,9.397,36.987,10.884l-1.117,686.346c-35.021,5.628-66.933,27.418-83.837,61.531
			c-27.777,56.067-4.753,124.251,51.306,152.025C2217.767,3109.081,2285.94,3086.079,2313.717,3030.026z"/>
	</g>
</g>
<g id="g10_2_" transform="matrix(1.3333333,0,0,-1.3333333,0,213.33333)">
	<g id="g12_2_" transform="scale(0.1)">
		<path id="path14_2_" fill="#382751" d="M2509.465,953.647c-32.629-16.165-45.981-55.708-29.81-88.331
			c16.157-32.622,55.715-45.981,88.345-29.817c32.622,16.165,45.967,55.73,29.795,88.337
			C2581.637,956.475,2542.079,969.805,2509.465,953.647"/>
		<path id="path16_2_" fill="#382751" d="M2512.79,1864.417c-32.622-16.161-45.959-55.704-29.795-88.333
			c16.172-32.629,55.708-45.971,88.33-29.802c32.629,16.161,45.981,55.708,29.817,88.337
			C2584.977,1867.245,2545.427,1880.582,2512.79,1864.417"/>
		<path id="path88_2_" fill="#9B3478" d="M2615.798,1841.885c-20.142,40.657-69.609,57.337-110.259,37.203
			c-40.664-20.149-57.356-69.602-37.207-110.259c20.142-40.664,69.602-57.352,110.266-37.203
			C2619.24,1751.756,2635.939,1801.217,2615.798,1841.885z M2502.199,968.296c-40.649-20.142-57.334-69.595-37.192-110.245
			s69.587-57.349,110.244-37.192c40.649,20.134,57.341,69.595,37.2,110.244C2592.316,971.746,2542.848,988.438,2502.199,968.296z
			 M2643.718,1855.724c27.773-56.063,4.775-124.251-51.284-152.025c-11.953-5.922-24.463-9.401-37.009-10.884l1.106-686.353
			c35.024-5.618,66.929-27.393,83.84-61.531c27.773-56.06,4.768-124.227-51.292-152c-56.052-27.773-124.233-4.775-152.01,51.284
			c-27.77,56.06-4.757,124.234,51.302,152.007c11.938,5.911,24.448,9.397,36.987,10.884l-1.113,686.345
			c-35.024,5.628-66.936,27.418-83.84,61.531c-27.777,56.067-4.753,124.251,51.306,152.025
			C2547.77,1934.778,2615.944,1911.776,2643.718,1855.724z"/>
	</g>
</g>
<g id="g10_3_" transform="matrix(1.3333333,0,0,-1.3333333,0,213.33333)">
	<g id="g12_3_" transform="scale(0.1)">
		<path id="path14_3_" fill="#382751" d="M2855.717-874.624c-32.629-16.165-45.981-55.708-29.81-88.33
			c16.157-32.622,55.715-45.981,88.345-29.817c32.622,16.165,45.967,55.73,29.795,88.337
			C2927.89-871.797,2888.332-858.467,2855.717-874.624"/>
		<path id="path16_3_" fill="#382751" d="M2859.042,36.143c-32.622-16.157-45.959-55.701-29.795-88.33
			c16.172-32.629,55.708-45.967,88.33-29.802c32.629,16.165,45.981,55.708,29.817,88.337
			C2931.23,38.97,2891.679,52.314,2859.042,36.143"/>
		<path id="path88_3_" fill="#9B3478" d="M2962.05,13.613c-20.142,40.657-69.609,57.334-110.259,37.207
			c-40.664-20.156-57.356-69.609-37.207-110.259c20.142-40.664,69.602-57.356,110.266-37.207
			C2965.493-76.519,2982.192-27.051,2962.05,13.613z M2848.452-859.976c-40.649-20.142-57.334-69.595-37.192-110.244
			s69.587-57.349,110.244-37.192c40.649,20.134,57.341,69.595,37.2,110.244C2938.569-856.526,2889.101-839.834,2848.452-859.976z
			 M2989.97,27.456c27.773-56.067,4.775-124.255-51.284-152.029c-11.953-5.925-24.463-9.397-37.009-10.884l1.106-686.353
			c35.024-5.618,66.929-27.393,83.84-61.531c27.773-56.06,4.768-124.226-51.292-152c-56.052-27.773-124.233-4.775-152.007,51.284
			s-4.761,124.233,51.299,152.007c11.938,5.911,24.448,9.397,36.987,10.884l-1.113,686.345
			c-35.024,5.625-66.936,27.422-83.84,61.531c-27.781,56.067-4.753,124.255,51.306,152.029
			C2894.023,106.506,2962.197,83.501,2989.97,27.456z"/>
	</g>
</g>
<g id="g10_4_" transform="matrix(1.3333333,0,0,-1.3333333,0,213.33333)">
	<g id="g12_4_" transform="scale(0.1)">
		<path id="path14_4_" fill="#382751" d="M2131.971-785.261c-32.633-16.165-45.981-55.708-29.813-88.33
			c16.161-32.622,55.715-45.981,88.345-29.817c32.622,16.165,45.967,55.73,29.795,88.337
			C2204.14-782.434,2164.582-769.104,2131.971-785.261"/>
		<path id="path16_4_" fill="#382751" d="M2135.296,125.513c-32.622-16.165-45.963-55.708-29.802-88.337
			c16.172-32.629,55.715-45.974,88.334-29.802c32.629,16.157,45.981,55.708,29.817,88.337S2167.929,141.67,2135.296,125.513"/>
		<path id="path88_4_" fill="#9B3478" d="M2238.3,102.977c-20.142,40.657-69.609,57.341-110.259,37.2
			c-40.661-20.142-57.356-69.595-37.211-110.259c20.142-40.664,69.606-57.349,110.27-37.2
			C2241.743,12.852,2258.442,62.305,2238.3,102.977z M2124.705-770.612c-40.657-20.142-57.337-69.595-37.196-110.244
			c20.138-40.649,69.587-57.349,110.244-37.192c40.649,20.134,57.341,69.595,37.2,110.244
			C2214.819-767.163,2165.351-750.471,2124.705-770.612z M2266.22,116.812c27.773-56.06,4.775-124.248-51.284-152.021
			c-11.953-5.918-24.463-9.404-37.009-10.884l1.106-686.353c35.024-5.618,66.929-27.393,83.84-61.531
			c27.773-56.06,4.768-124.226-51.292-152c-56.052-27.773-124.237-4.775-152.011,51.284c-27.77,56.06-4.757,124.233,51.303,152.007
			c11.942,5.911,24.444,9.397,36.987,10.884l-1.117,686.345c-35.021,5.632-66.932,27.415-83.836,61.531
			c-27.777,56.067-4.753,124.248,51.306,152.021S2238.447,172.872,2266.22,116.812z"/>
	</g>
</g>
<g id="g10_5_" transform="matrix(1.3333333,0,0,-1.3333333,0,213.33333)">
	<g id="g12_5_" transform="scale(0.1)">
		<path id="path14_5_" fill="#382751" d="M2420.201-1354.082c-32.633-16.165-45.981-55.708-29.813-88.33
			c16.161-32.622,55.715-45.981,88.345-29.817c32.622,16.165,45.967,55.73,29.795,88.337
			C2492.37-1351.254,2452.812-1337.924,2420.201-1354.082"/>
		<path id="path16_5_" fill="#382751" d="M2423.526-443.315c-32.622-16.157-45.963-55.701-29.802-88.33
			c16.172-32.629,55.715-45.967,88.334-29.802c32.629,16.165,45.981,55.708,29.817,88.337
			C2495.71-440.488,2456.159-427.143,2423.526-443.315"/>
		<path id="path88_5_" fill="#9B3478" d="M2526.53-465.844c-20.142,40.657-69.609,57.334-110.259,37.207
			c-40.661-20.156-57.356-69.609-37.211-110.259c20.142-40.664,69.606-57.356,110.27-37.207
			C2529.973-555.976,2546.672-506.508,2526.53-465.844z M2412.935-1339.433c-40.657-20.142-57.337-69.595-37.196-110.244
			c20.138-40.649,69.587-57.349,110.244-37.192c40.649,20.134,57.341,69.595,37.2,110.244
			C2503.049-1335.983,2453.581-1319.292,2412.935-1339.433z M2554.45-452.001c27.773-56.067,4.775-124.255-51.284-152.029
			c-11.953-5.925-24.463-9.397-37.009-10.884l1.106-686.353c35.024-5.618,66.929-27.393,83.84-61.531
			c27.773-56.06,4.768-124.226-51.292-152c-56.052-27.773-124.237-4.775-152.011,51.284c-27.77,56.06-4.757,124.233,51.303,152.007
			c11.942,5.911,24.444,9.397,36.987,10.884l-1.117,686.345c-35.021,5.625-66.932,27.422-83.836,61.531
			c-27.777,56.067-4.753,124.255,51.306,152.029C2458.503-372.951,2526.677-395.957,2554.45-452.001z"/>
	</g>
</g>
<g id="g10_8_" transform="matrix(1.3333333,0,0,-1.3333333,0,213.33333)">
	<g id="g12_8_" transform="scale(0.1)">
		<path id="path14_8_" fill="#382751" d="M2904.885,534.908c-32.629-16.157-45.981-55.708-29.81-88.33
			c16.157-32.622,55.715-45.981,88.345-29.81c32.622,16.157,45.967,55.723,29.795,88.33
			C2977.058,537.735,2937.5,551.065,2904.885,534.908"/>
		<path id="path16_8_" fill="#382751" d="M2908.21,1445.678c-32.622-16.161-45.959-55.704-29.795-88.333
			c16.172-32.629,55.708-45.971,88.33-29.802c32.629,16.161,45.981,55.708,29.817,88.337
			C2980.397,1448.505,2940.847,1461.843,2908.21,1445.678"/>
		<path id="path88_8_" fill="#9B3478" d="M3011.218,1423.146c-20.142,40.657-69.609,57.337-110.259,37.203
			c-40.664-20.149-57.356-69.602-37.207-110.259c20.142-40.664,69.602-57.352,110.266-37.203
			C3014.66,1333.017,3031.359,1382.478,3011.218,1423.146z M2897.619,549.556c-40.649-20.142-57.334-69.595-37.192-110.244
			s69.587-57.349,110.244-37.192c40.649,20.142,57.341,69.595,37.2,110.244C2987.736,553.013,2938.269,569.698,2897.619,549.556z
			 M3039.138,1436.984c27.773-56.063,4.775-124.251-51.284-152.025c-11.953-5.922-24.463-9.401-37.009-10.884l1.106-686.346
			c35.024-5.625,66.929-27.393,83.84-61.538c27.773-56.06,4.768-124.219-51.292-151.992
			c-56.052-27.773-124.233-4.775-152.007,51.284s-4.761,124.233,51.299,152.007c11.938,5.903,24.448,9.39,36.987,10.884
			l-1.113,686.338c-35.024,5.628-66.936,27.418-83.84,61.531c-27.781,56.067-4.753,124.251,51.306,152.025
			C2943.19,1516.039,3011.364,1493.037,3039.138,1436.984z"/>
	</g>
</g>
<g id="g10_1_" transform="matrix(1.3333333,0,0,-1.3333333,0,213.33333)">
	<g id="g12_1_" transform="scale(0.1)">
		<path id="path14_1_" fill="#382751" d="M2918.325,2533.68c-32.637-16.165-45.981-55.708-29.817-88.33s55.715-45.981,88.345-29.817
			c32.622,16.165,45.967,55.73,29.795,88.337C2990.49,2536.507,2950.932,2549.837,2918.325,2533.68"/>
		<path id="path16_1_" fill="#382751" d="M2921.65,3444.45c-32.622-16.16-45.967-55.704-29.81-88.333
			c16.172-32.629,55.715-45.97,88.337-29.802c32.629,16.161,45.981,55.708,29.817,88.338
			C2993.83,3447.277,2954.279,3460.615,2921.65,3444.45"/>
		<path id="path88_1_" fill="#9B3478" d="M3024.65,3421.918c-20.142,40.656-69.609,57.337-110.259,37.203
			c-40.657-20.149-57.356-69.603-37.214-110.259c20.142-40.664,69.609-57.353,110.273-37.204
			C3028.093,3331.79,3044.792,3381.25,3024.65,3421.918z M2911.059,2548.329c-40.664-20.142-57.341-69.595-37.2-110.244
			c20.134-40.649,69.587-57.349,110.244-37.192c40.649,20.134,57.341,69.595,37.2,110.244
			C3001.169,2551.778,2951.701,2568.47,2911.059,2548.329z M3052.57,3435.757c27.773-56.063,4.775-124.252-51.284-152.025
			c-11.953-5.921-24.463-9.4-37.009-10.884l1.106-686.353c35.024-5.618,66.929-27.393,83.84-61.531
			c27.773-56.06,4.768-124.226-51.292-152c-56.052-27.773-124.241-4.775-152.014,51.284c-27.766,56.06-4.753,124.233,51.306,152.007
			c11.946,5.911,24.441,9.397,36.987,10.884l-1.121,686.345c-35.017,5.629-66.929,27.418-83.833,61.531
			c-27.773,56.067-4.753,124.252,51.306,152.025C2956.623,3514.811,3024.797,3491.809,3052.57,3435.757z"/>
	</g>
</g>
<g id="g10_6_" transform="matrix(1.3333333,0,0,-1.3333333,0,213.33333)">
	<g id="g12_6_" transform="scale(0.1)">
		<path id="path14_6_" fill="#382751" d="M2916.655-2364.619c-32.637-16.165-45.981-55.708-29.817-88.33
			s55.715-45.981,88.345-29.817c32.622,16.165,45.967,55.73,29.795,88.337C2988.82-2361.792,2949.262-2348.462,2916.655-2364.619"/>
		<path id="path16_6_" fill="#382751" d="M2919.98-1453.852c-32.622-16.157-45.967-55.701-29.81-88.33
			c16.172-32.629,55.715-45.967,88.337-29.802c32.629,16.165,45.981,55.708,29.817,88.337
			C2992.16-1451.025,2952.609-1437.68,2919.98-1453.852"/>
		<path id="path88_6_" fill="#9B3478" d="M3022.98-1476.381c-20.142,40.657-69.609,57.334-110.259,37.207
			c-40.657-20.156-57.356-69.609-37.214-110.259c20.142-40.664,69.609-57.356,110.273-37.207
			C3026.423-1566.513,3043.122-1517.045,3022.98-1476.381z M2909.389-2349.97c-40.664-20.142-57.341-69.595-37.2-110.244
			c20.134-40.649,69.587-57.349,110.244-37.192c40.649,20.134,57.341,69.595,37.2,110.244
			C2999.499-2346.521,2950.031-2329.829,2909.389-2349.97z M3050.9-1462.539c27.773-56.067,4.775-124.255-51.284-152.029
			c-11.953-5.925-24.463-9.397-37.009-10.884l1.106-686.353c35.024-5.618,66.929-27.393,83.84-61.531
			c27.773-56.06,4.768-124.226-51.292-152c-56.052-27.773-124.241-4.775-152.014,51.284c-27.766,56.06-4.753,124.233,51.306,152.007
			c11.946,5.911,24.441,9.397,36.987,10.884l-1.121,686.345c-35.017,5.625-66.929,27.422-83.833,61.531
			c-27.773,56.067-4.753,124.255,51.306,152.029C2954.953-1383.488,3023.127-1406.494,3050.9-1462.539z"/>
	</g>
</g>
</svg>
